<svg width="32" height="32" viewBox="0 0 32 32" fill="none"
  xmlns="http://www.w3.org/2000/svg">
  <path d="M26.2397 23.4666H5.75967C5.52403 23.4666 5.33301 23.6576 5.33301 23.8932V25.1732C5.33301 25.4089 5.52403 25.5999 5.75967 25.5999H26.2397C26.4753 25.5999 26.6663 25.4089 26.6663 25.1732V23.8932C26.6663 23.6576 26.4753 23.4666 26.2397 23.4666Z" fill="currentColor"/>
  <path d="M18.1338 21.9734V10.0268C18.1338 9.79112 17.9428 9.6001 17.7071 9.6001H14.2938C14.0581 9.6001 13.8671 9.79112 13.8671 10.0268V21.9734C13.8671 22.2091 14.0581 22.4001 14.2938 22.4001H17.7071C17.9428 22.4001 18.1338 22.2091 18.1338 21.9734Z" fill="currentColor"/>
  <path d="M24.5332 21.9733V5.75992C24.5332 5.52428 24.3422 5.33325 24.1065 5.33325H20.6932C20.4576 5.33325 20.2665 5.52428 20.2665 5.75992V21.9733C20.2665 22.2089 20.4576 22.3999 20.6932 22.3999H24.1065C24.3422 22.3999 24.5332 22.2089 24.5332 21.9733Z" fill="currentColor"/>
  <path d="M11.7334 21.9734V14.2934C11.7334 14.0577 11.5424 13.8667 11.3067 13.8667H7.8934C7.65776 13.8667 7.46673 14.0577 7.46673 14.2934L7.46673 21.9734C7.46673 22.209 7.65776 22.4 7.8934 22.4H11.3067C11.5424 22.4 11.7334 22.209 11.7334 21.9734Z" fill="currentColor"/>
</svg>
