<svg width="32" height="33" viewBox="0 0 32 33" fill="none"
  xmlns="http://www.w3.org/2000/svg">
  <path d="M28.2219 14.4013H24.4118C24.239 14.3992 24.0854 14.2925 24.0214 14.1325L20.8683 6.14105C20.8043 5.97892 20.6465 5.87012 20.4715 5.87012H18.3318C18.1803 5.87012 18.0779 6.02158 18.1334 6.16238L21.327 14.2584C21.3547 14.3266 21.3057 14.3992 21.2331 14.4035H10.7542C10.6817 14.3992 10.6326 14.3266 10.6603 14.2584L13.8539 6.16238C13.9094 6.02158 13.807 5.87012 13.6555 5.87012H11.5158C11.3409 5.87012 11.183 5.97678 11.119 6.14105L7.96595 14.1325C7.90195 14.2925 7.74834 14.3992 7.57554 14.4013H3.74621C3.46035 14.4013 3.25341 14.6808 3.33875 14.956L7.40061 28.0739C7.42835 28.1635 7.50941 28.2253 7.60328 28.2253H24.3649C24.4587 28.2253 24.5398 28.1635 24.5675 28.0739L28.6294 14.956C28.7147 14.6808 28.5078 14.4013 28.2219 14.4013ZM11.7334 24.8568C11.7334 24.9741 11.6374 25.0701 11.5201 25.0701H9.81341C9.69608 25.0701 9.60008 24.9741 9.60008 24.8568V17.8168C9.60008 17.6994 9.69608 17.6034 9.81341 17.6034H11.5201C11.6374 17.6034 11.7334 17.6994 11.7334 17.8168V24.8568ZM17.0667 24.8568C17.0667 24.9741 16.9707 25.0701 16.8534 25.0701H15.1467C15.0294 25.0701 14.9334 24.9741 14.9334 24.8568V17.8168C14.9334 17.6994 15.0294 17.6034 15.1467 17.6034H16.8534C16.9707 17.6034 17.0667 17.6994 17.0667 17.8168V24.8568ZM22.4001 24.8568C22.4001 24.9741 22.3041 25.0701 22.1867 25.0701H20.4801C20.3627 25.0701 20.2667 24.9741 20.2667 24.8568V17.8168C20.2667 17.6994 20.3627 17.6034 20.4801 17.6034H22.1867C22.3041 17.6034 22.4001 17.6994 22.4001 17.8168V24.8568Z" fill="currentColor"/>
</svg>
