<svg width="32" height="33" viewBox="0 0 32 33" fill="none"
  xmlns="http://www.w3.org/2000/svg">
  <path d="M5.22445 17.1362H3.46018C3.40127 17.1362 3.35352 17.184 3.35352 17.2429V18.0877C3.35352 18.1466 3.40127 18.1944 3.46018 18.1944H5.22445C5.28336 18.1944 5.33112 18.1466 5.33112 18.0877V17.2429C5.33112 17.184 5.28336 17.1362 5.22445 17.1362Z" fill="currentColor"/>
  <path d="M28.5379 17.1362H26.7737C26.7147 17.1362 26.667 17.184 26.667 17.2429V18.0877C26.667 18.1466 26.7147 18.1944 26.7737 18.1944H28.5379C28.5968 18.1944 28.6446 18.1466 28.6446 18.0877V17.2429C28.6446 17.184 28.5968 17.1362 28.5379 17.1362Z" fill="currentColor"/>
  <path d="M24.4047 10.9051L25.9183 9.80537L26.5402 10.6614L25.0266 11.7611C24.9783 11.7962 24.9127 11.7859 24.8776 11.7375L24.3811 11.0541C24.3459 11.0057 24.3563 10.9402 24.4047 10.9051Z" fill="currentColor"/>
  <path d="M19.3721 5.57733L18.8269 7.25524C18.8087 7.31127 18.8394 7.37145 18.8954 7.38965L19.6988 7.65071C19.7549 7.66891 19.815 7.63825 19.8333 7.58222L20.3784 5.90431C20.3966 5.84828 20.366 5.7881 20.31 5.7699L19.5065 5.50884C19.4505 5.49064 19.3903 5.5213 19.3721 5.57733Z" fill="currentColor"/>
  <path d="M11.622 5.90399L12.1672 7.5819C12.1854 7.63793 12.2456 7.66859 12.3016 7.65039L13.1051 7.38933C13.1611 7.37113 13.1918 7.31095 13.1736 7.25492L12.6284 5.577C12.6102 5.52098 12.55 5.49032 12.494 5.50852L11.6905 5.76958C11.6345 5.78778 11.6038 5.84796 11.622 5.90399Z" fill="currentColor"/>
  <path d="M5.54498 10.7228L6.9723 11.7598C7.01996 11.7944 7.08666 11.7839 7.12129 11.7362L7.61785 11.0528C7.65248 11.0051 7.64191 10.9384 7.59425 10.9038L6.16693 9.86675C6.11927 9.83213 6.05257 9.84269 6.01794 9.89035L5.52138 10.5738C5.48675 10.6215 5.49732 10.6882 5.54498 10.7228Z" fill="currentColor"/>
  <path d="M18.7522 19.0734C18.4237 20.6222 16.9026 21.6099 15.3538 21.2814C14.3938 21.0766 13.6045 20.3961 13.2631 19.4766L10.5794 10.4889C10.5346 10.3673 10.6861 10.2691 10.7799 10.3587L17.9543 16.4302C18.6562 17.1171 18.957 18.1134 18.7522 19.0734Z" fill="currentColor"/>
  <path d="M30.1549 17.5181C29.9395 9.79334 23.4627 3.6088 15.7357 3.73254C8.00668 3.85627 1.77734 10.1603 1.77734 17.9213C1.77734 20.7181 2.58801 23.3272 3.98748 25.5245C4.03441 25.5992 4.08348 25.6781 4.13681 25.7528L4.26481 25.9384C4.35228 26.0685 4.49734 26.1432 4.65308 26.1432H27.2835C27.4392 26.1432 27.5843 26.0664 27.6717 25.9384L27.7997 25.7528C29.3571 23.4019 30.2381 20.5667 30.1549 17.5181ZM25.9245 23.8947C25.8819 23.9629 25.8051 24.0035 25.724 24.0035H6.20401C6.13148 24.0035 6.06321 23.9651 6.02268 23.9032C4.67228 21.772 3.98748 19.18 4.26694 16.4195C4.83441 10.8088 9.40188 6.35014 15.0232 5.90854C21.9352 5.36454 27.7336 10.8365 27.7336 17.6355C27.7336 19.9331 27.0701 22.0813 25.9245 23.8947Z" fill="currentColor"/>
</svg>
