<svg width="21" height="16" viewBox="0 0 21 16" fill="none"
  xmlns="http://www.w3.org/2000/svg">
  <path d="M17.7456 1.75468C16.4346 1.16064 15.0478 0.738695 13.6218 0.5C13.4275 0.84571 13.2512 1.20065 13.0936 1.56349C11.5791 1.33932 10.0382 1.33932 8.52368 1.56349C8.36456 1.20032 8.18621 0.845349 7.98934 0.5C6.56105 0.739114 5.17225 1.1627 3.86003 1.75946C1.52691 5.04131 0.476158 9.02157 0.896183 12.9865C2.41953 14.1014 4.13097 14.9514 5.95427 15.4988C6.36405 14.9523 6.72624 14.3738 7.03713 13.7691C6.44492 13.5506 5.87401 13.2812 5.33117 12.9643C5.47415 12.8616 5.61406 12.754 5.74903 12.6435C7.32638 13.3798 9.05459 13.7622 10.8053 13.7622C12.556 13.7622 14.2842 13.3798 15.8615 12.6435C15.9983 12.754 16.1382 12.8616 16.2794 12.9643C15.7357 13.282 15.1637 13.5518 14.5703 13.7703C14.8812 14.3751 15.2436 14.9537 15.6538 15.5C17.4786 14.953 19.1912 14.1023 20.715 12.9859C21.1358 9.01883 20.0829 5.0364 17.7456 1.75468ZM7.48642 10.7244C6.97851 10.6888 6.50541 10.4611 6.16919 10.0903C5.83297 9.71957 5.6606 9.23553 5.68926 8.74265C5.65765 8.24896 5.82894 7.76322 6.16571 7.39163C6.50249 7.02004 6.97733 6.79282 7.48642 6.75966C7.73907 6.77454 7.98618 6.83776 8.21352 6.94566C8.44085 7.05356 8.6439 7.20402 8.81096 7.38836C8.97803 7.5727 9.10581 7.78727 9.18692 8.01971C9.26804 8.25214 9.3009 8.49784 9.2836 8.74265C9.31554 9.23629 9.1443 9.72207 8.80743 10.0935C8.47056 10.465 7.99553 10.6919 7.48642 10.7244ZM14.1278 10.7244C13.6199 10.6888 13.1468 10.4611 12.8106 10.0903C12.4744 9.71957 12.302 9.23553 12.3306 8.74265C12.299 8.24896 12.4703 7.76322 12.8071 7.39163C13.1439 7.02004 13.6187 6.79282 14.1278 6.75966C14.3805 6.77454 14.6276 6.83776 14.8549 6.94566C15.0823 7.05356 15.2853 7.20402 15.4524 7.38836C15.6194 7.5727 15.7472 7.78727 15.8283 8.01971C15.9094 8.25214 15.9423 8.49784 15.925 8.74265C15.9568 9.23625 15.7855 9.72195 15.4486 10.0934C15.1118 10.4648 14.6369 10.6917 14.1278 10.7244Z" fill="currentColor"/>
</svg>
