<svg width="32" height="32" viewBox="0 0 32 32" fill="none"
  xmlns="http://www.w3.org/2000/svg">
  <path d="M25.3867 24.5291H11.9467C11.8294 24.5291 11.7334 24.4331 11.7334 24.3158V23.6801C11.7334 23.5627 11.8294 23.4667 11.9467 23.4667H25.3867C25.5041 23.4667 25.6001 23.5627 25.6001 23.6801V24.3158C25.6001 24.4331 25.5041 24.5291 25.3867 24.5291ZM25.3867 21.3334H11.9467C11.8294 21.3334 11.7334 21.4294 11.7334 21.5467V22.1825C11.7334 22.2998 11.8294 22.3958 11.9467 22.3958H25.3867C25.5041 22.3958 25.6001 22.2998 25.6001 22.1825V21.5467C25.6001 21.4294 25.5041 21.3334 25.3867 21.3334ZM25.3867 19.2001H11.9467C11.8294 19.2001 11.7334 19.2961 11.7334 19.4134V20.0491C11.7334 20.1665 11.8294 20.2625 11.9467 20.2625H25.3867C25.5041 20.2625 25.6001 20.1665 25.6001 20.0491V19.4134C25.6001 19.2961 25.5041 19.2001 25.3867 19.2001ZM25.3867 17.0667H11.9467C11.8294 17.0667 11.7334 17.1627 11.7334 17.2801V17.9158C11.7334 18.0331 11.8294 18.1291 11.9467 18.1291H25.3867C25.5041 18.1291 25.6001 18.0331 25.6001 17.9158V17.2801C25.6001 17.1627 25.5041 17.0667 25.3867 17.0667ZM25.3867 14.9355H11.9467C11.8294 14.9355 11.7334 15.0315 11.7334 15.1489V15.7846C11.7334 15.9019 11.8294 15.9979 11.9467 15.9979H25.3867C25.5041 15.9979 25.6001 15.9019 25.6001 15.7846V15.1489C25.6001 15.0315 25.5041 14.9355 25.3867 14.9355Z" fill="currentColor"/>
  <path d="M27.7402 10.2229L21.7775 4.24959C21.0927 3.56266 20.1818 3.18506 19.2111 3.18506H10.0271C9.62815 3.18506 9.25269 3.34079 8.97109 3.62239C8.68949 3.90399 8.53375 4.27946 8.53375 4.67839V7.46879H6.80362C6.56895 7.46879 6.37695 7.66079 6.37695 7.89546V29.44C6.37695 29.6747 6.56895 29.8667 6.80362 29.8667H24.0836C24.3183 29.8667 24.5103 29.6747 24.5103 29.44V27.7355H27.3071C28.1306 27.7355 28.8004 27.0656 28.8004 26.2421V12.7851C28.8004 11.8165 28.425 10.9077 27.7402 10.2229ZM26.665 10.656C26.6287 10.656 26.5946 10.6496 26.5583 10.6496H21.3444V5.42933C21.3444 5.39306 21.3402 5.35893 21.338 5.32266L26.6628 10.656H26.665ZM27.3071 26.6667H10.0271C9.79242 26.6667 9.60042 26.4747 9.60042 26.24V4.67626C9.60042 4.44159 9.79242 4.24959 10.0271 4.24959H17.9098V4.25599H19.1087C19.7551 4.25599 20.282 4.78293 20.282 5.42933V10.7563C20.282 11.2853 20.713 11.7163 21.242 11.7163H26.5626C27.209 11.7163 27.7359 12.2432 27.7359 12.8896V15.8485V26.24C27.7359 26.4747 27.5439 26.6667 27.3092 26.6667H27.3071Z" fill="currentColor"/>
</svg>
