<svg width="25" height="24" viewBox="0 0 25 24" fill="none"
  xmlns="http://www.w3.org/2000/svg">
  <path d="M9.60645 16.7109C9.60645 16.6406 9.53613 16.5703 9.43066 16.5703C9.3252 16.5703 9.25488 16.6406 9.25488 16.7109C9.25488 16.7812 9.3252 16.8516 9.43066 16.8164C9.53613 16.8164 9.60645 16.7812 9.60645 16.7109ZM8.5166 16.5352C8.5166 16.6055 8.58691 16.7109 8.69238 16.7109C8.7627 16.7461 8.86816 16.7109 8.90332 16.6406C8.90332 16.5703 8.86816 16.5 8.7627 16.4648C8.65723 16.4297 8.55176 16.4648 8.5166 16.5352ZM10.0986 16.5C9.99316 16.5 9.92285 16.5703 9.92285 16.6758C9.92285 16.7461 10.0283 16.7812 10.1338 16.7461C10.2393 16.7109 10.3096 16.6758 10.2744 16.6055C10.2744 16.5352 10.1689 16.4648 10.0986 16.5ZM12.3838 3C7.53223 3 3.80566 6.72656 3.80566 11.5781C3.80566 15.4805 6.23145 18.8203 9.74707 20.0156C10.2041 20.0859 10.3447 19.8047 10.3447 19.5938C10.3447 19.3477 10.3447 18.1523 10.3447 17.4141C10.3447 17.4141 7.88379 17.9414 7.35645 16.3594C7.35645 16.3594 6.96973 15.3398 6.40723 15.0938C6.40723 15.0938 5.59863 14.5312 6.44238 14.5312C6.44238 14.5312 7.32129 14.6016 7.81348 15.4453C8.58691 16.8164 9.85254 16.4297 10.3799 16.1836C10.4502 15.6211 10.6611 15.2344 10.9424 14.9883C8.97363 14.7773 6.96973 14.4961 6.96973 11.1211C6.96973 10.1367 7.25098 9.67969 7.81348 9.04688C7.70801 8.80078 7.42676 7.88672 7.91895 6.65625C8.62207 6.44531 10.3447 7.60547 10.3447 7.60547C11.0479 7.39453 11.7861 7.32422 12.5244 7.32422C13.2979 7.32422 14.0361 7.39453 14.7393 7.60547C14.7393 7.60547 16.4268 6.41016 17.165 6.65625C17.6572 7.88672 17.3408 8.80078 17.2705 9.04688C17.833 9.67969 18.1846 10.1367 18.1846 11.1211C18.1846 14.4961 16.1104 14.7773 14.1416 14.9883C14.458 15.2695 14.7393 15.7969 14.7393 16.6406C14.7393 17.8008 14.7041 19.2773 14.7041 19.5586C14.7041 19.8047 14.8799 20.0859 15.3369 19.9805C18.8525 18.8203 21.2432 15.4805 21.2432 11.5781C21.2432 6.72656 17.2705 3 12.3838 3ZM7.21582 15.1289C7.14551 15.1641 7.18066 15.2695 7.21582 15.3398C7.28613 15.375 7.35645 15.4102 7.42676 15.375C7.46191 15.3398 7.46191 15.2344 7.3916 15.1641C7.32129 15.1289 7.25098 15.0938 7.21582 15.1289ZM6.8291 14.8477C6.79395 14.918 6.8291 14.9531 6.89941 14.9883C6.96973 15.0234 7.04004 15.0234 7.0752 14.9531C7.0752 14.918 7.04004 14.8828 6.96973 14.8477C6.89941 14.8125 6.86426 14.8125 6.8291 14.8477ZM7.9541 16.1133C7.91895 16.1484 7.91895 16.2539 8.02441 16.3242C8.09473 16.3945 8.2002 16.4297 8.23535 16.3594C8.27051 16.3242 8.27051 16.2188 8.2002 16.1484C8.12988 16.0781 8.02441 16.043 7.9541 16.1133ZM7.56738 15.5859C7.49707 15.6211 7.49707 15.7266 7.56738 15.7969C7.6377 15.8672 7.70801 15.9023 7.77832 15.8672C7.81348 15.832 7.81348 15.7266 7.77832 15.6562C7.70801 15.5859 7.6377 15.5508 7.56738 15.5859Z" fill="currentColor"/>
</svg>
