<svg width="12" height="10" viewBox="0 0 12 10" fill="none" xmlns="http://www.w3.org/2000/svg">
<g clip-path="url(#clip0_2643_106744)">
<path d="M10.2446 0.245277L9.60423 0.919512C10.5285 1.90755 11.101 3.27204 11.101 4.77693C11.101 6.28182 10.5526 7.58814 9.66266 8.57072L10.303 9.24512C11.3529 8.08881 12 6.51212 12 4.77693C12 3.04174 11.3288 1.40704 10.2446 0.245277ZM1.7554 0.245117C0.671237 1.40688 0 3.00969 0 4.77693C0 6.54417 0.647114 8.08881 1.69697 9.24512L2.33734 8.57088C1.44735 7.58814 0.898977 6.24976 0.898977 4.77693C0.898977 3.30409 1.47148 1.90755 2.39577 0.919352L1.7554 0.245117ZM9.02933 1.52483L8.38866 2.19939C9.0097 2.8576 9.39476 3.77014 9.39476 4.77693C9.39476 5.78371 9.03382 6.63809 8.44709 7.29101L9.08776 7.9654C9.83406 7.13892 10.2937 6.01434 10.2937 4.77693C10.2937 3.53952 9.80994 2.35693 9.02933 1.52483ZM2.97082 1.52499C2.19006 2.35693 1.70641 3.50763 1.70641 4.77693C1.70641 6.04623 2.16609 7.13892 2.91239 7.9654L3.55291 7.29101C2.96633 6.63809 2.60539 5.75166 2.60539 4.77693C2.60539 3.8022 2.99045 2.8576 3.61134 2.19939L2.97082 1.52499ZM7.81376 2.80471L7.17294 3.47942C7.49058 3.80765 7.68835 4.26809 7.68835 4.77693C7.68835 5.25356 7.5147 5.68788 7.23152 6.01097L7.8722 6.68569C8.31509 6.18902 8.58733 5.51639 8.58733 4.77693C8.58733 4.03747 8.29097 3.30698 7.81376 2.80471ZM3.41267 4.77693C3.41267 5.51639 3.68491 6.18902 4.1278 6.68569L4.76863 6.01097C4.4853 5.68788 4.31165 5.25356 4.31165 4.77693C4.31165 4.26809 4.50942 3.80781 4.82706 3.47942L4.18624 2.80471C3.70903 3.30698 3.41267 4.00541 3.41267 4.77693ZM6.00007 3.83457C6.48657 3.83457 6.88107 4.25639 6.88107 4.77693C6.88107 5.29747 6.48672 5.71929 6.00007 5.71929C5.51343 5.71929 5.11908 5.29747 5.11908 4.77693C5.11908 4.25639 5.51343 3.83457 6.00007 3.83457Z" fill="#000A00"/>
</g>
<defs>
<clipPath id="clip0_2643_106744">
<rect width="12" height="9" fill="white" transform="translate(0 0.245117)"/>
</clipPath>
</defs>
</svg>
