<?xml version="1.0" encoding="UTF-8"?>
<svg id="a"
  xmlns="http://www.w3.org/2000/svg" viewBox="0 0 23.6 23.7">
  <path d="M1.9,12.6H.1c.3,3.6,2.2,6.9,5.1,8.8l.9-1.6c-2.4-1.6-3.9-4.1-4.2-7.2h0Zm19.9,0c-.3,2.9-1.9,5.6-4.2,7.2l.9,1.6c2.8-2,4.8-5.1,5.1-8.8h-1.8Zm-3.4-10.5l-.9,1.6c2.4,1.7,3.9,4.2,4.2,7.3h1.8c-.3-3.8-2.2-7-5.1-8.9h0Zm-13.3,0C2.2,4,.3,7.2,0,10.9H1.8c.4-3,2-5.6,4.3-7.2,0-.1-1-1.6-1-1.6ZM11.8,0c-1.8,0-3.6,.4-5.1,1.2l.9,1.6c1.3-.6,2.7-.9,4.2-.9s2.9,.3,4.2,.9l.9-1.6c-1.6-.8-3.3-1.2-5.1-1.2h0Zm4.2,20.9c-1.3,.6-2.7,.9-4.2,.9s-2.9-.3-4.2-.9l-.9,1.6c1.6,.8,3.2,1.2,5.1,1.2s3.5-.4,5.1-1.2l-.9-1.6h0Z" fill="#fff"/>
  <path d="M3.7,10.9h1.8c.4-2.7,2.7-5,5.4-5.4v-1.9c-3.8,.5-6.8,3.5-7.2,7.3Zm14.4,1.7c-.4,2.7-2.6,5-5.4,5.4v1.8c3.7-.4,6.8-3.4,7.1-7.1,.1-.1-1.7-.1-1.7-.1ZM12.7,3.6v1.8c2.7,.4,5,2.7,5.4,5.4h1.8c-.4-3.7-3.4-6.7-7.2-7.2ZM5.5,12.6h-1.8c.4,3.7,3.4,6.8,7.2,7.2v-1.8c-2.8-.4-5-2.5-5.4-5.4Z" fill="#fff"/>
  <path d="M14.4,12.6c-.4,1.1-1.4,1.9-2.6,1.9s-2.2-.8-2.6-1.9h-2c.4,2.1,2.2,3.6,4.4,3.6s4-1.6,4.4-3.6c.2,0-1.6,0-1.6,0Zm-2.6-5.3c-2.2,0-4,1.6-4.4,3.6h1.9c.3-1.1,1.3-1.9,2.5-1.9s2.2,.8,2.6,1.9h1.9c-.5-2.1-2.3-3.6-4.5-3.6Z" fill="#fff"/>
</svg>
