<svg width="32" height="33" viewBox="0 0 32 33" fill="none"
  xmlns="http://www.w3.org/2000/svg">
  <path d="M16.0002 3.73682C8.93033 3.73682 3.2002 9.46695 3.2002 16.5368C3.2002 23.6067 8.93033 29.3368 16.0002 29.3368C23.0701 29.3368 28.8002 23.6067 28.8002 16.5368C28.8002 9.46695 23.0701 3.73682 16.0002 3.73682ZM21.4317 8.62855C23.7549 10.2243 25.3399 12.8184 25.5703 15.788H24.1111C23.8893 13.3581 22.5943 11.2312 20.7021 9.89362L21.4317 8.62855ZM22.6007 15.788H21.1351C20.8066 13.5267 19.0146 11.7368 16.7533 11.4061V9.94055C19.8189 10.2862 22.2573 12.7245 22.6007 15.788ZM18.0994 15.788C17.7901 14.924 16.9666 14.3075 16.0002 14.3075C15.0338 14.3075 14.2125 14.924 13.9031 15.788H12.397C12.7426 14.1133 14.2253 12.8525 16.0002 12.8525C17.7751 12.8525 19.2621 14.1133 19.6077 15.788H18.1015H18.0994ZM19.6055 17.2877C19.2599 18.9624 17.7773 20.2232 15.9981 20.2232C14.2189 20.2232 12.7405 18.9624 12.3949 17.2877H13.901C14.2082 18.1517 15.0338 18.7683 15.9981 18.7683C16.9623 18.7683 17.7901 18.1517 18.0973 17.2877H19.6034H19.6055ZM15.9981 6.93468C17.4786 6.93468 18.8823 7.26962 20.1325 7.87335L19.4029 9.13842C18.3682 8.65842 17.2141 8.39175 15.9981 8.39175C14.7821 8.39175 13.6301 8.65842 12.5975 9.13842L11.8679 7.87335C13.1223 7.26962 14.5239 6.93468 16.0002 6.93468H15.9981ZM15.2471 9.93842V11.404C12.9901 11.7325 11.1938 13.5246 10.8653 15.7859H9.39966C9.74313 12.7246 12.1858 10.2819 15.2471 9.93842ZM10.5645 8.62642H10.5687L11.2941 9.89148C9.40606 11.2312 8.11113 13.3582 7.88926 15.7859H6.43006C6.66046 12.8163 8.24553 10.2264 10.5645 8.62642ZM10.5687 24.4429C8.24553 22.8493 6.66046 20.2573 6.43006 17.2877H7.88926C8.11113 19.7197 9.40606 21.8445 11.2983 23.18L10.5687 24.4451V24.4429ZM9.39966 17.2877H10.8653C11.1938 19.5491 12.9901 21.3411 15.2471 21.6696V23.1352C12.1858 22.7917 9.74313 20.3512 9.39966 17.2877ZM15.9981 26.1368C14.5218 26.1368 13.1202 25.8019 11.8658 25.1982L12.5954 23.9352C13.6301 24.4152 14.7799 24.6819 15.9959 24.6819C17.2119 24.6819 18.3639 24.4152 19.3965 23.9352L20.1303 25.1982C18.8802 25.8019 17.4765 26.1368 15.9959 26.1368H15.9981ZM16.7511 23.1352V21.6696C19.0125 21.3411 20.8045 19.5491 21.133 17.2877H22.5986C22.2551 20.3512 19.8167 22.7896 16.7511 23.1352ZM21.4295 24.4429L20.6999 23.1779C22.5901 21.8424 23.885 19.7155 24.109 17.2856H25.5682C25.3378 20.2552 23.7527 22.8493 21.4295 24.4408V24.4429Z" fill="currentColor"/>
</svg>
