<svg width="14" height="30" viewBox="0 0 14 30" fill="none"
  xmlns="http://www.w3.org/2000/svg">
  <path fill-rule="evenodd" clip-rule="evenodd" d="M-0.15 -0.95C-0.15 -0.977614 -0.127614 -1 -0.1 -1C-0.0723858 -1 -0.05 -0.977614 -0.05 -0.95V3C-0.05 5.20914 1.74086 7 3.95 7H9.70019C11.9093 7 13.7002 8.79086 13.7002 11V19C13.7002 21.2091 11.9093 23 9.7002 23H3.95C1.74086 23 -0.05 24.7909 -0.05 27V30.95C-0.05 30.9776 -0.0723858 31 -0.1 31C-0.127614 31 -0.15 30.9776 -0.15 30.95V23.0749C-0.15 23.0335 -0.183535 23 -0.224902 23C-0.26627 23 -0.299805 22.9665 -0.299805 22.9251V7.0749C-0.299805 7.03354 -0.26627 7 -0.224902 7C-0.183535 7 -0.15 6.96646 -0.15 6.9251V-0.95Z" fill="currentColor"/>
  <g clip-path="url(#clip0_2249_92948)">
    <path d="M3.45703 9.65191L5.58825 9.65191L10.6274 14.8714L5.59654 20.0815L3.46607 20.0815L8.49618 14.8714L3.45703 9.65191Z" fill="#003000"/>
  </g>
  <defs>
    <clipPath id="clip0_2249_92948">
      <rect width="11.7333" height="11.7333" fill="currentColor" transform="translate(0.849609 20.7334) rotate(-90)"/>
    </clipPath>
  </defs>
</svg>
