<svg width="32" height="33" viewBox="0 0 32 33" fill="none"
  xmlns="http://www.w3.org/2000/svg">
  <path d="M7.40006 13.3368C5.92806 13.3368 4.7334 12.1421 4.7334 10.6701C4.7334 9.19813 5.92806 8.00347 7.40006 8.00347C8.87206 8.00347 10.0667 9.19813 10.0667 10.6701C10.0667 11.6173 9.5718 12.4451 8.8294 12.9187L9.8982 15.7219C9.5526 15.8221 9.2198 15.948 8.90193 16.1016L7.83313 13.2984C7.69233 13.3219 7.5494 13.3368 7.4022 13.3368H7.40006ZM26.1329 17.5949C24.7313 17.5949 23.5857 18.6765 23.4769 20.0504L17.975 20.7245C18.0369 21.0701 18.0731 21.4243 18.0774 21.7869L23.607 21.1107C23.9611 22.1688 24.9574 22.9304 26.135 22.9304C27.607 22.9304 28.8017 21.7357 28.8017 20.2637C28.8017 18.7917 27.607 17.5971 26.135 17.5971L26.1329 17.5949ZM16.0785 17.2237L21.7083 9.868C22.0603 10.0387 22.4529 10.1368 22.8689 10.1368C24.3409 10.1368 25.5355 8.94213 25.5355 7.47013C25.5355 5.99813 24.3409 4.80347 22.8689 4.80347C21.3969 4.80347 20.2022 5.99813 20.2022 7.47013C20.2022 8.14 20.4518 8.75227 20.8614 9.2216L15.2486 16.556C15.5451 16.7544 15.8225 16.9805 16.0806 17.2237H16.0785ZM17.0129 21.8701C17.0129 24.8163 14.6257 27.2035 11.6795 27.2035C8.7334 27.2035 6.3462 24.8163 6.3462 21.8701C6.3462 18.924 8.7334 16.5368 11.6795 16.5368C14.6257 16.5368 17.0129 18.924 17.0129 21.8701Z" fill="currentColor"/>
</svg>
