<svg width="32" height="33" viewBox="0 0 32 33" fill="none"
  xmlns="http://www.w3.org/2000/svg">
  <path d="M10.8096 21.2366C11.0059 21.2366 11.2064 21.226 11.4027 21.226C11.6843 21.226 11.9531 21.2473 12.1686 21.3518C12.7936 21.6526 13.1499 22.762 13.8411 22.9198C13.8966 22.9326 13.9542 22.939 14.0096 22.939C14.319 22.939 14.6496 22.7705 14.9846 22.5998L15.439 21.3518C15.4902 21.211 15.4176 21.0553 15.2768 21.0041L10.7008 19.338C10.56 19.2868 10.4043 19.3593 10.3531 19.5001L9.82617 20.9486C9.84964 20.9721 9.8731 20.9977 9.90084 21.019C10.1312 21.2025 10.4598 21.2366 10.8096 21.2366Z" fill="currentColor"/>
  <path d="M18.2188 22.9176C18.91 22.7598 19.2684 21.6504 19.8913 21.3496C20.1068 21.2451 20.3756 21.2238 20.6572 21.2238C20.8534 21.2238 21.0561 21.2344 21.2502 21.2344C21.6001 21.2344 21.9286 21.2024 22.159 21.0168C22.1697 21.0083 22.1804 20.9955 22.191 20.987L21.6492 19.4979C21.598 19.3571 21.4422 19.2846 21.3014 19.3358L16.7254 21.0019C16.5846 21.0531 16.5121 21.2088 16.5633 21.3496L17.0049 22.5614C17.3633 22.7448 17.7174 22.9368 18.0481 22.9368C18.1057 22.9368 18.1612 22.9304 18.2166 22.9176H18.2188Z" fill="currentColor"/>
  <path d="M22.5691 22.0195C22.1296 22.2627 21.6453 22.3011 21.2528 22.3011C21.1461 22.3011 21.0373 22.2989 20.9285 22.2947C20.8389 22.2925 20.7472 22.2904 20.6597 22.2904C20.4699 22.2904 20.3888 22.3032 20.3589 22.3117C20.2736 22.3779 20.1136 22.5933 20.0048 22.7363C19.672 23.1779 19.2155 23.7837 18.4581 23.9565C18.3259 23.9864 18.1893 24.0013 18.0528 24.0013C17.8608 24.0013 17.6795 23.9715 17.5088 23.9267L19.4437 29.2451C19.4779 29.3389 19.5995 29.3645 19.6699 29.292L21.4149 27.4509C21.5323 27.3272 21.7008 27.2653 21.8693 27.2845L24.3867 27.5747C24.4869 27.5853 24.5637 27.4893 24.5296 27.3933L22.5733 22.0173L22.5691 22.0195Z" fill="currentColor"/>
  <path d="M14.0118 24.0036C13.8731 24.0036 13.7366 23.9886 13.6065 23.9588C12.847 23.786 12.3926 23.1801 12.0598 22.7385C11.951 22.5934 11.7889 22.378 11.7057 22.314C11.6758 22.3076 11.5947 22.2926 11.4049 22.2926C11.3153 22.2926 11.2257 22.2948 11.1361 22.2969C11.0273 22.299 10.9185 22.3033 10.8118 22.3033C10.4065 22.3033 9.90088 22.2649 9.44861 21.9961L7.48381 27.3977C7.44968 27.4916 7.52648 27.5897 7.62675 27.579L10.1441 27.2889C10.3126 27.2697 10.4811 27.3316 10.5985 27.4553L12.3435 29.2964C12.4118 29.3689 12.5355 29.3433 12.5697 29.2494L14.5003 23.946C14.3467 23.9822 14.1867 24.0057 14.0161 24.0057L14.0118 24.0036Z" fill="currentColor"/>
  <path d="M25.8605 13.3326C25.8605 12.6158 24.8578 12.0227 24.7063 11.3529C24.5485 10.6617 25.1906 9.691 24.8898 9.06807C24.5826 8.43447 23.4242 8.33207 22.989 7.78807C22.5517 7.2398 22.7095 6.0878 22.1613 5.65047C21.9309 5.467 21.6023 5.43287 21.2525 5.43287C21.0562 5.43287 20.8557 5.44354 20.6594 5.44354C20.3778 5.44354 20.109 5.4222 19.8935 5.31767C19.2685 5.01687 18.9122 3.90754 18.221 3.74967C18.1655 3.73687 18.1079 3.73047 18.0525 3.73047C17.4189 3.73047 16.6914 4.4366 16.0343 4.4366C15.3773 4.4366 14.6498 3.73047 14.0162 3.73047C13.9586 3.73047 13.9031 3.73687 13.8477 3.74967C13.1565 3.90754 12.7981 5.01687 12.1751 5.31767C11.9597 5.4222 11.6909 5.44354 11.4093 5.44354C11.213 5.44354 11.0103 5.43287 10.8162 5.43287C10.4663 5.43287 10.1378 5.46487 9.90739 5.65047C9.35912 6.0878 9.51699 7.24194 9.07965 7.78807C8.64445 8.3342 7.48392 8.43447 7.17672 9.06807C6.87592 9.69314 7.51592 10.6617 7.36019 11.3529C7.20872 12.0227 6.20605 12.6179 6.20605 13.3326C6.20605 14.0473 7.20872 14.6425 7.36019 15.3123C7.51805 16.0035 6.87592 16.9742 7.17672 17.5971C7.48392 18.2307 8.64232 18.3331 9.07752 18.8771C9.51485 19.4254 9.35699 20.5774 9.90525 21.0147C10.1357 21.1982 10.4642 21.2323 10.8141 21.2323C11.0103 21.2323 11.2109 21.2217 11.4071 21.2217C11.6887 21.2217 11.9575 21.243 12.173 21.3475C12.7981 21.6483 13.1543 22.7577 13.8455 22.9155C13.901 22.9283 13.9586 22.9347 14.0141 22.9347C14.6477 22.9347 15.3751 22.2286 16.0322 22.2286C16.6893 22.2286 17.4167 22.9347 18.0503 22.9347C18.1079 22.9347 18.1634 22.9283 18.2189 22.9155C18.9101 22.7577 19.2685 21.6483 19.8914 21.3475C20.1069 21.243 20.3757 21.2217 20.6573 21.2217C20.8535 21.2217 21.0562 21.2323 21.2503 21.2323C21.6002 21.2323 21.9287 21.2003 22.1591 21.0147C22.7074 20.5774 22.5495 19.4233 22.9869 18.8771C23.4221 18.331 24.5826 18.2307 24.8898 17.5971C25.1906 16.9721 24.5506 16.0035 24.7063 15.3123C24.8578 14.6425 25.8605 14.0473 25.8605 13.3326ZM16.0301 19.7369C12.4951 19.7369 9.62792 16.8697 9.62792 13.3326C9.62792 9.79553 12.4951 6.92833 16.0301 6.92833C19.565 6.92833 22.4343 9.79553 22.4343 13.3326C22.4343 16.8697 19.5671 19.7369 16.0301 19.7369Z" fill="currentColor"/>
</svg>
