<svg width="32" height="33" viewBox="0 0 32 33" fill="none"
  xmlns="http://www.w3.org/2000/svg">
  <path d="M12.0088 19.707C11.8616 19.707 11.7422 19.5875 11.7422 19.4403V16.7203C11.7422 16.6307 11.6398 16.5816 11.5694 16.6371L4.48883 22.1731C4.38003 22.2584 4.38003 22.4227 4.48883 22.508L11.5694 28.076C11.6398 28.1315 11.7422 28.0803 11.7422 27.9928V25.307C11.7422 25.1598 11.8616 25.0403 12.0088 25.0403L20.9006 25.051C22.7139 25.051 24.4526 24.3299 25.7368 23.0478C27.019 21.7656 27.74 20.027 27.74 18.2115V16.1742C27.74 16.0803 27.6099 16.0526 27.5736 16.14C27.1448 17.179 25.8819 19.7091 23.7464 19.7091H12.0088V19.707Z" fill="currentColor"/>
  <path d="M20.0017 13.3433C20.1489 13.3433 20.2684 13.4628 20.2684 13.61V16.33C20.2684 16.4196 20.3708 16.4686 20.4412 16.4132L27.5217 10.8772C27.6305 10.7918 27.6305 10.6276 27.5217 10.5422L20.4412 4.97423C20.3708 4.91877 20.2684 4.96997 20.2684 5.05744V7.7433C20.2684 7.8905 20.1489 8.00997 20.0017 8.00997L11.11 7.9993C9.29664 7.9993 7.55797 8.72037 6.27371 10.0025C4.99157 11.2846 4.27051 13.0233 4.27051 14.8388V16.8761C4.27051 16.97 4.40064 16.9977 4.43691 16.9102C4.86571 15.8713 6.12864 13.3412 8.26411 13.3412H20.0017V13.3433Z" fill="currentColor"/>
</svg>
