<svg width="32" height="32" viewBox="0 0 32 32" fill="none"
  xmlns="http://www.w3.org/2000/svg">
  <path d="M21.4467 17.9862L27.1491 13.967C27.6589 13.6065 27.4051 12.8044 26.78 12.8044H19.6269C19.4456 12.8044 19.2835 12.6892 19.2237 12.5164L16.6019 4.94944C16.4035 4.37558 15.5907 4.37558 15.3923 4.94944L12.7704 12.5164C12.7107 12.6892 12.5485 12.8044 12.3672 12.8044H5.21839C4.59332 12.8044 4.33945 13.6086 4.84932 13.967L10.5517 17.9862C10.7075 18.095 10.7715 18.2956 10.7096 18.4748L8.11545 25.9628C7.91279 26.5494 8.58052 27.0529 9.08825 26.6945L15.7528 21.9969C15.9 21.8924 16.0963 21.8924 16.2435 21.9969L22.908 26.6945C23.4157 27.0529 24.0856 26.5494 23.8808 25.9628L21.2867 18.4748C21.2248 18.2956 21.2867 18.095 21.4445 17.9862H21.4467Z" fill="currentColor"/>
</svg>
