<svg width="32" height="32" viewBox="0 0 32 32" fill="none"
  xmlns="http://www.w3.org/2000/svg">
  <path d="M20.7811 11.9062C20.6658 11.9062 20.5504 11.9089 20.436 11.9143C20.3637 7.53777 16.7055 4 12.2189 4C7.73238 4 4 7.60945 4 12.0469C4 16.4843 7.68662 20.0938 12.2189 20.0938C12.3342 20.0938 12.4487 20.0911 12.5631 20.0857C12.6354 24.4622 16.2945 28 20.7811 28C25.2676 28 29 24.3905 29 19.9531C29 15.5157 25.3125 11.9062 20.7811 11.9062ZM12.2079 15.202C11.1325 16.1411 9.88321 16.8589 8.49478 17.3285L8.05912 16.0919C9.25444 15.6877 10.3161 15.0918 11.2341 14.3095C9.42559 12.4439 8.86637 10.563 8.83068 10.4375L9.4741 10.2619L10.1175 10.0845V10.0862C10.134 10.14 10.4644 11.2144 11.4089 12.469C11.6506 12.7898 11.9087 13.0935 12.1832 13.3803C12.6756 12.8256 13.1159 12.2028 13.5021 11.5137C14.0403 10.554 14.3533 9.6615 14.5244 9.06381H7.58228V7.75552H11.7036V6.22947H13.0399V7.75552H17.1622V9.06381H15.9074C15.7463 9.70899 15.3948 10.8443 14.6983 12.0989C14.2563 12.8955 13.7392 13.6213 13.1571 14.2692C13.5094 14.5497 13.8819 14.8078 14.2746 15.0416C14.0018 15.3866 13.7575 15.754 13.5451 16.1402C13.0518 15.8436 12.6079 15.5273 12.2079 15.202ZM20.7811 26.6917C16.9855 26.6917 13.8975 23.6692 13.8975 19.9531V19.9244C13.8984 19.6959 13.9112 19.4701 13.935 19.2479C13.9606 19.0095 13.9991 18.7739 14.0494 18.5436C14.0915 18.3518 14.1409 18.1627 14.1995 17.9772C14.2087 17.9486 14.2178 17.919 14.2279 17.8903C14.2316 17.876 14.237 17.8616 14.2416 17.8473C14.2544 17.8097 14.2673 17.772 14.281 17.7344C14.3075 17.6591 14.335 17.5847 14.3652 17.5113C14.3798 17.4745 14.3945 17.4378 14.41 17.401C14.4805 17.2326 14.5574 17.0686 14.6416 16.9073C14.6571 16.8777 14.6727 16.849 14.6883 16.8195C14.6983 16.7998 14.7093 16.78 14.7203 16.7603C14.9354 16.3696 15.1898 16.0013 15.4772 15.6608C15.5248 15.6044 15.5733 15.5497 15.6227 15.4951C15.6484 15.4664 15.674 15.4386 15.7005 15.4108C15.9458 15.1474 16.214 14.9018 16.5005 14.6796C16.5343 14.6527 16.5682 14.6267 16.603 14.6008C16.6332 14.5775 16.6643 14.5551 16.6945 14.5327C16.7457 14.4959 16.7979 14.4592 16.8501 14.4242C16.9077 14.3839 16.9663 14.3454 17.0258 14.3077C17.1558 14.2244 17.2894 14.1455 17.4249 14.0712C17.4541 14.055 17.4825 14.0389 17.5127 14.0237C17.5402 14.0093 17.5676 13.995 17.5951 13.9807C17.6207 13.9672 17.6463 13.9547 17.672 13.9421C17.693 13.9305 17.715 13.9206 17.736 13.9108C17.7708 13.8928 17.8065 13.8767 17.8413 13.8606C17.9127 13.8274 17.9841 13.7952 18.0555 13.7656C18.0921 13.7495 18.1278 13.7351 18.1644 13.7208C18.2367 13.6912 18.3099 13.6625 18.384 13.6366C18.4216 13.6231 18.4582 13.6097 18.4957 13.5971C18.5698 13.5711 18.6449 13.5461 18.7208 13.5237C18.7593 13.5111 18.7968 13.5004 18.8353 13.4896C18.8737 13.478 18.9112 13.4672 18.9497 13.4573C19.1821 13.3937 19.4183 13.3426 19.6599 13.305C19.886 13.2674 20.1157 13.2414 20.3491 13.2279C20.4919 13.219 20.6355 13.2145 20.7811 13.2145C24.5757 13.2145 27.6637 16.237 27.6637 19.9531C27.6637 23.6692 24.5757 26.6917 20.7811 26.6917ZM22.1091 14.9269H19.788L16.4483 23.9882H18.4197L19.345 21.2569H22.4578L23.3694 23.9882H25.382L22.1091 14.9269ZM19.8146 19.825L20.9147 16.4763L21.9883 19.825H19.8146Z" fill="currentColor"/>
</svg>
