<svg version="1.2" xmlns="http://www.w3.org/2000/svg" viewBox="0 0 34 34" width="41" height="41">
	<title>ic_myc-svg</title>
	<style>
		.s0 { fill: #003100 } 
		.s1 { fill: #ffffff } 
	</style>
	<path id="Layer" class="s0" d="m0 17c0-9.4 7.6-17 17-17 9.4 0 17 7.6 17 17 0 9.4-7.6 17-17 17-9.4 0-17-7.6-17-17z"/>
	<path id="Layer" class="s1" d="m10.7 26l-1 1.7c-3.1-2.2-5.3-5.7-5.6-9.7h2c0.3 3.3 2 6.2 4.6 8zm19.2-8c-0.3 4-2.4 7.5-5.6 9.7l-1-1.7c2.6-1.8 4.3-4.7 4.6-8zm-0.1-2h-1.9c-0.3-3.3-2.1-6.2-4.6-7.9l1-1.8c3.1 2.2 5.3 5.7 5.5 9.7zm-19.2-7.9c-2.5 1.7-4.3 4.6-4.6 7.9h-1.9c0.3-4 2.4-7.5 5.6-9.7zm11.9-2.7l-1 1.7c-1.4-0.6-3-1-4.6-1q-2.4 0-4.6 1l-1-1.7c1.8-0.8 3.6-1.2 5.6-1.2 2 0 3.9 0.4 5.6 1.2zm0 23.4c-1.7 0.8-3.6 1.2-5.6 1.2q-3 0-5.6-1.2l1-1.7c1.4 0.6 3 1 4.6 1q2.5 0 4.6-1zm-6.6-20.6v2c-3 0.4-5.4 2.8-5.9 5.9h-1.9c0.4-4.1 3.7-7.4 7.8-7.9zm9.9 9.9c-0.4 4.1-3.7 7.4-7.8 7.9v-2c3-0.4 5.4-2.8 5.9-5.9 0 0 1.9 0 1.9 0zm0-2h-1.9c-0.5-3-2.9-5.5-5.9-5.9v-2c4.1 0.5 7.4 3.8 7.8 7.9zm-9.9 7.9v2c-4.1-0.5-7.4-3.8-7.8-7.9h1.9c0.5 3.1 2.9 5.5 5.9 5.9zm5.9-5.9c-0.5 2.3-2.5 4-4.9 4-2.4 0-4.4-1.7-4.8-4h2c0.4 1.2 1.5 2 2.8 2 1.3 0 2.4-0.8 2.8-2zm0-2h-2c-0.4-1.2-1.5-2-2.8-2-1.3 0-2.4 0.8-2.8 2h-2.1c0.5-2.3 2.5-4 4.9-4 2.4 0 4.4 1.7 4.8 4z"/>
</svg>