<svg width="22" height="20" viewBox="0 0 22 20" fill="none" xmlns="http://www.w3.org/2000/svg">
<path opacity="0.4" d="M17.875 10.6875C17.6031 10.6875 17.3372 10.7681 17.1111 10.9192C16.885 11.0703 16.7087 11.2851 16.6047 11.5363C16.5006 11.7876 16.4734 12.064 16.5264 12.3307C16.5795 12.5975 16.7104 12.8425 16.9027 13.0348C17.095 13.2271 17.34 13.358 17.6068 13.4111C17.8735 13.4641 18.1499 13.4369 18.4012 13.3328C18.6524 13.2288 18.8672 13.0525 19.0183 12.8264C19.1694 12.6003 19.25 12.3344 19.25 12.0625C19.25 11.6978 19.1051 11.3481 18.8473 11.0902C18.5894 10.8324 18.2397 10.6875 17.875 10.6875ZM18.5625 0.375H2.75C2.02065 0.375 1.32118 0.664731 0.805456 1.18046C0.289731 1.69618 0 2.39565 0 3.125C0 3.48967 0.144866 3.83941 0.402728 4.09727C0.660591 4.35513 1.01033 4.5 1.375 4.5H3.4375C3.25516 4.5 3.0803 4.42757 2.95136 4.29864C2.82243 4.1697 2.75 3.99484 2.75 3.8125C2.75 3.63016 2.82243 3.4553 2.95136 3.32636C3.0803 3.19743 3.25516 3.125 3.4375 3.125H19.9375C20.1198 3.125 20.2947 3.05257 20.4236 2.92364C20.5526 2.7947 20.625 2.61984 20.625 2.4375C20.625 1.89049 20.4077 1.36589 20.0209 0.979092C19.6341 0.592299 19.1095 0.375 18.5625 0.375Z" fill="#8B968C"/>
<path d="M19.8172 4.5H1.375C1.01033 4.5 0.660591 4.35513 0.402728 4.09727C0.144866 3.83941 0 3.48967 0 3.125V16.875C0 17.6043 0.289731 18.3038 0.805456 18.8195C1.32118 19.3353 2.02065 19.625 2.75 19.625H19.8172C21.0203 19.625 22 18.6999 22 17.5625V6.5625C22 5.42512 21.0212 4.5 19.8172 4.5ZM17.875 13.4375C17.6031 13.4375 17.3372 13.3569 17.1111 13.2058C16.885 13.0547 16.7087 12.8399 16.6047 12.5887C16.5006 12.3374 16.4734 12.061 16.5264 11.7943C16.5795 11.5275 16.7104 11.2825 16.9027 11.0902C17.095 10.8979 17.34 10.767 17.6068 10.7139C17.8735 10.6609 18.1499 10.6881 18.4012 10.7922C18.6524 10.8962 18.8672 11.0725 19.0183 11.2986C19.1694 11.5247 19.25 11.7906 19.25 12.0625C19.25 12.4272 19.1051 12.7769 18.8473 13.0348C18.5894 13.2926 18.2397 13.4375 17.875 13.4375Z" fill="white"/>
</svg>
