<svg viewBox="0 0 20 20" fill="none"
    xmlns="http://www.w3.org/2000/svg">
    <path d="M20 10.0088C19.9983 11.9853 19.4108 13.917 18.3119 15.5599C17.213 17.2028 15.6518 18.4831 13.8256 19.2393C11.9995 19.9954 9.99017 20.1935 8.05151 19.8083C6.11286 19.4232 4.33182 18.4722 2.93333 17.0755C1.76931 15.9129 0.910102 14.4811 0.431858 12.907C-0.0463855 11.3329 -0.128887 9.66512 0.191668 8.05151C0.512222 6.4379 1.22593 4.9283 2.26952 3.65652C3.31312 2.38475 4.65436 1.39009 6.17436 0.760714C7.69435 0.13134 9.34615 -0.113305 10.9833 0.0484661C12.6205 0.210237 14.1925 0.773425 15.5599 1.68811C16.9273 2.60279 18.048 3.84071 18.8225 5.29214C19.597 6.74356 20.0014 8.36365 20 10.0088V10.0088Z" fill="#5F668B"/>
    <path d="M7.68382 14.2377C6.50382 12.567 5.54115 11.1977 5.55048 11.1923C5.55982 11.187 6.52648 11.7483 7.70782 12.4403L9.85715 13.6977V15.4857C9.85715 16.4683 9.85715 17.2723 9.84648 17.2723C9.83581 17.2723 8.86515 15.907 7.68382 14.2377ZM10.1331 15.4923V13.7017L12.2825 12.443C13.4651 11.7497 14.4371 11.187 14.4425 11.1937C14.4478 11.2003 10.2198 17.1937 10.1638 17.2523C10.1411 17.275 10.1331 16.7923 10.1331 15.4923V15.4923ZM7.67581 11.5123C6.48782 10.8163 5.51182 10.239 5.50782 10.227C5.50382 10.215 9.82248 8.30434 9.84115 8.32301C9.85981 8.34167 9.84915 9.33501 9.84115 10.5563L9.83315 12.779L7.67581 11.5123ZM10.1331 10.551C10.1331 9.32167 10.1331 8.31634 10.1505 8.31634C10.1678 8.31634 14.4665 10.1963 14.4878 10.2163C14.5091 10.2363 11.2291 12.1657 10.3038 12.6897L10.1331 12.7857V10.551ZM12.2665 8.91767L10.1331 7.98967V5.36034C10.1331 3.91501 10.1438 2.74434 10.1571 2.75901C10.2118 2.82168 14.4238 9.85101 14.4038 9.85101C14.3838 9.85101 13.4265 9.43101 12.2585 8.91767H12.2665ZM5.64382 9.80967C5.64382 9.79367 9.81448 2.77368 9.84248 2.74301C9.84248 2.73634 9.85315 3.91368 9.85315 5.35901V7.98967L7.77448 8.89901C5.43048 9.92567 5.64115 9.83234 5.64115 9.80967H5.64382Z" fill="white"/>
</svg>
