<svg viewBox="0 0 20 21" fill="none"
    xmlns="http://www.w3.org/2000/svg">
    <g clip-path="url(#clip0_2612_103631)">
        <path d="M10 20.5C15.5228 20.5 20 16.0228 20 10.5C20 4.97715 15.5228 0.5 10 0.5C4.47715 0.5 0 4.97715 0 10.5C0 16.0228 4.47715 20.5 10 20.5Z" fill="#003100"/>
        <path d="M3.5759 11.112H2.4239C2.5959 13.46 3.8679 15.516 5.7039 16.792L6.2919 15.788C4.7759 14.708 3.7479 13.02 3.5759 11.112ZM16.4239 11.112C16.2519 13.044 15.2239 14.736 13.7319 15.788L14.3199 16.792C16.1559 15.52 17.4279 13.464 17.5999 11.112C17.5999 11.112 16.4239 11.112 16.4239 11.112ZM14.2959 4.232L13.7079 5.236C15.1999 6.288 16.2279 7.976 16.3999 9.912H17.5519C17.4039 7.564 16.1319 5.508 14.2959 4.232ZM5.6799 4.232C3.8439 5.504 2.5959 7.56 2.3999 9.912H3.5519C3.7239 7.98 4.7519 6.288 6.2439 5.236L5.6799 4.232ZM9.9879 2.888C8.8119 2.888 7.7119 3.156 6.7079 3.624L7.2959 4.628C8.1279 4.236 9.0319 4.04 9.9879 4.04C10.9439 4.04 11.8719 4.26 12.6799 4.628L13.2679 3.624C12.2879 3.156 11.1639 2.888 9.9879 2.888ZM12.6799 16.376C11.8479 16.768 10.9439 16.964 9.9879 16.964C9.0319 16.964 8.1039 16.744 7.2959 16.376L6.7079 17.38C7.7119 17.868 8.8119 18.116 9.9879 18.116C11.1639 18.116 12.2639 17.848 13.2679 17.38L12.6799 16.376ZM4.7759 9.912H5.9279C6.1959 8.124 7.6159 6.704 9.4039 6.436V5.284C6.9759 5.556 5.0439 7.488 4.7759 9.912ZM14.0759 11.112C13.8079 12.9 12.3879 14.32 10.5999 14.588V15.74C13.0239 15.472 14.9559 13.536 15.2279 11.112C15.2239 11.112 14.0759 11.112 14.0759 11.112ZM10.5999 5.288V6.44C12.3879 6.708 13.8079 8.128 14.0759 9.916H15.2279C14.9559 7.488 13.0239 5.556 10.5999 5.288ZM5.9239 11.112H4.7719C5.0399 13.536 6.9759 15.468 9.3999 15.74V14.588C7.6119 14.32 6.1919 12.9 5.9239 11.112ZM11.6519 11.112C11.4079 11.796 10.7479 12.288 9.9879 12.288C9.2279 12.288 8.5679 11.8 8.3239 11.112H7.1239C7.3919 12.432 8.5679 13.436 9.9879 13.436C11.4079 13.436 12.5839 12.432 12.8519 11.112H11.6519ZM9.9879 7.588C8.5919 7.588 7.3919 8.592 7.1239 9.912H8.3239C8.5679 9.228 9.2279 8.736 9.9879 8.736C10.7479 8.736 11.4079 9.224 11.6519 9.912H12.8519C12.5839 8.592 11.4079 7.588 9.9879 7.588Z" fill="white"/>
    </g>
    <defs>
        <clipPath id="clip0_2612_103631">
            <rect width="20" height="20" fill="white" transform="translate(0 0.5)"/>
        </clipPath>
    </defs>
</svg>
