<svg width="385" height="95" viewBox="0 0 385 95" fill="none" xmlns="http://www.w3.org/2000/svg">
<path d="M55.7734 62.6085C55.7734 50.9736 49.2746 44.37 32.9229 39.2339V19.0039C38.1638 20.4714 40.5746 24.4545 41.2036 29.9051H55.3541C53.9915 18.4798 46.9686 9.77984 32.9229 8.41719V0.241325H24.3277V8.41719C12.7977 9.88466 3.04951 16.6979 3.04951 29.5906C3.04951 41.5399 10.9109 47.0953 24.3277 51.3929V72.6711C18.8772 71.4133 15.3133 67.6398 14.3699 61.6652H0.219407C1.2676 75.082 10.4917 82.1048 24.3277 83.2578V91.4337H32.9229V83.2578C46.0252 82 55.7734 74.6627 55.7734 62.6085ZM16.7808 27.9135C16.7808 22.987 19.7157 19.9473 24.3277 18.8991V37.5568C19.2964 35.6701 16.7808 33.1544 16.7808 27.9135ZM32.9229 53.2796C39.5265 55.6905 41.518 59.1495 41.518 63.6567C41.518 69.2121 38.3735 72.0422 32.9229 72.8808V53.2796ZM84.913 70.5747L98.3298 57.4724C111.537 44.5797 116.044 38.0809 116.044 28.9617C116.044 16.5931 107.659 8.10273 91.7262 8.10273C75.4793 8.10273 65.836 16.5931 64.3685 32.1062L64.2637 33.1544H78.6239L78.7287 32.1062C79.6721 23.4063 83.1311 18.8991 90.3636 18.8991C97.072 18.8991 100.741 23.4063 100.741 29.8002C100.741 36.7183 96.8624 41.8544 87.1142 51.3929L62.7962 75.1868V82H115.52V70.5747H84.913ZM150.739 8.20755C130.195 8.20755 122.543 22.987 122.543 45.8375C122.543 68.4784 130.195 83.4675 150.739 83.4675C171.179 83.4675 178.831 68.4784 178.831 45.8375C178.831 22.987 171.179 8.20755 150.739 8.20755ZM150.739 72.6711C141.83 72.6711 137.847 64.076 137.847 45.8375C137.847 27.3894 141.83 19.0039 150.739 19.0039C159.544 19.0039 163.527 27.3894 163.527 45.8375C163.527 64.076 159.544 72.6711 150.739 72.6711ZM198.641 68.3736V67.3254H184.596L176.315 94.7879H188.055L198.641 68.3736ZM233.558 8.20755C213.014 8.20755 205.362 22.987 205.362 45.8375C205.362 68.4784 213.014 83.4675 233.558 83.4675C253.998 83.4675 261.65 68.4784 261.65 45.8375C261.65 22.987 253.998 8.20755 233.558 8.20755ZM233.558 72.6711C224.649 72.6711 220.666 64.076 220.666 45.8375C220.666 27.3894 224.649 19.0039 233.558 19.0039C242.363 19.0039 246.346 27.3894 246.346 45.8375C246.346 64.076 242.363 72.6711 233.558 72.6711ZM294.877 8.20755C274.333 8.20755 266.681 22.987 266.681 45.8375C266.681 68.4784 274.333 83.4675 294.877 83.4675C315.317 83.4675 322.969 68.4784 322.969 45.8375C322.969 22.987 315.317 8.20755 294.877 8.20755ZM294.877 72.6711C285.968 72.6711 281.985 64.076 281.985 45.8375C281.985 27.3894 285.968 19.0039 294.877 19.0039C303.682 19.0039 307.665 27.3894 307.665 45.8375C307.665 64.076 303.682 72.6711 294.877 72.6711ZM356.196 8.20755C335.652 8.20755 328 22.987 328 45.8375C328 68.4784 335.652 83.4675 356.196 83.4675C376.636 83.4675 384.288 68.4784 384.288 45.8375C384.288 22.987 376.636 8.20755 356.196 8.20755ZM356.196 72.6711C347.287 72.6711 343.304 64.076 343.304 45.8375C343.304 27.3894 347.287 19.0039 356.196 19.0039C365.001 19.0039 368.984 27.3894 368.984 45.8375C368.984 64.076 365.001 72.6711 356.196 72.6711Z" fill="url(#paint0_linear_2359_96154)" fill-opacity="0.5"/>
<path d="M32.9229 39.2339H32.5045V39.541L32.7975 39.633L32.9229 39.2339ZM32.9229 19.0039L33.0357 18.6011L32.5045 18.4523V19.0039H32.9229ZM41.2036 29.9051L40.788 29.953L40.8307 30.3234H41.2036V29.9051ZM55.3541 29.9051V30.3234H55.8253L55.7695 29.8555L55.3541 29.9051ZM32.9229 8.41719H32.5045V8.79691L32.8825 8.83357L32.9229 8.41719ZM32.9229 0.241325H33.3412V-0.177008H32.9229V0.241325ZM24.3277 0.241325V-0.177008H23.9094V0.241325H24.3277ZM24.3277 8.41719L24.3806 8.83218L24.7461 8.78566V8.41719H24.3277ZM24.3277 51.3929H24.7461V51.0876L24.4553 50.9945L24.3277 51.3929ZM24.3277 72.6711L24.2337 73.0787L24.7461 73.197V72.6711H24.3277ZM14.3699 61.6652L14.7832 61.5999L14.7274 61.2468H14.3699V61.6652ZM0.219407 61.6652V61.2468H-0.232882L-0.197654 61.6977L0.219407 61.6652ZM24.3277 83.2578H24.7461V82.8729L24.3625 82.8409L24.3277 83.2578ZM24.3277 91.4337H23.9094V91.852H24.3277V91.4337ZM32.9229 91.4337V91.852H33.3412V91.4337H32.9229ZM32.9229 83.2578L32.8829 82.8414L32.5045 82.8777V83.2578H32.9229ZM24.3277 18.8991H24.7461V18.375L24.235 18.4911L24.3277 18.8991ZM24.3277 37.5568L24.1808 37.9485L24.7461 38.1605V37.5568H24.3277ZM32.9229 53.2796L33.0663 52.8867L32.5045 52.6816V53.2796H32.9229ZM32.9229 72.8808H32.5045V73.3684L32.9865 73.2942L32.9229 72.8808ZM56.1917 62.6085C56.1917 56.7022 54.5374 52.0305 50.779 48.1915C47.0385 44.3709 41.2477 41.4103 33.0482 38.8348L32.7975 39.633C40.9498 42.1937 46.5842 45.1029 50.1811 48.7768C53.76 52.4324 55.355 56.88 55.355 62.6085H56.1917ZM33.3412 39.2339V19.0039H32.5045V39.2339H33.3412ZM32.8101 19.4067C35.3453 20.1166 37.1757 21.4266 38.453 23.2049C39.7353 24.9901 40.4788 27.2735 40.788 29.953L41.6191 29.8571C41.2994 27.086 40.523 24.6526 39.1325 22.7167C37.7369 20.7739 35.7413 19.3586 33.0357 18.6011L32.8101 19.4067ZM41.2036 30.3234H55.3541V29.4867H41.2036V30.3234ZM55.7695 29.8555C55.0797 24.0719 52.9532 18.9482 49.1941 15.0955C45.4325 11.2402 40.0678 8.69006 32.9633 8.00082L32.8825 8.83357C39.8237 9.50697 44.9933 11.9881 48.5952 15.6798C52.1996 19.374 54.2659 24.3129 54.9387 29.9546L55.7695 29.8555ZM33.3412 8.41719V0.241325H32.5045V8.41719H33.3412ZM32.9229 -0.177008H24.3277V0.659657H32.9229V-0.177008ZM23.9094 0.241325V8.41719H24.7461V0.241325H23.9094ZM24.2749 8.00221C18.4491 8.74368 13.0421 10.8391 9.08465 14.4088C5.11743 17.9873 2.63118 23.0271 2.63118 29.5906H3.46785C3.46785 23.2613 5.85567 18.4482 9.64505 15.0301C13.4442 11.6031 18.6763 9.55817 24.3806 8.83218L24.2749 8.00221ZM2.63118 29.5906C2.63118 35.6727 4.63859 40.162 8.37099 43.6661C12.0829 47.1511 17.4753 49.6373 24.2001 51.7913L24.4553 50.9945C17.7634 48.851 12.5167 46.4107 8.94366 43.0562C5.39115 39.7209 3.46785 35.4578 3.46785 29.5906H2.63118ZM23.9094 51.3929V72.6711H24.7461V51.3929H23.9094ZM24.4218 72.2635C21.7684 71.6512 19.5933 70.4319 17.9673 68.6546C16.3408 66.8768 15.2441 64.5193 14.7832 61.5999L13.9567 61.7304C14.4392 64.7857 15.5961 67.3023 17.35 69.2193C19.1044 71.1369 21.4365 72.4332 24.2337 73.0787L24.4218 72.2635ZM14.3699 61.2468H0.219407V62.0835H14.3699V61.2468ZM-0.197654 61.6977C0.333959 68.5024 2.94496 73.7201 7.20562 77.3778C11.4583 81.0287 17.3165 83.0933 24.293 83.6747L24.3625 82.8409C17.5029 82.2693 11.831 80.246 7.7506 76.743C3.67817 73.2469 1.15304 68.2447 0.636468 61.6326L-0.197654 61.6977ZM23.9094 83.2578V91.4337H24.7461V83.2578H23.9094ZM24.3277 91.852H32.9229V91.0154H24.3277V91.852ZM33.3412 91.4337V83.2578H32.5045V91.4337H33.3412ZM32.9629 83.6742C39.5767 83.0393 45.378 80.8672 49.534 77.2992C53.6991 73.7234 56.1917 68.7607 56.1917 62.6085H55.355C55.355 68.5105 52.9736 73.2435 48.989 76.6644C44.9953 80.093 39.3714 82.2185 32.8829 82.8414L32.9629 83.6742ZM17.1991 27.9135C17.1991 25.5377 17.9047 23.6475 19.1404 22.2264C20.3795 20.8015 22.1797 19.8163 24.4204 19.307L24.235 18.4911C21.8637 19.0301 19.8904 20.0888 18.5091 21.6774C17.1243 23.2699 16.3624 25.3628 16.3624 27.9135H17.1991ZM23.9094 18.8991V37.5568H24.7461V18.8991H23.9094ZM24.4746 37.1651C21.9876 36.2325 20.1799 35.1644 18.9898 33.7263C17.8089 32.2993 17.1991 30.4627 17.1991 27.9135H16.3624C16.3624 30.6052 17.0105 32.6469 18.3452 34.2597C19.6708 35.8614 21.6366 36.9944 24.1808 37.9485L24.4746 37.1651ZM32.7794 53.6726C36.0372 54.862 38.1064 56.2919 39.3646 57.9362C40.6176 59.5738 41.0997 61.4679 41.0997 63.6567H41.9364C41.9364 61.3383 41.4227 59.2493 40.029 57.4278C38.6406 55.6132 36.4121 54.1081 33.0663 52.8867L32.7794 53.6726ZM41.0997 63.6567C41.0997 66.3518 40.3395 68.3341 38.9647 69.7457C37.5826 71.1648 35.5318 72.0561 32.8593 72.4673L32.9865 73.2942C35.7645 72.8668 38.0113 71.9238 39.5641 70.3294C41.1243 68.7274 41.9364 66.517 41.9364 63.6567H41.0997ZM33.3412 72.8808V53.2796H32.5045V72.8808H33.3412ZM84.913 70.5748L84.6207 70.2755L83.8859 70.9931H84.913V70.5748ZM98.3298 57.4724L98.0376 57.173L98.0375 57.1731L98.3298 57.4724ZM64.3685 32.1062L64.7848 32.1479L64.785 32.1456L64.3685 32.1062ZM64.2637 33.1544L63.8474 33.1128L63.8015 33.5728H64.2637V33.1544ZM78.6239 33.1544V33.5728H79.0025L79.0401 33.1961L78.6239 33.1544ZM78.7287 32.1062L78.3128 32.0611L78.3124 32.0646L78.7287 32.1062ZM87.1142 51.3929L87.4068 51.6919L87.4068 51.6919L87.1142 51.3929ZM62.7962 75.1868L62.5037 74.8878L62.3779 75.0108V75.1868H62.7962ZM62.7962 82H62.3779V82.4183H62.7962V82ZM115.52 82V82.4183H115.938V82H115.52ZM115.52 70.5748H115.938V70.1564H115.52V70.5748ZM85.2053 70.874L98.6221 57.7717L98.0375 57.1731L84.6207 70.2755L85.2053 70.874ZM98.622 57.7717C111.824 44.8845 116.463 38.2742 116.463 28.9617H115.626C115.626 37.8877 111.25 44.2749 98.0376 57.173L98.622 57.7717ZM116.463 28.9617C116.463 22.6789 114.33 17.3433 110.139 13.5826C105.954 9.82652 99.7639 7.6844 91.7262 7.6844V8.52107C99.621 8.52107 105.59 10.6241 109.58 14.2053C113.566 17.782 115.626 22.8759 115.626 28.9617H116.463ZM91.7262 7.6844C83.5313 7.6844 76.9505 9.82641 72.229 13.9727C67.5056 18.1208 64.6933 24.2309 63.952 32.0668L64.785 32.1456C65.5112 24.4684 68.2543 18.5768 72.7811 14.6014C77.3099 10.6242 83.6742 8.52107 91.7262 8.52107V7.6844ZM63.9523 32.0646L63.8474 33.1128L64.68 33.1961L64.7848 32.1479L63.9523 32.0646ZM64.2637 33.5728H78.6239V32.7361H64.2637V33.5728ZM79.0401 33.1961L79.145 32.1479L78.3124 32.0646L78.2076 33.1128L79.0401 33.1961ZM79.1446 32.1513C79.6124 27.8371 80.6983 24.6331 82.5061 22.5115C84.2975 20.4092 86.843 19.3174 90.3636 19.3174V18.4807C86.6517 18.4807 83.8514 19.6426 81.8693 21.9689C79.9036 24.2758 78.7884 27.6754 78.3128 32.0611L79.1446 32.1513ZM90.3636 19.3174C93.6192 19.3174 96.0942 20.4078 97.7586 22.2337C99.428 24.0651 100.322 26.6809 100.322 29.8002H101.159C101.159 26.5257 100.219 23.6909 98.3769 21.6701C96.5299 19.6439 93.8164 18.4807 90.3636 18.4807V19.3174ZM100.322 29.8002C100.322 36.5201 96.5844 41.5411 86.8216 51.0939L87.4068 51.6919C97.1403 42.1677 101.159 36.9165 101.159 29.8002H100.322ZM86.8216 51.0939L62.5037 74.8878L63.0888 75.4858L87.4068 51.6919L86.8216 51.0939ZM62.3779 75.1868V82H63.2146V75.1868H62.3779ZM62.7962 82.4183H115.52V81.5817H62.7962V82.4183ZM115.938 82V70.5748H115.102V82H115.938ZM115.52 70.1564H84.913V70.9931H115.52V70.1564ZM150.739 7.78922C140.352 7.78922 133.163 11.5345 128.592 18.2174C124.041 24.8709 122.125 34.3791 122.125 45.8375H122.961C122.961 34.4454 124.871 25.1386 129.282 18.6898C133.673 12.2704 140.582 8.62589 150.739 8.62589V7.78922ZM122.125 45.8375C122.125 57.1918 124.041 66.6992 128.591 73.3783C133.161 80.0866 140.35 83.8858 150.739 83.8858V83.0491C140.584 83.0491 133.674 79.3538 129.283 72.9073C124.871 66.4316 122.961 57.1241 122.961 45.8375H122.125ZM150.739 83.8858C161.077 83.8858 168.239 80.0859 172.796 73.3779C177.333 66.699 179.249 57.1919 179.249 45.8375H178.412C178.412 57.124 176.503 66.4319 172.104 72.9077C167.725 79.3545 160.841 83.0491 150.739 83.0491V83.8858ZM179.249 45.8375C179.249 34.3791 177.333 24.8712 172.795 18.2179C168.238 11.5351 161.075 7.78922 150.739 7.78922V8.62589C160.843 8.62589 167.726 12.2697 172.104 18.6893C176.502 25.1383 178.412 34.4454 178.412 45.8375H179.249ZM150.739 72.2528C148.582 72.2528 146.747 71.7337 145.199 70.6957C143.649 69.6562 142.36 68.0774 141.329 65.9138C139.261 61.5724 138.265 54.9417 138.265 45.8375H137.428C137.428 54.9718 138.423 61.7579 140.574 66.2736C141.653 68.5387 143.03 70.2486 144.733 71.3906C146.438 72.5342 148.442 73.0895 150.739 73.0895V72.2528ZM138.265 45.8375C138.265 36.6277 139.262 29.9978 141.329 25.6834C142.359 23.5339 143.647 21.9749 145.197 20.9514C146.744 19.9292 148.58 19.4222 150.739 19.4222V18.5856C148.444 18.5856 146.441 19.1267 144.735 20.2533C143.032 21.3787 141.654 23.0691 140.575 25.3219C138.423 29.8123 137.428 36.5992 137.428 45.8375H138.265ZM150.739 19.4222C152.871 19.4222 154.687 19.9287 156.22 20.9505C157.755 21.9736 159.033 23.5325 160.057 25.6825C162.112 29.9974 163.109 36.6278 163.109 45.8375H163.945C163.945 36.5991 162.951 29.8127 160.813 25.3228C159.74 23.0704 158.372 21.3799 156.684 20.2543C154.993 19.1272 153.01 18.5856 150.739 18.5856V19.4222ZM163.109 45.8375C163.109 54.9415 162.112 61.5728 160.057 65.9148C159.033 68.0787 157.753 69.6575 156.217 70.6967C154.685 71.7342 152.869 72.2528 150.739 72.2528V73.0895C153.012 73.0895 154.996 72.5337 156.686 71.3896C158.374 70.2473 159.741 68.5374 160.813 66.2727C162.95 61.7575 163.945 54.972 163.945 45.8375H163.109ZM198.641 68.3736L199.03 68.5292L199.06 68.4543V68.3736H198.641ZM198.641 67.3254H199.06V66.907H198.641V67.3254ZM184.596 67.3254V66.907H184.285L184.195 67.2046L184.596 67.3254ZM176.315 94.7879L175.914 94.6671L175.752 95.2062H176.315V94.7879ZM188.055 94.7879V95.2062H188.338L188.443 94.9435L188.055 94.7879ZM199.06 68.3736V67.3254H198.223V68.3736H199.06ZM198.641 66.907H184.596V67.7437H198.641V66.907ZM184.195 67.2046L175.914 94.6671L176.716 94.9087L184.996 67.4461L184.195 67.2046ZM176.315 95.2062H188.055V94.3696H176.315V95.2062ZM188.443 94.9435L199.03 68.5292L198.253 68.2179L187.666 94.6323L188.443 94.9435ZM233.558 7.78922C223.171 7.78922 215.982 11.5345 211.411 18.2174C206.86 24.8709 204.944 34.3791 204.944 45.8375H205.78C205.78 34.4454 207.69 25.1386 212.101 18.6898C216.492 12.2704 223.401 8.62589 233.558 8.62589V7.78922ZM204.944 45.8375C204.944 57.1918 206.86 66.6992 211.41 73.3783C215.98 80.0866 223.169 83.8858 233.558 83.8858V83.0491C223.403 83.0491 216.494 79.3538 212.102 72.9073C207.69 66.4316 205.78 57.1241 205.78 45.8375H204.944ZM233.558 83.8858C243.896 83.8858 251.058 80.0859 255.615 73.3779C260.152 66.699 262.068 57.1919 262.068 45.8375H261.231C261.231 57.124 259.322 66.4319 254.923 72.9077C250.544 79.3545 243.66 83.0491 233.558 83.0491V83.8858ZM262.068 45.8375C262.068 34.3791 260.152 24.8712 255.615 18.2179C251.057 11.5351 243.894 7.78922 233.558 7.78922V8.62589C243.662 8.62589 250.545 12.2697 254.923 18.6893C259.322 25.1383 261.231 34.4454 261.231 45.8375H262.068ZM233.558 72.2528C231.401 72.2528 229.566 71.7337 228.018 70.6957C226.468 69.6562 225.179 68.0774 224.149 65.9138C222.081 61.5724 221.084 54.9417 221.084 45.8375H220.247C220.247 54.9718 221.242 61.7579 223.393 66.2736C224.472 68.5387 225.849 70.2486 227.552 71.3906C229.257 72.5342 231.261 73.0895 233.558 73.0895V72.2528ZM221.084 45.8375C221.084 36.6277 222.081 29.9978 224.148 25.6834C225.178 23.5339 226.466 21.9749 228.016 20.9514C229.563 19.9292 231.399 19.4222 233.558 19.4222V18.5856C231.263 18.5856 229.26 19.1267 227.555 20.2533C225.851 21.3787 224.473 23.0691 223.394 25.3219C221.242 29.8123 220.247 36.5992 220.247 45.8375H221.084ZM233.558 19.4222C235.69 19.4222 237.506 19.9287 239.039 20.9505C240.574 21.9736 241.853 23.5325 242.876 25.6825C244.931 29.9974 245.928 36.6278 245.928 45.8375H246.765C246.765 36.5991 245.77 29.8127 243.632 25.3228C242.559 23.0704 241.191 21.3799 239.503 20.2543C237.812 19.1272 235.829 18.5856 233.558 18.5856V19.4222ZM245.928 45.8375C245.928 54.9415 244.931 61.5728 242.876 65.9148C241.852 68.0787 240.572 69.6575 239.037 70.6967C237.504 71.7342 235.688 72.2528 233.558 72.2528V73.0895C235.831 73.0895 237.815 72.5337 239.505 71.3896C241.193 70.2473 242.56 68.5374 243.632 66.2727C245.77 61.7575 246.765 54.972 246.765 45.8375H245.928ZM294.877 7.78922C284.49 7.78922 277.301 11.5345 272.73 18.2174C268.179 24.8709 266.263 34.3791 266.263 45.8375H267.099C267.099 34.4454 269.009 25.1386 273.42 18.6898C277.811 12.2704 284.72 8.62589 294.877 8.62589V7.78922ZM266.263 45.8375C266.263 57.1918 268.179 66.6992 272.729 73.3783C277.299 80.0866 284.488 83.8858 294.877 83.8858V83.0491C284.722 83.0491 277.813 79.3538 273.421 72.9073C269.009 66.4316 267.099 57.1241 267.099 45.8375H266.263ZM294.877 83.8858C305.215 83.8858 312.377 80.0859 316.934 73.3779C321.471 66.699 323.387 57.1919 323.387 45.8375H322.55C322.55 57.124 320.641 66.4319 316.242 72.9077C311.863 79.3545 304.979 83.0491 294.877 83.0491V83.8858ZM323.387 45.8375C323.387 34.3791 321.471 24.8712 316.934 18.2179C312.376 11.5351 305.213 7.78922 294.877 7.78922V8.62589C304.981 8.62589 311.864 12.2697 316.242 18.6893C320.641 25.1383 322.55 34.4454 322.55 45.8375H323.387ZM294.877 72.2528C292.72 72.2528 290.885 71.7337 289.337 70.6957C287.787 69.6562 286.498 68.0774 285.468 65.9138C283.4 61.5724 282.403 54.9417 282.403 45.8375H281.566C281.566 54.9718 282.561 61.7579 284.712 66.2736C285.791 68.5387 287.168 70.2486 288.871 71.3906C290.576 72.5342 292.58 73.0895 294.877 73.0895V72.2528ZM282.403 45.8375C282.403 36.6277 283.4 29.9978 285.467 25.6834C286.497 23.5339 287.786 21.9749 289.335 20.9514C290.882 19.9292 292.718 19.4222 294.877 19.4222V18.5856C292.582 18.5856 290.579 19.1267 288.874 20.2533C287.17 21.3787 285.792 23.0691 284.713 25.3219C282.561 29.8123 281.566 36.5992 281.566 45.8375H282.403ZM294.877 19.4222C297.009 19.4222 298.825 19.9287 300.358 20.9505C301.893 21.9736 303.172 23.5325 304.195 25.6825C306.25 29.9974 307.247 36.6278 307.247 45.8375H308.084C308.084 36.5991 307.089 29.8127 304.951 25.3228C303.878 23.0704 302.51 21.3799 300.822 20.2543C299.131 19.1272 297.148 18.5856 294.877 18.5856V19.4222ZM307.247 45.8375C307.247 54.9415 306.25 61.5728 304.195 65.9148C303.171 68.0787 301.891 69.6575 300.356 70.6967C298.823 71.7342 297.007 72.2528 294.877 72.2528V73.0895C297.15 73.0895 299.134 72.5337 300.824 71.3896C302.512 70.2473 303.879 68.5374 304.951 66.2727C307.089 61.7575 308.084 54.972 308.084 45.8375H307.247ZM356.196 7.78922C345.809 7.78922 338.62 11.5345 334.049 18.2174C329.498 24.8709 327.582 34.3791 327.582 45.8375H328.418C328.418 34.4454 330.328 25.1386 334.739 18.6898C339.13 12.2704 346.039 8.62589 356.196 8.62589V7.78922ZM327.582 45.8375C327.582 57.1918 329.498 66.6992 334.048 73.3783C338.618 80.0866 345.807 83.8858 356.196 83.8858V83.0491C346.041 83.0491 339.132 79.3538 334.74 72.9073C330.328 66.4316 328.418 57.1241 328.418 45.8375H327.582ZM356.196 83.8858C366.534 83.8858 373.696 80.0859 378.253 73.3779C382.79 66.699 384.706 57.1919 384.706 45.8375H383.869C383.869 57.124 381.96 66.4319 377.561 72.9077C373.182 79.3545 366.298 83.0491 356.196 83.0491V83.8858ZM384.706 45.8375C384.706 34.3791 382.79 24.8712 378.253 18.2179C373.695 11.5351 366.532 7.78922 356.196 7.78922V8.62589C366.3 8.62589 373.183 12.2697 377.561 18.6893C381.96 25.1383 383.869 34.4454 383.869 45.8375H384.706ZM356.196 72.2528C354.039 72.2528 352.204 71.7337 350.656 70.6957C349.106 69.6562 347.817 68.0774 346.787 65.9138C344.719 61.5724 343.722 54.9417 343.722 45.8375H342.885C342.885 54.9718 343.88 61.7579 346.031 66.2736C347.11 68.5387 348.487 70.2486 350.19 71.3906C351.895 72.5342 353.899 73.0895 356.196 73.0895V72.2528ZM343.722 45.8375C343.722 36.6277 344.719 29.9978 346.786 25.6834C347.816 23.5339 349.104 21.9749 350.654 20.9514C352.201 19.9292 354.037 19.4222 356.196 19.4222V18.5856C353.901 18.5856 351.898 19.1267 350.193 20.2533C348.489 21.3787 347.111 23.0691 346.032 25.3219C343.88 29.8123 342.885 36.5992 342.885 45.8375H343.722ZM356.196 19.4222C358.328 19.4222 360.144 19.9287 361.677 20.9505C363.212 21.9736 364.491 23.5325 365.514 25.6825C367.569 29.9974 368.566 36.6278 368.566 45.8375H369.403C369.403 36.5991 368.408 29.8127 366.27 25.3228C365.197 23.0704 363.829 21.3799 362.141 20.2543C360.45 19.1272 358.467 18.5856 356.196 18.5856V19.4222ZM368.566 45.8375C368.566 54.9415 367.569 61.5728 365.514 65.9148C364.49 68.0787 363.21 69.6575 361.674 70.6967C360.142 71.7342 358.326 72.2528 356.196 72.2528V73.0895C358.469 73.0895 360.453 72.5337 362.143 71.3896C363.831 70.2473 365.198 68.5374 366.27 66.2727C368.408 61.7575 369.403 54.972 369.403 45.8375H368.566Z" fill="#B9E500"/>
<defs>
<linearGradient id="paint0_linear_2359_96154" x1="-22.5676" y1="98.3171" x2="405.325" y2="10.0876" gradientUnits="userSpaceOnUse">
<stop stop-color="#B9E500"/>
<stop offset="1" stop-color="#B9E500" stop-opacity="0.4"/>
</linearGradient>
</defs>
</svg>
