<svg width="97" height="97" viewBox="0 0 97 97" fill="none" xmlns="http://www.w3.org/2000/svg">
<rect x="0.853553" y="48.5002" width="67.3819" height="67.3819" rx="33.691" transform="rotate(-45 0.853553 48.5002)" fill="url(#paint0_linear_2418_97167)"/>
<path d="M53.2061 35.3184V61.5002H47.6706V40.5727H47.5172L41.5215 44.3312V39.4221L48.003 35.3184H53.2061Z" fill="url(#paint1_linear_2418_97167)"/>
<path d="M53.2061 35.3184H53.7061V34.8184H53.2061V35.3184ZM53.2061 61.5002V62.0002H53.7061V61.5002H53.2061ZM47.6706 61.5002H47.1706V62.0002H47.6706V61.5002ZM47.6706 40.5727H48.1706V40.0727H47.6706V40.5727ZM47.5172 40.5727V40.0727H47.3735L47.2517 40.149L47.5172 40.5727ZM41.5215 44.3312H41.0215V45.2348L41.7871 44.7549L41.5215 44.3312ZM41.5215 39.4221L41.254 38.9997L41.0215 39.1469V39.4221H41.5215ZM48.003 35.3184V34.8184H47.858L47.7356 34.896L48.003 35.3184ZM52.7061 35.3184V61.5002H53.7061V35.3184H52.7061ZM53.2061 61.0002H47.6706V62.0002H53.2061V61.0002ZM48.1706 61.5002V40.5727H47.1706V61.5002H48.1706ZM47.6706 40.0727H47.5172V41.0727H47.6706V40.0727ZM47.2517 40.149L41.2559 43.9076L41.7871 44.7549L47.7828 40.9963L47.2517 40.149ZM42.0215 44.3312V39.4221H41.0215V44.3312H42.0215ZM41.789 39.8446L48.2705 35.7409L47.7356 34.896L41.254 38.9997L41.789 39.8446ZM48.003 35.8184H53.2061V34.8184H48.003V35.8184Z" fill="white"/>
<rect x="0.853553" y="48.5002" width="67.3819" height="67.3819" rx="33.691" transform="rotate(-45 0.853553 48.5002)" stroke="#B9E500" stroke-width="0.5"/>
<defs>
<linearGradient id="paint0_linear_2418_97167" x1="34.441" y1="48.5002" x2="34.441" y2="116.382" gradientUnits="userSpaceOnUse">
<stop stop-color="#B9E500" stop-opacity="0.7"/>
<stop offset="1" stop-color="#B9E500" stop-opacity="0"/>
</linearGradient>
<linearGradient id="paint1_linear_2418_97167" x1="48.5" y1="21.5002" x2="48.5" y2="75.5002" gradientUnits="userSpaceOnUse">
<stop stop-color="white"/>
<stop offset="1" stop-color="white" stop-opacity="0"/>
</linearGradient>
</defs>
</svg>
