<svg width="67" height="67" viewBox="0 0 67 67" fill="none" xmlns="http://www.w3.org/2000/svg">
<rect x="0.603553" y="33.75" width="46.5224" height="46.5224" rx="23.2612" transform="rotate(-45 0.603553 33.75)" fill="url(#paint0_linear_2419_97105)"/>
<path d="M26.3321 43.75V40.6477L33.5806 33.9361C34.1971 33.3395 34.7142 32.8026 35.1318 32.3253C35.556 31.848 35.8775 31.3807 36.0963 30.9233C36.315 30.4593 36.4244 29.9588 36.4244 29.4219C36.4244 28.8253 36.2885 28.3116 36.0167 27.8807C35.7449 27.4432 35.3737 27.1084 34.9031 26.8764C34.4324 26.6378 33.8988 26.5185 33.3022 26.5185C32.6791 26.5185 32.1356 26.6444 31.6715 26.8963C31.2075 27.1482 30.8496 27.5095 30.5977 27.9801C30.3458 28.4508 30.2198 29.0109 30.2198 29.6605H26.1332C26.1332 28.3281 26.4348 27.1714 27.038 26.1903C27.6412 25.2093 28.4864 24.4503 29.5735 23.9134C30.6606 23.3764 31.9135 23.108 33.3321 23.108C34.7904 23.108 36.0598 23.3665 37.1403 23.8835C38.2274 24.3939 39.0726 25.1032 39.6758 26.0114C40.279 26.9195 40.5806 27.9602 40.5806 29.1335C40.5806 29.9025 40.4282 30.6615 40.1232 31.4105C39.8249 32.1596 39.2913 32.9915 38.5224 33.9062C37.7535 34.8144 36.6696 35.9048 35.271 37.1776L32.298 40.0909V40.2301H40.8491V43.75H26.3321Z" fill="url(#paint1_linear_2419_97105)"/>
<path d="M26.3321 43.75H25.8321V44.25H26.3321V43.75ZM26.3321 40.6477L25.9923 40.2808L25.8321 40.4293V40.6477H26.3321ZM33.5806 33.9361L33.9204 34.303L33.9283 34.2954L33.5806 33.9361ZM35.1318 32.3253L34.7581 31.9931L34.7555 31.996L35.1318 32.3253ZM36.0963 30.9233L36.5473 31.139L36.5485 31.1365L36.0963 30.9233ZM36.0167 27.8807L35.592 28.1445L35.5938 28.1474L36.0167 27.8807ZM34.9031 26.8764L34.6769 27.3224L34.682 27.3249L34.9031 26.8764ZM30.5977 27.9801L31.0385 28.2161V28.2161L30.5977 27.9801ZM30.2198 29.6605V30.1605H30.7198V29.6605H30.2198ZM26.1332 29.6605H25.6332V30.1605H26.1332V29.6605ZM27.038 26.1903L27.4639 26.4522L27.038 26.1903ZM29.5735 23.9134L29.3521 23.465L29.5735 23.9134ZM37.1403 23.8835L36.9245 24.3346L36.9278 24.3361L37.1403 23.8835ZM39.6758 26.0114L39.2593 26.288V26.288L39.6758 26.0114ZM40.1232 31.4105L39.6601 31.222L39.6587 31.2255L40.1232 31.4105ZM38.5224 33.9062L38.904 34.2293L38.9051 34.228L38.5224 33.9062ZM35.271 37.1776L34.9345 36.8077L34.9276 36.814L34.921 36.8204L35.271 37.1776ZM32.298 40.0909L31.948 39.7338L31.798 39.8808V40.0909H32.298ZM32.298 40.2301H31.798V40.7301H32.298V40.2301ZM40.8491 40.2301H41.3491V39.7301H40.8491V40.2301ZM40.8491 43.75V44.25H41.3491V43.75H40.8491ZM26.8321 43.75V40.6477H25.8321V43.75H26.8321ZM26.6718 41.0146L33.9203 34.303L33.2409 33.5692L25.9923 40.2808L26.6718 41.0146ZM33.9283 34.2954C34.5515 33.6923 35.0788 33.1451 35.5081 32.6545L34.7555 31.996C34.3495 32.46 33.8427 32.9867 33.2329 33.5768L33.9283 34.2954ZM35.5055 32.6575C35.9532 32.1538 36.3039 31.6479 36.5473 31.139L35.6452 30.7076C35.4511 31.1134 35.1589 31.5422 34.7581 31.9931L35.5055 32.6575ZM36.5485 31.1365C36.8002 30.6027 36.9244 30.029 36.9244 29.4219H35.9244C35.9244 29.8886 35.8298 30.3159 35.644 30.7101L36.5485 31.1365ZM36.9244 29.4219C36.9244 28.7473 36.7699 28.1375 36.4396 27.6139L35.5938 28.1474C35.8071 28.4856 35.9244 28.9033 35.9244 29.4219H36.9244ZM36.4414 27.6168C36.1194 27.0984 35.6769 26.7004 35.1242 26.4279L34.682 27.3249C35.0705 27.5164 35.3705 27.7879 35.592 28.1445L36.4414 27.6168ZM35.1292 26.4305C34.5798 26.1519 33.967 26.0185 33.3022 26.0185V27.0185C33.8306 27.0185 34.2851 27.1237 34.677 27.3224L35.1292 26.4305ZM33.3022 26.0185C32.6108 26.0185 31.9824 26.1586 31.433 26.4569L31.9101 27.3357C32.2887 27.1302 32.7474 27.0185 33.3022 27.0185V26.0185ZM31.433 26.4569C30.8821 26.7559 30.4543 27.1884 30.1568 27.7442L31.0385 28.2161C31.2448 27.8305 31.5329 27.5405 31.9101 27.3357L31.433 26.4569ZM30.1568 27.7442C29.8585 28.3015 29.7198 28.9463 29.7198 29.6605H30.7198C30.7198 29.0755 30.833 28.6 31.0385 28.2161L30.1568 27.7442ZM30.2198 29.1605H26.1332V30.1605H30.2198V29.1605ZM26.6332 29.6605C26.6332 28.4058 26.9164 27.3428 27.4639 26.4522L26.6121 25.9285C25.9532 27 25.6332 28.2504 25.6332 29.6605H26.6332ZM27.4639 26.4522C28.0152 25.5556 28.7875 24.8592 29.7949 24.3617L29.3521 23.465C28.1853 24.0413 27.2672 24.8629 26.6121 25.9285L27.4639 26.4522ZM29.7949 24.3617C30.8024 23.8641 31.9773 23.608 33.3321 23.608V22.608C31.8497 22.608 30.5189 22.8888 29.3521 23.465L29.7949 24.3617ZM33.3321 23.608C34.7316 23.608 35.9244 23.856 36.9245 24.3345L37.3561 23.4325C36.1952 22.877 34.8491 22.608 33.3321 22.608V23.608ZM36.9278 24.3361C37.9408 24.8117 38.7118 25.4637 39.2593 26.288L40.0923 25.7347C39.4334 24.7428 38.514 23.9761 37.3528 23.4309L36.9278 24.3361ZM39.2593 26.288C39.8039 27.1079 40.0806 28.0508 40.0806 29.1335H41.0806C41.0806 27.8697 40.7542 26.7312 40.0923 25.7347L39.2593 26.288ZM40.0806 29.1335C40.0806 29.8345 39.942 30.5297 39.6601 31.222L40.5863 31.599C40.9144 30.7933 41.0806 29.9704 41.0806 29.1335H40.0806ZM39.6587 31.2255C39.3873 31.9072 38.8891 32.6929 38.1396 33.5845L38.9051 34.228C39.6935 33.2901 40.2626 32.412 40.5878 31.5955L39.6587 31.2255ZM38.1408 33.5832C37.3915 34.4681 36.3253 35.5422 34.9345 36.8077L35.6075 37.5474C37.014 36.2675 38.1154 35.1607 38.904 34.2293L38.1408 33.5832ZM34.921 36.8204L31.948 39.7338L32.6479 40.448L35.6209 37.5347L34.921 36.8204ZM31.798 40.0909V40.2301H32.798V40.0909H31.798ZM32.298 40.7301H40.8491V39.7301H32.298V40.7301ZM40.3491 40.2301V43.75H41.3491V40.2301H40.3491ZM40.8491 43.25H26.3321V44.25H40.8491V43.25Z" fill="white"/>
<rect x="0.603553" y="33.75" width="46.5224" height="46.5224" rx="23.2612" transform="rotate(-45 0.603553 33.75)" stroke="#B9E500" stroke-width="0.5"/>
<defs>
<linearGradient id="paint0_linear_2419_97105" x1="23.7612" y1="33.75" x2="23.7612" y2="80.7724" gradientUnits="userSpaceOnUse">
<stop stop-color="#B9E500" stop-opacity="0.7"/>
<stop offset="1" stop-color="#B9E500" stop-opacity="0"/>
</linearGradient>
<linearGradient id="paint1_linear_2419_97105" x1="33.4998" y1="12.75" x2="33.4998" y2="54.75" gradientUnits="userSpaceOnUse">
<stop stop-color="white"/>
<stop offset="1" stop-color="white" stop-opacity="0"/>
</linearGradient>
</defs>
</svg>
