<svg width="67" height="67" viewBox="0 0 67 67" fill="none" xmlns="http://www.w3.org/2000/svg">
<rect x="1.08207" y="33.7283" width="45.8464" height="45.8464" rx="22.9232" transform="rotate(-45 1.08207 33.7283)" fill="url(#paint0_linear_2419_97119)"/>
<path d="M33.4644 40.9271C32.4038 40.9271 31.4592 40.7448 30.6306 40.3803C29.8067 40.0109 29.1557 39.5043 28.6775 38.8604C28.204 38.2117 27.9602 37.4636 27.946 36.6161H31.0425C31.0615 36.9712 31.1775 37.2837 31.3906 37.5536C31.6084 37.8187 31.8972 38.0247 32.257 38.1715C32.6169 38.3182 33.0217 38.3916 33.4715 38.3916C33.9403 38.3916 34.3546 38.3088 34.7144 38.143C35.0743 37.9773 35.356 37.7477 35.5596 37.4541C35.7632 37.1606 35.865 36.822 35.865 36.4385C35.865 36.0502 35.7561 35.707 35.5383 35.4087C35.3252 35.1056 35.0174 34.8689 34.615 34.6984C34.2173 34.528 33.7438 34.4428 33.1945 34.4428H31.838V32.1842H33.1945C33.6585 32.1842 34.0681 32.1037 34.4232 31.9428C34.7831 31.7818 35.0624 31.5592 35.2613 31.2751C35.4602 30.9863 35.5596 30.6501 35.5596 30.2666C35.5596 29.902 35.472 29.5824 35.2968 29.3078C35.1264 29.0285 34.8849 28.8107 34.5724 28.6544C34.2646 28.4982 33.9048 28.42 33.4928 28.42C33.0762 28.42 32.695 28.4958 32.3494 28.6473C32.0037 28.7941 31.7267 29.0048 31.5184 29.2794C31.3101 29.554 31.1988 29.876 31.1846 30.2453H28.2371C28.2514 29.4072 28.4905 28.6686 28.9545 28.0294C29.4185 27.3902 30.0435 26.8907 30.8295 26.5308C31.6202 26.1662 32.5127 25.984 33.507 25.984C34.5108 25.984 35.3891 26.1662 36.142 26.5308C36.8948 26.8954 37.4796 27.3878 37.8962 28.0081C38.3176 28.6236 38.526 29.3149 38.5212 30.082C38.526 30.8964 38.2727 31.5758 37.7613 32.1203C37.2547 32.6648 36.5942 33.0105 35.7798 33.1572V33.2709C36.8498 33.4082 37.6642 33.7799 38.2229 34.3859C38.7864 34.9873 39.0657 35.7401 39.061 36.6445C39.0657 37.4731 38.8266 38.2093 38.3437 38.8533C37.8655 39.4972 37.2049 40.0038 36.3621 40.3732C35.5193 40.7425 34.5534 40.9271 33.4644 40.9271Z" fill="url(#paint1_linear_2419_97119)"/>
<path d="M30.6306 40.3803L30.4261 40.8365L30.4292 40.8379L30.6306 40.3803ZM28.6775 38.8604L28.2736 39.1552L28.2761 39.1585L28.6775 38.8604ZM27.946 36.6161V36.1161H27.4375L27.446 36.6244L27.946 36.6161ZM31.0425 36.6161L31.5418 36.5894L31.5166 36.1161H31.0425V36.6161ZM31.3906 37.5536L30.998 37.8634L31.0042 37.8709L31.3906 37.5536ZM32.257 38.1715L32.0682 38.6344L32.257 38.1715ZM34.7144 38.143L34.5053 37.6889L34.7144 38.143ZM35.5596 37.4541L35.9704 37.7391H35.9704L35.5596 37.4541ZM35.5383 35.4087L35.1292 35.6963L35.1345 35.7035L35.5383 35.4087ZM34.615 34.6984L34.418 35.158L34.42 35.1588L34.615 34.6984ZM31.838 34.4428H31.338V34.9428H31.838V34.4428ZM31.838 32.1842V31.6842H31.338V32.1842H31.838ZM34.4232 31.9428L34.219 31.4863L34.2168 31.4874L34.4232 31.9428ZM35.2613 31.2751L35.6709 31.5619L35.6731 31.5587L35.2613 31.2751ZM35.2968 29.3078L34.8699 29.5683L34.8753 29.5767L35.2968 29.3078ZM34.5724 28.6544L34.346 29.1002L34.3488 29.1016L34.5724 28.6544ZM32.3494 28.6473L32.5448 29.1076L32.5501 29.1052L32.3494 28.6473ZM31.5184 29.2794L31.9167 29.5816H31.9167L31.5184 29.2794ZM31.1846 30.2453V30.7453H31.6657L31.6842 30.2645L31.1846 30.2453ZM28.2371 30.2453L27.7372 30.2368L27.7286 30.7453H28.2371V30.2453ZM28.9545 28.0294L29.3591 28.3231L28.9545 28.0294ZM30.8295 26.5308L31.0376 26.9854L31.0388 26.9849L30.8295 26.5308ZM36.142 26.5308L36.3599 26.0808L36.142 26.5308ZM37.8962 28.0081L37.4812 28.2869L37.4837 28.2906L37.8962 28.0081ZM38.5212 30.082L38.0212 30.0789L38.0212 30.0849L38.5212 30.082ZM37.7613 32.1203L37.3968 31.778L37.3952 31.7797L37.7613 32.1203ZM35.7798 33.1572L35.6911 32.6652L35.2798 32.7393V33.1572H35.7798ZM35.7798 33.2709H35.2798V33.7108L35.7161 33.7668L35.7798 33.2709ZM38.2229 34.3859L37.8553 34.7249L37.8581 34.7278L38.2229 34.3859ZM39.061 36.6445L38.561 36.6418L38.561 36.6473L39.061 36.6445ZM38.3437 38.8533L37.9437 38.5533L37.9423 38.5552L38.3437 38.8533ZM36.3621 40.3732L36.1615 39.9152L36.3621 40.3732ZM33.4644 40.4271C32.4614 40.4271 31.5872 40.2549 30.832 39.9226L30.4292 40.8379C31.3313 41.2348 32.3462 41.4271 33.4644 41.4271V40.4271ZM30.8351 39.924C30.0794 39.5852 29.5 39.1292 29.0789 38.5623L28.2761 39.1585C28.8115 39.8794 29.5341 40.4367 30.4261 40.8365L30.8351 39.924ZM29.0813 38.5656C28.6721 38.005 28.4585 37.3582 28.4459 36.6077L27.446 36.6244C27.4619 37.569 27.7359 38.4184 28.2736 39.1552L29.0813 38.5656ZM27.946 37.1161H31.0425V36.1161H27.946V37.1161ZM30.5433 36.6427C30.5675 37.0972 30.7187 37.5095 30.9981 37.8634L31.783 37.2437C31.6362 37.0578 31.5555 36.8451 31.5418 36.5894L30.5433 36.6427ZM31.0042 37.8709C31.2814 38.2084 31.6418 38.4605 32.0682 38.6344L32.4459 37.7085C32.1526 37.5889 31.9353 37.429 31.7769 37.2362L31.0042 37.8709ZM32.0682 38.6344C32.4967 38.8092 32.967 38.8916 33.4715 38.8916V37.8916C33.0764 37.8916 32.7371 37.8273 32.4459 37.7085L32.0682 38.6344ZM33.4715 38.8916C33.9994 38.8916 34.4872 38.7982 34.9236 38.5972L34.5053 37.6889C34.2219 37.8194 33.8811 37.8916 33.4715 37.8916V38.8916ZM34.9236 38.5972C35.3555 38.3983 35.7105 38.1138 35.9704 37.7391L35.1487 37.1692C35.0015 37.3815 34.793 37.5564 34.5053 37.6889L34.9236 38.5972ZM35.9704 37.7391C36.2364 37.3556 36.365 36.916 36.365 36.4385H35.365C35.365 36.7281 35.29 36.9656 35.1487 37.1692L35.9704 37.7391ZM36.365 36.4385C36.365 35.95 36.2257 35.5023 35.9421 35.1138L35.1345 35.7035C35.2864 35.9117 35.365 36.1505 35.365 36.4385H36.365ZM35.9473 35.1211C35.6714 34.7287 35.2828 34.4383 34.81 34.238L34.42 35.1588C34.7521 35.2995 34.979 35.4825 35.1293 35.6963L35.9473 35.1211ZM34.8119 34.2389C34.3377 34.0356 33.7939 33.9428 33.1945 33.9428V34.9428C33.6936 34.9428 34.0969 35.0204 34.418 35.158L34.8119 34.2389ZM33.1945 33.9428H31.838V34.9428H33.1945V33.9428ZM32.338 34.4428V32.1842H31.338V34.4428H32.338ZM31.838 32.6842H33.1945V31.6842H31.838V32.6842ZM33.1945 32.6842C33.7164 32.6842 34.1986 32.5936 34.6297 32.3981L34.2168 31.4874C33.9377 31.6139 33.6007 31.6842 33.1945 31.6842V32.6842ZM34.6274 32.3992C35.0583 32.2064 35.4134 31.9298 35.6709 31.5619L34.8517 30.9884C34.7115 31.1887 34.5079 31.3571 34.219 31.4863L34.6274 32.3992ZM35.6731 31.5587C35.9348 31.1786 36.0596 30.7415 36.0596 30.2666H35.0596C35.0596 30.5588 34.9855 30.794 34.8495 30.9916L35.6731 31.5587ZM36.0596 30.2666C36.0596 29.8185 35.9507 29.4032 35.7183 29.0389L34.8753 29.5767C34.9933 29.7617 35.0596 29.9856 35.0596 30.2666H36.0596ZM35.7236 29.0474C35.501 28.6825 35.1865 28.4024 34.796 28.2072L34.3488 29.1016C34.5833 29.2189 34.7517 29.3745 34.87 29.5682L35.7236 29.0474ZM34.7987 28.2086C34.4085 28.0105 33.9683 27.92 33.4928 27.92V28.92C33.8412 28.92 34.1207 28.9859 34.346 29.1002L34.7987 28.2086ZM33.4928 27.92C33.0143 27.92 32.5639 28.0073 32.1486 28.1894L32.5501 29.1052C32.8262 28.9842 33.138 28.92 33.4928 28.92V27.92ZM32.1539 28.1871C31.7354 28.3648 31.3857 28.627 31.1201 28.9772L31.9167 29.5816C32.0677 29.3826 32.272 29.2234 32.5448 29.1075L32.1539 28.1871ZM31.1201 28.9772C30.8452 29.3395 30.7028 29.7621 30.685 30.2261L31.6842 30.2645C31.6948 29.9899 31.775 29.7685 31.9167 29.5816L31.1201 28.9772ZM31.1846 29.7453H28.2371V30.7453H31.1846V29.7453ZM28.7371 30.2538C28.7497 29.5117 28.9592 28.8741 29.3591 28.3231L28.5498 27.7357C28.0218 28.4631 27.753 29.3028 27.7372 30.2368L28.7371 30.2538ZM29.3591 28.3231C29.7679 27.76 30.3223 27.3129 31.0376 26.9854L30.6213 26.0762C29.7647 26.4684 29.0691 27.0204 28.5498 27.7357L29.3591 28.3231ZM31.0388 26.9849C31.7552 26.6546 32.5747 26.484 33.507 26.484V25.484C32.4507 25.484 31.4852 25.6779 30.6201 26.0768L31.0388 26.9849ZM33.507 26.484C34.4502 26.484 35.2514 26.6551 35.924 26.9808L36.3599 26.0808C35.5269 25.6774 34.5714 25.484 33.507 25.484V26.484ZM35.924 26.9808C36.6069 27.3115 37.1196 27.7487 37.4812 28.2869L38.3113 27.7293C37.8395 27.027 37.1827 26.4793 36.3599 26.0808L35.924 26.9808ZM37.4837 28.2906C37.8458 28.8195 38.0254 29.4106 38.0212 30.0789L39.0212 30.085C39.0266 29.2192 38.7895 28.4277 38.3088 27.7256L37.4837 28.2906ZM38.0212 30.0849C38.0253 30.7837 37.8121 31.3358 37.3968 31.778L38.1258 32.4626C38.7332 31.8158 39.0266 31.009 39.0212 30.0791L38.0212 30.0849ZM37.3952 31.7797C36.9705 32.2362 36.4117 32.5353 35.6911 32.6652L35.8684 33.6493C36.7766 33.4856 37.5388 33.0935 38.1274 32.4609L37.3952 31.7797ZM35.2798 33.1572V33.2709H36.2798V33.1572H35.2798ZM35.7161 33.7668C36.7061 33.8938 37.3981 34.2289 37.8553 34.7248L38.5906 34.047C37.9303 33.3308 36.9936 32.9225 35.8434 32.775L35.7161 33.7668ZM37.8581 34.7278C38.3252 35.2264 38.5652 35.8518 38.561 36.6418L39.561 36.6471C39.5663 35.6284 39.2476 34.7482 38.5878 34.0441L37.8581 34.7278ZM38.561 36.6473C38.5651 37.3702 38.3591 37.9994 37.9437 38.5533L38.7437 39.1533C39.2942 38.4193 39.5663 37.5759 39.561 36.6416L38.561 36.6473ZM37.9423 38.5552C37.5231 39.1195 36.9365 39.5756 36.1615 39.9152L36.5628 40.8311C37.4734 40.4321 38.2078 39.8749 38.7451 39.1514L37.9423 38.5552ZM36.1615 39.9152C35.3925 40.2522 34.4968 40.4271 33.4644 40.4271V41.4271C34.61 41.4271 35.6462 41.2328 36.5628 40.8311L36.1615 39.9152Z" fill="white"/>
<rect x="1.08207" y="33.7283" width="45.8464" height="45.8464" rx="22.9232" transform="rotate(-45 1.08207 33.7283)" stroke="#B9E500" stroke-width="0.5"/>
<defs>
<linearGradient id="paint0_linear_2419_97119" x1="23.9017" y1="33.7283" x2="23.9017" y2="80.0747" gradientUnits="userSpaceOnUse">
<stop stop-color="#B9E500" stop-opacity="0.7"/>
<stop offset="1" stop-color="#B9E500" stop-opacity="0"/>
</linearGradient>
<linearGradient id="paint1_linear_2419_97119" x1="33.5008" y1="18.7283" x2="33.5008" y2="48.7283" gradientUnits="userSpaceOnUse">
<stop stop-color="white"/>
<stop offset="1" stop-color="white" stop-opacity="0"/>
</linearGradient>
</defs>
</svg>
