<svg width="30" height="30" viewBox="0 0 30 30" fill="none" xmlns="http://www.w3.org/2000/svg">
<path d="M14.8069 19.3571L18.9452 25.852L22.7679 23.6366L17.3331 15.0706L14.8069 19.3571Z" fill="white"/>
<path d="M26.2485 21.0318L26.2457 19.2569L20.3073 10.0075L18.1041 13.7459L23.8369 23.0175L25.9096 21.8164C26.113 21.6513 26.236 21.409 26.2489 21.1474L26.2485 21.0318Z" fill="white"/>
<path d="M1.36374 22.706L4.29081 24.3926L14.0313 8.77157L12.3781 8.72791C10.9696 8.70798 9.45238 9.07415 8.7559 10.211L3.22453 18.7843L1.36365 21.6435V22.706H1.36374Z" fill="white"/>
<path d="M19.6533 8.77109L15.2965 8.78691L5.43927 25.0532L8.88463 27.037L9.82159 25.4478L19.6533 8.77109Z" fill="white"/>
<path d="M28.0859 8.74876C28.0495 7.83759 27.5561 7.00342 26.7833 6.51781L15.9518 0.288937C15.1874 -0.0960327 14.2324 -0.0964984 13.4667 0.288657C13.3762 0.334276 2.93326 6.39082 2.93326 6.39082C2.78877 6.46008 2.64959 6.54266 2.51859 6.63632C1.82872 7.13078 1.40819 7.89904 1.36499 8.74318V21.6432L3.22588 18.784L3.20958 8.83041C3.21182 8.79401 3.21638 8.75826 3.2228 8.72288C3.26479 8.48864 3.3956 8.27973 3.59251 8.13859C3.64166 8.10339 14.2629 1.95543 14.2967 1.93849C14.5464 1.81308 14.8636 1.81178 15.1136 1.93467L25.8049 8.08449C26.0579 8.24556 26.2164 8.51871 26.2305 8.81729V21.1474C26.2175 21.4089 26.1142 21.6511 25.9109 21.8163L23.8381 23.0174L22.7686 23.6372L18.9459 25.8525L15.0692 28.0992C14.8604 28.1746 14.6163 28.1704 14.4093 28.0861L9.82258 25.4481L8.88562 27.0371L13.0075 29.4103C13.1438 29.4878 13.2653 29.5565 13.365 29.6125C13.5193 29.6991 13.6244 29.7569 13.6616 29.7749C13.9546 29.9171 14.376 30 14.7559 30C15.1042 30 15.4437 29.936 15.7651 29.8102L27.0251 23.2892C27.6714 22.7885 28.0516 22.0333 28.0859 21.2153V8.74876V8.74876Z" fill="white"/>
</svg>
