<?xml version="1.0" encoding="utf-8"?>
<!-- Generator: Adobe Illustrator 25.2.1, SVG Export Plug-In . SVG Version: 6.00 Build 0)  -->
<svg version="1.1" id="Layer_1" xmlns="http://www.w3.org/2000/svg" xmlns:xlink="http://www.w3.org/1999/xlink" x="0px" y="0px"
	 viewBox="0 0 14 14" style="enable-background:new 0 0 14 14;" xml:space="preserve">
<style type="text/css">
	.st0{fill-rule:evenodd;clip-rule:evenodd;fill:#DD463A;}
</style>
<path class="st0" d="M7,12.6c1.5,0,2.9-0.6,4-1.6c1.1-1.1,1.6-2.5,1.6-4S12,4.1,11,3C9.9,2,8.5,1.4,7,1.4C5.5,1.4,4.1,2,3,3
	C2,4.1,1.4,5.5,1.4,7S2,9.9,3,11C4.1,12,5.5,12.6,7,12.6L7,12.6z M4.4,7.5l2.1,2.1C6.6,9.7,6.8,9.8,7,9.8c0.2,0,0.4-0.1,0.5-0.2
	l2.1-2.1C9.7,7.4,9.8,7.2,9.8,7c0-0.2-0.1-0.4-0.2-0.5C9.5,6.4,9.3,6.3,9.1,6.3c-0.2,0-0.4,0.1-0.5,0.2L7.7,7.4V4.9
	c0-0.2-0.1-0.4-0.2-0.5C7.4,4.3,7.2,4.2,7,4.2c-0.2,0-0.4,0.1-0.5,0.2C6.4,4.5,6.3,4.7,6.3,4.9v2.5L5.4,6.5C5.3,6.4,5.1,6.3,4.9,6.3
	c-0.2,0-0.4,0.1-0.5,0.2C4.3,6.6,4.2,6.8,4.2,7C4.2,7.2,4.3,7.4,4.4,7.5L4.4,7.5z"/>
</svg>
