<svg width="14" height="14" viewBox="0 0 14 14" fill="none" xmlns="http://www.w3.org/2000/svg">
<path fill-rule="evenodd" clip-rule="evenodd" d="M7.00002 12.6004C8.48524 12.6004 9.90962 12.0104 10.9598 10.9602C12.01 9.90999 12.6 8.4856 12.6 7.00039C12.6 5.51518 12.01 4.0908 10.9598 3.04059C9.90962 1.99039 8.48524 1.40039 7.00002 1.40039C5.51481 1.40039 4.09043 1.99039 3.04023 3.04059C1.99002 4.0908 1.40002 5.51518 1.40002 7.00039C1.40002 8.4856 1.99002 9.90999 3.04023 10.9602C4.09043 12.0104 5.51481 12.6004 7.00002 12.6004V12.6004ZM9.59492 6.50549L7.49492 4.40549C7.36366 4.27426 7.18564 4.20054 7.00002 4.20054C6.81441 4.20054 6.63639 4.27426 6.50512 4.40549L4.40512 6.50549C4.27761 6.63751 4.20706 6.81433 4.20865 6.99787C4.21025 7.18141 4.28387 7.35698 4.41365 7.48676C4.54344 7.61655 4.71901 7.69017 4.90254 7.69176C5.08608 7.69336 5.2629 7.6228 5.39492 7.49529L6.30002 6.59019V9.10039C6.30002 9.28604 6.37377 9.46409 6.50505 9.59537C6.63633 9.72664 6.81437 9.80039 7.00002 9.80039C7.18568 9.80039 7.36372 9.72664 7.495 9.59537C7.62627 9.46409 7.70002 9.28604 7.70002 9.10039V6.59019L8.60513 7.49529C8.73715 7.6228 8.91397 7.69336 9.09751 7.69176C9.28104 7.69017 9.45661 7.61655 9.5864 7.48676C9.71618 7.35698 9.7898 7.18141 9.7914 6.99787C9.79299 6.81433 9.72244 6.63751 9.59492 6.50549V6.50549Z" fill="#4FE021"/>
</svg>
