<svg width="30" height="30" viewBox="0 0 30 30" fill="none" xmlns="http://www.w3.org/2000/svg">
<path d="M10.3616 23.1518C7.99642 19.9322 6.06682 17.2933 6.08553 17.283C6.10424 17.2728 8.04185 18.3545 10.4098 19.6881L14.7179 22.1111V25.5569C14.7179 27.4506 14.7179 29 14.6966 29C14.6752 29 12.7295 26.3688 10.3616 23.1518ZM15.2712 25.5697V22.1189L19.5794 19.6932C21.9499 18.3571 23.8982 17.2728 23.9089 17.2856C23.9196 17.2985 15.4449 28.8484 15.3326 28.9615C15.2872 29.0051 15.2712 28.075 15.2712 25.5697ZM10.3456 17.8997C7.96435 16.5584 6.00802 15.4458 6.00001 15.4227C5.99199 15.3996 14.6485 11.7175 14.6859 11.7535C14.7233 11.7894 14.7019 13.7037 14.6859 16.0574L14.6698 20.3408L10.3456 17.8997ZM15.2712 16.0471C15.2712 13.678 15.2712 11.7406 15.3059 11.7406C15.3406 11.7406 23.957 15.3636 23.9998 15.4022C24.0426 15.4407 17.468 19.1588 15.6133 20.1686L15.2712 20.3536V16.0471ZM19.5473 12.8995L15.2712 11.1111V6.044C15.2712 3.25865 15.2925 1.00262 15.3193 1.03089C15.4288 1.15166 23.8715 14.6981 23.8314 14.6981C23.7913 14.6981 21.8724 13.8887 19.5312 12.8995H19.5473ZM6.27261 14.6185C6.27261 14.5876 14.6324 1.05915 14.6885 1.00005C14.6885 0.987207 14.7099 3.25608 14.7099 6.04143V11.1111L10.5434 12.8635C5.845 14.842 6.26726 14.6621 6.26726 14.6185H6.27261Z" fill="white"/>
</svg>
