<svg width="32" height="32" viewBox="0 0 32 32" fill="none" xmlns="http://www.w3.org/2000/svg">
<path d="M32 16.0186C32 24.8521 24.8314 32.0213 15.9773 32C11.753 32 7.67798 30.3143 4.69106 27.3272C-1.56013 21.0755 -1.56013 10.9405 4.66973 4.68877C10.8996 -1.56292 21.0551 -1.56292 27.3063 4.68877C30.3145 7.69727 32 11.7726 32 16.0186Z" fill="black"/>
<path d="M12.9859 6.20758C9.07259 6.20758 9.07259 6.20758 9.07259 6.20758L6 24.9542H11.1525C11.1525 24.9542 16.8993 24.9806 16.8993 19.9984C16.8993 15.0162 16.8993 9.1561 16.8993 9.1561C16.8993 9.1561 16.8993 6.20758 12.9859 6.20758ZM13.4384 19.0396C13.3472 21.0205 11.6691 20.9959 11.6691 20.9959H9.92178L11.3922 8.48758C11.3922 8.48758 11.3922 8.48758 12.6787 8.48758C13.9651 8.48758 14.0208 9.41647 14.0107 9.9249C13.9719 12.2084 13.5295 17.0569 13.4384 19.0396Z" fill="white"/>
<path d="M22.695 10.7728H25.4688C25.4688 10.7728 25.2206 6.04572 20.9595 6.04572C16.6984 6.04572 17.3197 10.0023 17.3197 10.0023C17.3197 10.0023 17.448 11.7281 18.856 13.1303C20.264 14.5324 22.0214 15.8835 22.6545 16.5643C23.2876 17.2452 23.9308 17.7026 24.0085 19.0203C24.0861 20.3379 23.9831 21.5131 22.6461 21.5131C21.309 21.5131 20.5898 20.4083 20.4412 18.8408C20.2927 17.2733 20.1931 16.5643 20.1931 16.5643H17.2876C17.2876 16.5643 17.0968 20.1251 17.8396 22.0268C18.5825 23.9286 19.4992 24.956 22.8689 24.956C26.2386 24.956 26.6016 23.1422 26.8565 21.9758C27.1115 20.8094 27.1047 18.1987 26.1373 16.2213C25.1717 14.2421 23.0647 13.0616 21.9995 12.2911C20.9342 11.5205 20.0175 10.5952 20.0175 9.66979C20.0175 8.74442 20.3889 8.07766 21.1081 8.07766C21.8273 8.07766 22.3472 8.48933 22.4958 9.18247C22.6461 9.87386 22.695 10.7728 22.695 10.7728Z" fill="white"/>
</svg>
