<svg version="1.2" xmlns="http://www.w3.org/2000/svg" viewBox="0 0 500 500" width="40" height="40">
	<title>FSX_Token-01-svg</title>
	<style>
		.s0 { fill: #2a2a2a } 
		.s1 { fill: #ffffff } 
	</style>
	<g id="Layer_1_00000043423952905100512440000003808682425615942065_">
		<path id="Layer" class="s0" d="m250 500c-138.3 0-250-111.8-250-250 0-138.3 111.8-250 250-250 138.3 0 250 111.8 250 250 0 138.3-111.8 250-250 250z"/>
	</g>
	<g id="svg8">
		<g id="Layer">
			<path id="Layer" class="s1" d="m161.6 100.7l20 19.9 20 19.9 4.6-1.9c12.5-5.1 28.7-7.5 47.2-7 16.9 0.5 28.4 2.5 40.3 6.9l4.8 1.8 20.1-20.1 19.8-19.8 15.8 15.7 15.7 15.8-19.6 19.6-19.6 19.7 1.5 4c2.8 7.2 4.3 14.1 4.9 21.8l0.3 3.8-5.4 0.3c-9.4 0.5-40.9 1.6-41 1.5 0-0.1-0.5-2-1-4.2-4.3-18.1-14-26.4-33.4-28.4-9.2-0.9-21.5 0.2-28.9 2.7-6.6 2.2-12.6 6.1-15 9.7-4.3 6.2-3.8 14.7 1 20.8 4.8 6.1 17.1 11.1 45.6 18.2 40.4 10.2 54.7 16.5 67.4 29.9 12.1 12.9 17.5 28.4 16.8 49.1-0.4 10.9-2.3 18.7-6.9 28l-2.2 4.5 17.7 17.7 17.7 17.5-15.8 15.8-15.7 15.7-19.1-19.1-19.1-19.1-2.9 1c-4.9 1.8-14 4-20.4 4.9-26.4 3.8-53.7 1.5-71.9-6.2l-3.4-1.4-19.9 19.9-20 20-15.7-15.7-15.8-15.8 19.3-19.4 19.4-19.4-2.3-4.8c-4.1-8.3-7.6-20.3-9-30.3-0.3-2-0.5-3.9-0.3-4 0.2-0.2 44.8-4.6 44.9-4.4 0 0.1 0.4 1.8 0.8 3.8 2.7 12.7 8.7 23.6 16.4 30 3.8 3.1 11.3 6.8 16.6 8.1 14.3 3.7 33.2 2.1 44.1-3.6 8-4.1 14.5-11.8 16.5-19.4 0.7-3.2 0.8-9.7 0-12.6-1.8-6.7-6.1-11.1-14.7-15.2-6.3-2.9-11.2-4.4-43.2-12.6-16.4-4.2-31.2-9.5-39.8-14.2-21.4-11.7-33.5-31.4-33.5-54.5 0-7.1 0.9-12.4 3-18.8l1.7-4.9-20-19.9-19.9-19.9 15.7-15.7z"/>
		</g>
	</g>
</svg>