<svg width="34" height="34" viewBox="0 0 34 34" fill="none" xmlns="http://www.w3.org/2000/svg">
<path d="M17 34C26.3888 34 34 26.3888 34 17C34 7.61116 26.3888 0 17 0C7.61116 0 0 7.61116 0 17C0 26.3888 7.61116 34 17 34Z" fill="#003100"/>
<path d="M6.07733 18.0404H4.11892C4.41132 22.032 6.57373 25.5272 9.69493 27.6964L10.6945 25.9896C8.11733 24.1536 6.36973 21.284 6.07733 18.0404ZM27.9189 18.0404C27.6265 21.3248 25.8789 24.2012 23.3425 25.9896L24.3421 27.6964C27.4633 25.534 29.6257 22.0388 29.9181 18.0404H27.9189ZM24.3013 6.34437L23.3017 8.05117C25.8381 9.83957 27.5857 12.7092 27.8781 16.0004H29.8365C29.5849 12.0088 27.4225 8.51357 24.3013 6.34437ZM9.65413 6.34437C6.53293 8.50677 4.41133 12.002 4.07812 16.0004H6.03653C6.32893 12.716 8.07653 9.83957 10.6129 8.05117L9.65413 6.34437ZM16.9777 4.05957C14.9785 4.05957 13.1085 4.51517 11.4017 5.31077L12.4013 7.01757C13.8157 6.35117 15.3525 6.01797 16.9777 6.01797C18.6029 6.01797 20.1805 6.39197 21.5541 7.01757L22.5537 5.31077C20.8877 4.51517 18.9769 4.05957 16.9777 4.05957ZM21.5541 26.9892C20.1397 27.6556 18.6029 27.9888 16.9777 27.9888C15.3525 27.9888 13.7749 27.6148 12.4013 26.9892L11.4017 28.696C13.1085 29.5256 14.9785 29.9472 16.9777 29.9472C18.9769 29.9472 20.8469 29.4916 22.5537 28.696L21.5541 26.9892ZM8.11733 16.0004H10.0757C10.5313 12.9608 12.9453 10.5468 15.9849 10.0912V8.13277C11.8573 8.59517 8.57293 11.8796 8.11733 16.0004ZM23.9273 18.0404C23.4717 21.08 21.0577 23.494 18.0181 23.9496V25.908C22.1389 25.4524 25.4233 22.1612 25.8857 18.0404C25.8789 18.0404 23.9273 18.0404 23.9273 18.0404ZM18.0181 8.13957V10.098C21.0577 10.5536 23.4717 12.9676 23.9273 16.0072H25.8857C25.4233 11.8796 22.1389 8.59517 18.0181 8.13957ZM10.0689 18.0404H8.11053C8.56613 22.1612 11.8573 25.4456 15.9781 25.908V23.9496C12.9385 23.494 10.5245 21.08 10.0689 18.0404ZM19.8065 18.0404C19.3917 19.2032 18.2697 20.0396 16.9777 20.0396C15.6857 20.0396 14.5637 19.21 14.1489 18.0404H12.1089C12.5645 20.2844 14.5637 21.9912 16.9777 21.9912C19.3917 21.9912 21.3909 20.2844 21.8465 18.0404H19.8065ZM16.9777 12.0496C14.6045 12.0496 12.5645 13.7564 12.1089 16.0004H14.1489C14.5637 14.8376 15.6857 14.0012 16.9777 14.0012C18.2697 14.0012 19.3917 14.8308 19.8065 16.0004H21.8465C21.3909 13.7564 19.3917 12.0496 16.9777 12.0496Z" fill="white"/>
</svg>
