<svg version="1.2" xmlns="http://www.w3.org/2000/svg" viewBox="0 0 32 32" width="40" height="40">
	<title>Token=PPUSD-svg</title>
	<defs>
		<clipPath clipPathUnits="userSpaceOnUse" id="cp1">
			<path d="m0 0h32v32h-32z"/>
		</clipPath>
		<clipPath clipPathUnits="userSpaceOnUse" id="cp2">
			<path d="m28.54-14.21l17.26 33.13-52.43 29.31-17.26-33.1z"/>
		</clipPath>
	</defs>
	<style>
		.s0 { fill: #7c1aff } 
		.s1 { fill: none;stroke: #935ff9;stroke-width: .4 } 
		.s2 { fill: #ffffff } 
	</style>
	<g id="Clip-Path" clip-path="url(#cp1)">
		<g id="Layer">
			<g id="Clip-Path" clip-path="url(#cp2)">
				<g id="Layer">
					<path id="Layer" class="s0" d="m17.5 1l14 14c0.5 0.5 0.5 1.3 0 1.8l-14 14c-0.9 0.9-2.3 0.9-3.2 0l-14-14c-0.5-0.5-0.5-1.3 0-1.8l14-14c0.9-0.9 2.3-0.9 3.2 0q0 0 0 0z"/>
					<path id="Layer" class="s1" d="m17.5 1l14 14c0.5 0.5 0.5 1.3 0 1.8l-14 14c-0.9 0.9-2.3 0.9-3.2 0l-14-14c-0.5-0.5-0.5-1.3 0-1.8l14-14c0.9-0.9 2.3-0.9 3.2 0zm0 0q0 0 0 0z"/>
					<path id="Layer" fill-rule="evenodd" class="s2" d="m16.7 22.4v1.5h-1.2v-1.5c-2.5-0.1-4.1-1.6-4.2-3.9h1.8c0.2 1.4 1 2.3 2.4 2.5v-5c-2.3-0.7-3.7-1.7-3.7-3.9 0-2.3 1.6-3.6 3.7-3.8v-1.6h1.2v1.6c2.3 0.1 3.6 1.8 3.8 3.8h-1.8c-0.1-1.3-0.7-2.3-2-2.5v4.7c2.9 1 4 2.2 4 4.3 0 2.2-1.8 3.6-4 3.8zm-1.1-8.3v-4.5c-1.2 0.2-2 1-2 2.2 0 1.3 0.6 1.9 2 2.3zm1.1 7c1.3-0.2 2.1-0.9 2.1-2.3 0-1.2-0.5-2.1-2.1-2.6z"/>
				</g>
			</g>
		</g>
	</g>
</svg>