<svg viewBox="0 0 27 20" fill="none" xmlns="http://www.w3.org/2000/svg">
<path d="M23.0503 0.000356144L21.6095 1.49866C23.6892 3.69429 24.9773 6.7265 24.9773 10.0707C24.9773 13.4149 23.7435 16.3178 21.741 18.5013L23.1818 20C25.544 17.4304 27 13.9267 27 10.0707C27 6.21472 25.4897 2.58205 23.0503 0.000356144ZM3.94966 0C1.51028 2.58169 0 6.14349 0 10.0707C0 13.9979 1.45601 17.4304 3.81818 20L5.25902 18.5017C3.25655 16.3178 2.0227 13.3437 2.0227 10.0707C2.0227 6.79773 3.31082 3.69429 5.39049 1.4983L3.94966 0ZM20.316 2.84381L18.8745 4.34282C20.2718 5.80551 21.1382 7.8334 21.1382 10.0707C21.1382 12.308 20.3261 14.2066 19.006 15.6575L20.4475 17.1562C22.1266 15.3196 23.1609 12.8205 23.1609 10.0707C23.1609 7.3209 22.0724 4.69291 20.316 2.84381ZM6.68435 2.84417C4.92763 4.69291 3.83942 7.25003 3.83942 10.0707C3.83942 12.8914 4.87369 15.3196 6.55287 17.1562L7.99404 15.6575C6.67423 14.2066 5.86212 12.2368 5.86212 10.0707C5.86212 7.90462 6.72851 5.80551 8.12552 4.34282L6.68435 2.84417ZM17.581 5.68798L16.1391 7.18735C16.8538 7.91673 17.2988 8.93994 17.2988 10.0707C17.2988 11.1299 16.9081 12.095 16.2709 12.813L17.7124 14.3124C18.709 13.2087 19.3215 11.7139 19.3215 10.0707C19.3215 8.42744 18.6547 6.80414 17.581 5.68798ZM7.6785 10.0707C7.6785 11.7139 8.29104 13.2087 9.28756 14.3124L10.7294 12.813C10.0919 12.095 9.7012 11.1299 9.7012 10.0707C9.7012 8.93994 10.1462 7.91709 10.8609 7.18735L9.41904 5.68798C8.34532 6.80414 7.6785 8.35622 7.6785 10.0707ZM13.5002 7.97657C14.5948 7.97657 15.4824 8.91394 15.4824 10.0707C15.4824 11.2275 14.5951 12.1648 13.5002 12.1648C12.4052 12.1648 11.5179 11.2275 11.5179 10.0707C11.5179 8.91394 12.4052 7.97657 13.5002 7.97657Z" fill="#098200"/>
</svg>
