<svg width="211" height="20" viewBox="0 0 211 20" fill="none" xmlns="http://www.w3.org/2000/svg">
<path d="M36.8807 0L19.5547 10L36.8807 20V17.3768L24.1094 10L36.8807 2.62428V0Z" fill="#1B65EA"/>
<path d="M19.6055 0H17.3281V20H19.6055V0Z" fill="#1B65EA"/>
<path d="M0 0V2.62428L12.7724 10L0 17.3768V20L17.327 10L0 0Z" fill="#1B65EA"/>
<path d="M80.3945 6.38666V15.495H82.6232V8.46516H85.3459V6.38666H80.3945Z" fill="#1B65EA"/>
<path d="M54.505 6.38666H49.5547V15.495H51.7823V8.46516H54.505V6.38666Z" fill="#1B65EA"/>
<path d="M46.7834 4.30716H41.832V6.3867H44.5547V15.495H46.7834V6.3867H49.5547V4.30716H46.7834Z" fill="#1B65EA"/>
<path d="M67.376 8.11928C67.9207 8.06957 68.4654 8.31708 68.7616 8.81211C68.9097 9.05963 69.0091 9.35685 69.0091 9.65408H71.1373C71.0876 8.96124 70.8401 8.26841 70.4445 7.67396C69.702 6.78332 68.5638 6.23858 67.3749 6.28829C66.1871 6.28829 65.0479 6.78332 64.2567 7.72367C62.9197 9.70379 62.9197 12.2784 64.2567 14.3082C65.0489 15.1988 66.1871 15.7436 67.3749 15.7436C68.5628 15.7436 69.702 15.2485 70.4445 14.3579C70.8898 13.8131 71.1373 13.1203 71.1373 12.3778H69.0091C69.0091 12.675 68.9097 12.9722 68.7616 13.2197C68.4644 13.6651 67.9197 13.9126 67.376 13.9126C66.8809 13.9126 66.3859 13.7148 66.039 13.3181C65.5439 12.675 65.3461 11.833 65.4445 11.0408C65.3451 10.2485 65.5926 9.4076 66.039 8.76344C66.3859 8.31812 66.8809 8.12031 67.376 8.12031" fill="#1B65EA"/>
<path d="M73.6632 10.0994C73.6632 9.60436 73.8113 9.10933 74.1085 8.71372C74.4555 8.2684 75.0489 7.97118 75.5936 8.02089C76.0886 7.97118 76.5837 8.16898 76.9793 8.56563C77.3749 9.01095 77.5737 9.55569 77.5737 10.1501L73.6632 10.1004V10.0994ZM75.693 6.28725C74.6036 6.28725 73.6135 6.68286 72.8223 7.4254C71.9316 8.41546 71.4853 9.70274 71.535 11.0387C71.4853 12.3757 71.9803 13.6619 72.9207 14.652C73.6632 15.3945 74.703 15.7902 75.7914 15.7415C76.9296 15.7912 78.0688 15.3459 78.8113 14.4542C79.2069 13.9592 79.4544 13.4144 79.5538 12.821H77.4743C77.4246 13.1182 77.2765 13.3658 77.029 13.5636C76.682 13.9105 76.187 14.0586 75.692 14.0089C75.197 14.0089 74.7019 13.8111 74.355 13.4144C73.9097 12.9194 73.6622 12.2763 73.7119 11.6321H79.7516V11.0377C79.8511 9.94819 79.5538 8.81004 78.9594 7.9194C78.2168 6.82992 76.9793 6.23651 75.692 6.28622" fill="#1B65EA"/>
<path d="M60.1481 11.8817C60.1481 13.2187 59.2078 13.9612 57.8708 13.9612C57.2276 14.011 56.6332 13.5159 56.5835 12.8718V12.8221C56.6332 12.1789 57.2266 11.6342 57.8708 11.6839L60.1481 11.4861V11.8817ZM62.2763 12.4264V9.90159C62.326 9.30714 62.2266 8.66402 62.0288 8.06957C61.5338 6.73258 60.1968 6.23755 58.663 6.23755C56.6332 6.23755 55.0497 7.12819 54.9503 9.15801H57.0298C57.0795 8.31605 57.673 7.87073 58.663 7.87073C59.9006 7.87073 60.1978 8.46518 60.1978 9.30611V9.90056L57.5746 10.0984C55.842 10.2465 54.5547 11.1878 54.5547 12.9204C54.5547 14.4055 55.6928 15.7425 57.8221 15.7425C58.9116 15.7922 59.9503 15.2972 60.5447 14.4055V15.6431H63.1193V14.0586H62.3271L62.2773 12.4254L62.2763 12.4264Z" fill="#1B65EA"/>
<path d="M97.8713 9.73384C97.2157 10.3894 96.2153 10.7519 94.87 10.7519H91.8512V15.495H90.3164V3.26636H94.8524C96.2837 3.26636 97.3017 3.663 97.9573 4.37033C98.5434 5.00828 98.8883 5.88856 98.8883 6.95733C98.8883 8.14726 98.5258 9.07932 97.8703 9.73384H97.8713ZM94.8183 4.66238H91.8512V9.35376H94.8348C96.4732 9.35376 97.3017 8.59465 97.3017 6.95629C97.3017 5.40389 96.3355 4.66238 94.8183 4.66238Z" fill="#1B65EA"/>
<path d="M107.166 11.6146H100.992C100.992 12.4078 101.303 13.2705 101.837 13.8049C102.234 14.2015 102.768 14.4263 103.441 14.4263C104.114 14.4263 104.7 14.2368 105.063 13.8567C105.304 13.6154 105.46 13.3741 105.581 12.908H107.012C106.891 13.7707 106.374 14.5816 105.667 15.0642C105.045 15.4785 104.27 15.7198 103.441 15.7198C102.216 15.7198 101.217 15.202 100.543 14.4087C99.8185 13.5636 99.457 12.4078 99.457 11.1661C99.457 10.1139 99.6466 9.1829 100.13 8.37201C100.752 7.31981 101.907 6.54413 103.425 6.54413C104.546 6.54413 105.443 6.97495 106.081 7.66571C106.788 8.44243 107.202 9.56298 107.185 10.7363L107.167 11.6156L107.166 11.6146ZM105.148 8.57913C104.785 8.09653 104.199 7.78584 103.423 7.78584C101.837 7.78584 101.06 9.07934 101.026 10.3563H105.683C105.683 9.70071 105.494 9.04516 105.149 8.58017L105.148 8.57913Z" fill="#1B65EA"/>
<path d="M112.687 8.1307C111.997 8.1307 111.428 8.44139 111.031 8.82042C110.324 9.49358 110.238 10.7001 110.238 11.6145V15.495H108.789V6.76782H110.083L110.204 8.30261C110.652 7.23281 111.704 6.71603 112.808 6.71603C113.033 6.71603 113.274 6.73364 113.498 6.76782V8.19905C113.239 8.14727 112.946 8.12966 112.687 8.12966V8.1307Z" fill="#1B65EA"/>
<path d="M121.036 14.8571C120.466 15.3915 119.656 15.7363 118.638 15.7363C117.69 15.7363 116.568 15.2879 116.103 14.4946V19.2378H114.637V6.78439H115.93L116.034 7.92255C116.534 7.0433 117.656 6.55966 118.638 6.55966C119.708 6.55966 120.536 6.92213 121.105 7.5083C121.933 8.35337 122.365 9.68104 122.365 11.1309C122.365 12.5808 121.916 14.011 121.037 14.8561L121.036 14.8571ZM118.397 7.80241C117.759 7.80241 117.327 8.06132 116.982 8.37201C116.257 9.00995 116.016 10.0621 116.016 11.1485C116.016 12.2349 116.257 13.2871 116.982 13.925C117.327 14.2357 117.759 14.4946 118.397 14.4946C120.346 14.4946 120.864 12.7527 120.864 11.1485C120.864 9.54434 120.346 7.80241 118.397 7.80241Z" fill="#1B65EA"/>
<path d="M131.057 11.6146H124.882C124.882 12.4078 125.193 13.2705 125.728 13.8049C126.124 14.2015 126.659 14.4263 127.332 14.4263C128.005 14.4263 128.591 14.2368 128.953 13.8567C129.195 13.6154 129.35 13.3741 129.471 12.908H130.903C130.781 13.7707 130.265 14.5816 129.557 15.0642C128.936 15.4785 128.16 15.7198 127.332 15.7198C126.107 15.7198 125.107 15.202 124.434 14.4087C123.709 13.5636 123.348 12.4078 123.348 11.1661C123.348 10.1139 123.537 9.1829 124.021 8.37201C124.642 7.31981 125.798 6.54413 127.315 6.54413C128.437 6.54413 129.334 6.97495 129.972 7.66571C130.679 8.44243 131.093 9.56298 131.075 10.7363L131.058 11.6156L131.057 11.6146ZM129.038 8.57913C128.676 8.09653 128.09 7.78584 127.314 7.78584C125.728 7.78584 124.951 9.07934 124.917 10.3563H129.574C129.574 9.70071 129.384 9.04516 129.039 8.58017L129.038 8.57913Z" fill="#1B65EA"/>
<path d="M135.713 15.6162C133.833 15.6162 133.315 14.4263 133.315 13.2529V8.02713H131.625V6.76781H133.315V4.54225L134.782 4.19739V6.76781H137.369V8.02713H134.782V13.081C134.782 13.9261 135.144 14.2709 135.955 14.2709C136.576 14.2709 137.456 14.1156 137.456 14.1156V15.3749C137.059 15.4785 136.525 15.6162 135.714 15.6162H135.713Z" fill="#1B65EA"/>
<path d="M144.356 15.495L144.235 14.1674C143.786 15.1678 142.665 15.7022 141.648 15.7022C139.664 15.7022 138.664 14.5122 138.664 12.4938V6.76782H140.131V12.2877C140.131 13.5988 140.613 14.3745 141.994 14.3745C142.58 14.3745 143.063 14.1156 143.442 13.7189C143.994 13.1493 144.167 12.2007 144.167 11.3039V6.76782H145.634V15.495H144.358H144.356Z" fill="#1B65EA"/>
<path d="M154.325 15.6162C153.548 15.6162 153.066 15.03 153.066 14.2885H153.032C152.532 15.1678 151.445 15.7198 150.22 15.7198C148.219 15.7198 147.219 14.3745 147.219 13.0292C147.219 11.9076 147.944 10.4422 150.324 10.3035L152.98 10.1481V9.51016C152.98 9.07934 152.928 8.54392 152.532 8.18249C152.238 7.90701 151.807 7.73407 151.1 7.73407C150.307 7.73407 149.807 7.9588 149.514 8.25188C149.237 8.52735 149.083 8.87325 149.083 9.30407H147.652C147.669 8.51078 147.962 7.94119 148.411 7.47619C148.997 6.85482 150.033 6.54517 151.101 6.54517C152.791 6.54517 153.758 7.2701 154.172 8.21874C154.345 8.61538 154.431 9.06381 154.431 9.56402V13.7894C154.431 14.2554 154.62 14.3755 154.913 14.3755C155.069 14.3755 155.292 14.3237 155.292 14.3237V15.4101C154.982 15.5655 154.689 15.6172 154.326 15.6172L154.325 15.6162ZM152.98 11.2873L150.634 11.425C149.755 11.4768 148.719 11.8911 148.719 12.995C148.719 13.7707 149.202 14.4957 150.445 14.4957C151.118 14.4957 151.772 14.2709 152.238 13.7883C152.756 13.2539 152.98 12.529 152.98 11.8051V11.2873Z" fill="#1B65EA"/>
<path d="M158.535 15.5986C157.259 15.5986 156.707 14.8395 156.707 13.46V3.04163H158.173V13.373C158.173 13.9592 158.363 14.2699 158.967 14.2699C159.449 14.2699 159.571 14.2523 159.571 14.2523V15.494C159.571 15.494 159.243 15.5975 158.536 15.5975L158.535 15.5986Z" fill="#1B65EA"/>
<path d="M171.467 14.4946C170.622 15.3231 169.311 15.7198 168 15.7198C166.517 15.7198 165.326 15.3055 164.499 14.5464C163.723 13.8215 163.188 12.7703 163.188 11.6145H164.792C164.792 12.3395 165.154 13.0634 165.654 13.546C166.206 14.0804 167.137 14.3051 168 14.3051C168.931 14.3051 169.725 14.1156 170.276 13.5978C170.655 13.2529 170.898 12.821 170.898 12.1665C170.898 11.2179 170.294 10.4246 168.845 10.1999L166.914 9.90679C165.086 9.63028 163.654 8.61329 163.654 6.66424C163.654 5.74979 164.068 4.87054 164.723 4.24916C165.568 3.45588 166.655 3.04163 167.932 3.04163C169.122 3.04163 170.295 3.43827 171.106 4.21499C171.847 4.92232 172.244 5.80157 172.279 6.83719H170.675C170.641 6.23342 170.416 5.69904 170.071 5.3024C169.605 4.76801 168.864 4.45733 167.915 4.45733C167.036 4.45733 166.277 4.69863 165.742 5.3024C165.432 5.66486 165.242 6.07808 165.242 6.63007C165.242 7.73405 166.157 8.23425 167.07 8.35438C167.76 8.44034 168.433 8.56151 169.105 8.66507C171.14 8.95815 172.503 10.1999 172.503 12.1323C172.503 13.1504 172.072 13.9095 171.468 14.4956L171.467 14.4946Z" fill="#1B65EA"/>
<path d="M182.904 15.495H181.49L179.213 8.82043L176.885 15.495H175.488L173.246 6.76782H174.695L176.368 13.3565L178.593 6.87138H179.852L182.043 13.3565L183.733 6.76782H185.164L182.904 15.495Z" fill="#1B65EA"/>
<path d="M192.735 15.6162C191.96 15.6162 191.476 15.03 191.476 14.2885H191.442C190.942 15.1678 189.855 15.7198 188.63 15.7198C186.629 15.7198 185.629 14.3745 185.629 13.0292C185.629 11.9076 186.354 10.4422 188.734 10.3035L191.39 10.1481V9.51016C191.39 9.07934 191.338 8.54392 190.942 8.18249C190.649 7.90701 190.217 7.73407 189.51 7.73407C188.717 7.73407 188.217 7.9588 187.924 8.25188C187.647 8.52735 187.493 8.87325 187.493 9.30407H186.062C186.079 8.51078 186.372 7.94119 186.821 7.47619C187.407 6.85482 188.443 6.54517 189.511 6.54517C191.202 6.54517 192.168 7.2701 192.582 8.21874C192.755 8.61538 192.841 9.06381 192.841 9.56402V13.7894C192.841 14.2554 193.031 14.3755 193.324 14.3755C193.479 14.3755 193.703 14.3237 193.703 14.3237V15.4101C193.392 15.5655 193.099 15.6172 192.736 15.6172L192.735 15.6162ZM191.39 11.2873L189.044 11.425C188.165 11.4768 187.13 11.8911 187.13 12.995C187.13 13.7707 187.612 14.4957 188.855 14.4957C189.528 14.4957 190.183 14.2709 190.649 13.7883C191.166 13.2539 191.39 12.529 191.39 11.8051V11.2873Z" fill="#1B65EA"/>
<path d="M201.395 14.8571C200.826 15.3915 200.016 15.7363 198.998 15.7363C198.049 15.7363 196.928 15.2879 196.463 14.4946V19.2378H194.996V6.78439H196.29L196.393 7.92255C196.893 7.0433 198.015 6.55966 198.998 6.55966C200.068 6.55966 200.895 6.92213 201.465 7.5083C202.292 8.35337 202.724 9.68104 202.724 11.1309C202.724 12.5808 202.276 14.011 201.396 14.8561L201.395 14.8571ZM198.756 7.80241C198.119 7.80241 197.687 8.06132 197.342 8.37201C196.617 9.00995 196.376 10.0621 196.376 11.1485C196.376 12.2349 196.617 13.2871 197.342 13.925C197.687 14.2357 198.119 14.4946 198.756 14.4946C200.706 14.4946 201.223 12.7527 201.223 11.1485C201.223 9.54434 200.706 7.80241 198.756 7.80241Z" fill="#1B65EA"/>
<path d="M210.09 14.7359C209.416 15.4257 208.382 15.7187 207.244 15.7187C206.106 15.7187 205.157 15.4598 204.415 14.7359C203.881 14.2181 203.57 13.4766 203.57 12.7351H205.037C205.054 13.3389 205.33 13.7873 205.744 14.098C206.141 14.3911 206.762 14.4946 207.314 14.4946C207.918 14.4946 208.47 14.3911 208.918 14.012C209.16 13.8225 209.349 13.46 209.349 13.0634C209.349 12.4078 208.883 11.9418 207.986 11.8217C207.607 11.7699 206.623 11.6487 206.02 11.5628C204.708 11.3556 203.881 10.5447 203.881 9.21708C203.881 8.54392 204.209 7.90597 204.606 7.50933C205.176 6.92317 206.089 6.54309 207.176 6.54309C208.332 6.54309 209.367 6.90556 209.953 7.64707C210.332 8.1131 210.574 8.61331 210.574 9.32064H209.108C209.09 8.87221 208.866 8.45796 208.608 8.23427C208.245 7.90701 207.763 7.76824 207.176 7.76824C206.831 7.76824 206.573 7.76824 206.158 7.94119C205.606 8.16592 205.279 8.63091 205.279 9.11455C205.279 9.83949 205.728 10.1491 206.452 10.2527C206.935 10.3221 207.626 10.3904 208.557 10.5458C209.799 10.7529 210.782 11.6498 210.782 12.9609C210.782 13.72 210.506 14.3061 210.093 14.737L210.09 14.7359Z" fill="#1B65EA"/>
</svg>
