<svg width="208" height="21" viewBox="0 0 208 21" fill="none" xmlns="http://www.w3.org/2000/svg">
<path d="M35.0501 16.4946V6.222L31.328 16.3341H30.161L26.4389 6.1578V16.5267H25.0195V4.32799H27.1644L30.7603 14.2475L34.3877 4.32799H36.501V16.4946H35.0501ZM45.8061 7.8271H44.292L41.8948 14.6648L39.3714 7.8271H37.7627L41.1693 16.5267L40.6331 17.9713C40.3807 18.6134 39.9707 18.8381 39.3398 18.8381C38.7721 18.8381 38.3305 18.7097 38.3305 18.7097V19.9938C38.4567 20.0259 38.9298 20.1543 39.6237 20.1543C40.917 20.1543 41.5163 19.4159 41.9263 18.2923L45.8061 7.8271ZM52.43 15.7884C52.9978 15.2106 53.3447 14.5043 53.4394 13.6055H51.9884C51.9253 14.1833 51.7045 14.5685 51.4206 14.8895C51.0737 15.2427 50.569 15.4674 49.9697 15.4674C49.3073 15.4674 48.8657 15.2427 48.4872 14.8895C47.8248 14.3117 47.6355 13.2202 47.6355 12.1609C47.6355 11.1015 47.8248 10.01 48.4872 9.4322C48.8657 9.11118 49.3073 8.85437 49.9697 8.85437C50.5374 8.85437 51.0106 9.04698 51.3576 9.4001C51.673 9.72112 51.8938 10.1705 51.9569 10.7484H53.4078C53.3447 9.81743 52.9662 9.07908 52.3985 8.50124C51.7992 7.92341 50.979 7.57029 49.9697 7.57029C48.4241 7.57029 47.4778 8.27653 46.8785 9.20749C46.4369 9.88163 46.1846 10.8447 46.1846 12.1288C46.1846 13.4449 46.4369 14.3759 46.8785 15.05C47.4778 15.9489 48.4556 16.6873 50.0012 16.6873C51.0106 16.7194 51.8307 16.3983 52.43 15.7884ZM61.8928 11.7756C61.9243 10.62 61.5143 9.49641 60.8203 8.72596C60.1895 8.05182 59.3063 7.60239 58.2338 7.60239C56.7513 7.60239 55.6158 8.37284 55.0165 9.4322C54.5433 10.2348 54.3541 11.1657 54.3541 12.2251C54.3541 13.4771 54.7011 14.6006 55.4265 15.4674C56.0889 16.2699 57.0668 16.7836 58.2654 16.7836C59.0855 16.7836 59.8425 16.5588 60.4418 16.1415C61.1357 15.66 61.6404 14.8574 61.7666 13.9907H60.3787C60.2525 14.4401 60.0948 14.6969 59.874 14.9216C59.5271 15.3069 58.9593 15.4995 58.2969 15.4995C57.6345 15.4995 57.1298 15.2748 56.7198 14.8895C56.1836 14.3438 55.8997 13.5092 55.8997 12.7066H61.9243L61.8928 11.7756ZM59.9056 9.62481C60.2525 10.0742 60.4418 10.7484 60.4418 11.3904H55.8997C55.9312 10.1063 56.6882 8.82226 58.2338 8.82226C58.9909 8.82226 59.5586 9.14328 59.9056 9.62481ZM65.3624 16.5909C66.0564 16.5909 66.3718 16.4946 66.3718 16.4946V15.2427C66.3718 15.2427 66.2456 15.2748 65.7725 15.2748C65.1732 15.2748 64.9839 14.9537 64.9839 14.3759V4.10327H63.5645V14.4722C63.5961 15.8526 64.1323 16.5909 65.3624 16.5909ZM67.7597 5.83678H69.4314V4.10327H67.7597V5.83678ZM67.8858 16.4946H69.3683V7.8271H67.8858V16.4946ZM78.1372 16.4946V7.8271H76.7178V12.3535C76.7178 13.2523 76.56 14.1833 76.0238 14.7611C75.6453 15.1464 75.1722 15.4032 74.6044 15.4032C73.2481 15.4032 72.7749 14.6327 72.7749 13.3165V7.8271H71.3555V13.5413C71.3555 15.5637 72.3333 16.7515 74.289 16.7515C75.2983 16.7515 76.3708 16.2057 76.8124 15.2106L76.9386 16.5267H78.1372V16.4946ZM92.3313 16.4946V10.7805C92.3313 8.85437 91.4166 7.57029 89.4925 7.57029C88.42 7.57029 87.3161 8.14812 86.8745 9.20749C86.4959 8.14812 85.5812 7.57029 84.3195 7.57029C83.3732 7.57029 82.3639 8.05182 81.9223 9.01487L81.7961 7.7629H80.5344V16.4625H81.9538V11.872C81.9538 11.1657 82.1115 10.2348 82.5216 9.68902C82.8686 9.23959 83.3732 8.91857 83.9725 8.91857C85.3289 8.91857 85.7074 9.75322 85.7074 10.9731V16.4946H87.1268V11.872C87.1268 10.9731 87.2845 10.0742 87.8523 9.4964C88.1992 9.14328 88.6093 8.91857 89.1455 8.91857C90.5019 8.91857 90.8804 9.75322 90.8804 10.9731V16.4946H92.3313Z" fill="white"/>
<path d="M1.50994 11.1206H0.0625C0.278076 14.1084 1.8795 16.7228 4.18924 18.3412L4.92836 17.0651C3.01897 15.7268 1.72551 13.5793 1.50994 11.1206ZM17.6781 11.1206C17.4626 13.5793 16.1691 15.7268 14.2905 17.0651L15.0296 18.3412C17.3394 16.7228 18.91 14.1084 19.1564 11.1206H17.6781ZM15.0296 2.40611L14.2905 3.65104C16.1691 4.98933 17.4626 7.13683 17.6781 9.59556H19.1564C18.91 6.60774 17.3394 3.99339 15.0296 2.40611ZM4.18924 2.40611C1.8487 3.99339 0.278076 6.60774 0.0625 9.59556H1.50994C1.72551 7.13683 3.01897 4.98933 4.89756 3.65104L4.18924 2.40611ZM9.60943 0.694336C8.1312 0.694336 6.74535 1.03669 5.48269 1.62803L6.22181 2.90408C7.2689 2.40611 8.40837 2.15712 9.60943 2.15712C10.8105 2.15712 11.9808 2.43723 12.9971 2.90408L13.7362 1.62803C12.4735 1.03669 11.0569 0.694336 9.60943 0.694336ZM12.9971 17.8121C11.95 18.31 10.8105 18.559 9.60943 18.559C8.40837 18.559 7.2381 18.2789 6.22181 17.8121L5.48269 19.0881C6.74535 19.7106 8.1312 20.0218 9.60943 20.0218C11.0877 20.0218 12.4735 19.6795 13.7362 19.0881L12.9971 17.8121ZM3.01897 9.59556H4.46641C4.80517 7.32357 6.59137 5.51843 8.83952 5.20719V3.74441C5.79066 4.05564 3.35773 6.51437 3.01897 9.59556ZM14.7217 11.1206C14.3829 13.3926 12.5967 15.1977 10.3486 15.5401V17.0029C13.3974 16.6605 15.8303 14.2018 16.1691 11.1206H14.7217ZM10.3486 3.71328V5.20719C12.5967 5.54955 14.3829 7.35469 14.7217 9.62668H16.1691C15.8303 6.51437 13.3974 4.05564 10.3486 3.71328ZM4.46641 11.1206H3.01897C3.35773 14.2018 5.79066 16.6605 8.83952 17.0029V15.5401C6.59137 15.1977 4.80517 13.3926 4.46641 11.1206ZM11.7036 11.1206C11.3956 11.992 10.5641 12.6145 9.60943 12.6145C8.65474 12.6145 7.82323 11.992 7.51527 11.1206H6.00624C6.345 12.8012 7.82323 14.0773 9.60943 14.0773C11.3956 14.0773 12.8739 12.8012 13.2126 11.1206H11.7036ZM9.60943 6.63886C7.85403 6.63886 6.345 7.91491 6.00624 9.59556H7.51527C7.82323 8.72411 8.65474 8.10165 9.60943 8.10165C10.5641 8.10165 11.3956 8.72411 11.7036 9.59556H13.2126C12.8431 7.91491 11.3648 6.63886 9.60943 6.63886Z" fill="white"/>
<path d="M104.722 10.7336C104.073 11.3891 103.083 11.7516 101.752 11.7516H98.7648V16.4948H97.2461V4.26611H101.735C103.151 4.26611 104.158 4.66276 104.807 5.37009C105.387 6.00803 105.728 6.88832 105.728 7.95708C105.728 9.14702 105.369 10.0791 104.721 10.7336H104.722ZM101.701 5.66214H98.7648V10.3535H101.717C103.338 10.3535 104.158 9.59441 104.158 7.95605C104.158 6.40364 103.202 5.66214 101.701 5.66214Z" fill="white"/>
<path d="M113.921 12.6144H107.812C107.812 13.4077 108.119 14.2703 108.648 14.8047C109.04 15.2014 109.569 15.4261 110.235 15.4261C110.901 15.4261 111.481 15.2366 111.84 14.8565C112.079 14.6152 112.232 14.3739 112.352 13.9079H113.769C113.649 14.7705 113.137 15.5814 112.437 16.064C111.823 16.4783 111.055 16.7196 110.235 16.7196C109.023 16.7196 108.034 16.2018 107.368 15.4085C106.651 14.5634 106.293 13.4077 106.293 12.1659C106.293 11.1137 106.48 10.1827 106.959 9.37182C107.574 8.31963 108.718 7.54395 110.219 7.54395C111.329 7.54395 112.216 7.97477 112.847 8.66553C113.547 9.44225 113.957 10.5628 113.94 11.7362L113.922 12.6154L113.921 12.6144ZM111.924 9.57895C111.565 9.09635 110.985 8.78566 110.218 8.78566C108.648 8.78566 107.879 10.0792 107.845 11.3561H112.454C112.454 10.7005 112.266 10.045 111.925 9.57999L111.924 9.57895Z" fill="white"/>
<path d="M119.385 9.13048C118.702 9.13048 118.138 9.44117 117.746 9.82021C117.046 10.4934 116.961 11.6999 116.961 12.6143V16.4948H115.527V7.7676H116.807L116.927 9.3024C117.371 8.2326 118.412 7.71582 119.504 7.71582C119.727 7.71582 119.966 7.73343 120.187 7.7676V9.19883C119.931 9.14705 119.641 9.12945 119.385 9.12945V9.13048Z" fill="white"/>
<path d="M127.641 15.857C127.077 16.3914 126.276 16.7362 125.268 16.7362C124.33 16.7362 123.22 16.2878 122.76 15.4945V20.2377H121.309V7.7843H122.589L122.691 8.92245C123.186 8.04321 124.296 7.55957 125.268 7.55957C126.327 7.55957 127.146 7.92204 127.709 8.5082C128.528 9.35327 128.955 10.6809 128.955 12.1308C128.955 13.5807 128.512 15.0109 127.642 15.856L127.641 15.857ZM125.029 8.80232C124.398 8.80232 123.971 9.06123 123.63 9.37192C122.912 10.0099 122.674 11.0621 122.674 12.1484C122.674 13.2348 122.912 14.287 123.63 14.9249C123.971 15.2356 124.398 15.4945 125.029 15.4945C126.958 15.4945 127.47 13.7526 127.47 12.1484C127.47 10.5442 126.958 8.80232 125.029 8.80232Z" fill="white"/>
<path d="M137.558 12.6144H131.448C131.448 13.4077 131.756 14.2703 132.285 14.8047C132.677 15.2014 133.206 15.4261 133.872 15.4261C134.538 15.4261 135.118 15.2366 135.477 14.8565C135.715 14.6152 135.869 14.3739 135.989 13.9079H137.405C137.285 14.7705 136.774 15.5814 136.074 16.064C135.459 16.4783 134.692 16.7196 133.872 16.7196C132.66 16.7196 131.671 16.2018 131.005 15.4085C130.287 14.5634 129.93 13.4077 129.93 12.1659C129.93 11.1137 130.117 10.1827 130.596 9.37182C131.211 8.31963 132.354 7.54395 133.856 7.54395C134.965 7.54395 135.853 7.97477 136.484 8.66553C137.184 9.44225 137.594 10.5628 137.576 11.7362L137.559 12.6154L137.558 12.6144ZM135.561 9.57895C135.202 9.09635 134.622 8.78566 133.855 8.78566C132.285 8.78566 131.516 10.0792 131.482 11.3561H136.091C136.091 10.7005 135.903 10.045 135.562 9.57999L135.561 9.57895Z" fill="white"/>
<path d="M142.166 16.6161C140.306 16.6161 139.794 15.4261 139.794 14.2528V9.02701H138.121V7.76769H139.794V5.54213L141.245 5.19727V7.76769H143.804V9.02701H141.245V14.0809C141.245 14.9259 141.603 15.2708 142.406 15.2708C143.02 15.2708 143.891 15.1154 143.891 15.1154V16.3748C143.498 16.4783 142.969 16.6161 142.167 16.6161H142.166Z" fill="white"/>
<path d="M150.718 16.4948L150.598 15.1671C150.154 16.1675 149.045 16.7019 148.038 16.7019C146.076 16.7019 145.086 15.512 145.086 13.4936V7.76758H146.537V13.2875C146.537 14.5986 147.015 15.3742 148.381 15.3742C148.961 15.3742 149.439 15.1153 149.814 14.7187C150.36 14.1491 150.531 13.2005 150.531 12.3036V7.76758H151.983V16.4948H150.72H150.718Z" fill="white"/>
<path d="M160.583 16.616C159.814 16.616 159.337 16.0298 159.337 15.2883H159.303C158.808 16.1675 157.733 16.7195 156.521 16.7195C154.541 16.7195 153.551 15.3743 153.551 14.029C153.551 12.9074 154.268 11.442 156.623 11.3032L159.251 11.1479V10.5099C159.251 10.0791 159.2 9.54368 158.808 9.18225C158.518 8.90677 158.09 8.73382 157.392 8.73382C156.607 8.73382 156.112 8.95855 155.822 9.25163C155.548 9.52711 155.395 9.87301 155.395 10.3038H153.979C153.997 9.51054 154.287 8.94095 154.73 8.47595C155.31 7.85457 156.335 7.54492 157.393 7.54492C159.065 7.54492 160.021 8.26986 160.431 9.21849C160.602 9.61514 160.687 10.0636 160.687 10.5638V14.7891C160.687 15.2552 160.875 15.3753 161.165 15.3753C161.318 15.3753 161.54 15.3235 161.54 15.3235V16.4099C161.232 16.5652 160.942 16.617 160.584 16.617L160.583 16.616ZM159.251 12.2871L156.93 12.4248C156.06 12.4766 155.036 12.8908 155.036 13.9948C155.036 14.7705 155.513 15.4954 156.743 15.4954C157.409 15.4954 158.057 15.2707 158.518 14.7881C159.03 14.2537 159.251 13.5288 159.251 12.8049V12.2871Z" fill="white"/>
<path d="M164.746 16.5985C163.484 16.5985 162.938 15.8394 162.938 14.4599V4.0415H164.389V14.3729C164.389 14.9591 164.576 15.2698 165.174 15.2698C165.651 15.2698 165.771 15.2522 165.771 15.2522V16.4939C165.771 16.4939 165.447 16.5974 164.747 16.5974L164.746 16.5985Z" fill="white"/>
<path d="M177.769 10.7336C177.12 11.3891 176.13 11.7516 174.799 11.7516H171.812V16.4948H170.293V4.26611H174.781C176.198 4.26611 177.205 4.66276 177.854 5.37009C178.434 6.00803 178.775 6.88832 178.775 7.95708C178.775 9.14702 178.416 10.0791 177.768 10.7336H177.769ZM174.748 5.66214H171.812V10.3535H174.764C176.385 10.3535 177.205 9.59441 177.205 7.95605C177.205 6.40364 176.249 5.66214 174.748 5.66214Z" fill="white"/>
<path d="M185.806 15.7017C185.175 16.3231 184.288 16.7197 183.195 16.7197C182.103 16.7197 181.215 16.3231 180.584 15.7017C179.645 14.7707 179.355 13.5113 179.355 12.1308C179.355 10.7504 179.645 9.49208 180.584 8.56001C181.215 7.93864 182.103 7.54199 183.195 7.54199C184.288 7.54199 185.175 7.93864 185.806 8.56001C186.745 9.49104 187.035 10.7504 187.035 12.1308C187.035 13.5113 186.745 14.7696 185.806 15.7017ZM184.748 9.42372C184.389 9.06125 183.878 8.80235 183.194 8.80235C182.511 8.80235 181.999 9.06125 181.641 9.42372C181.026 10.0617 180.838 11.1139 180.838 12.1319C180.838 13.1499 181.026 14.2021 181.641 14.84C181.999 15.2025 182.511 15.4614 183.194 15.4614C183.878 15.4614 184.389 15.2025 184.748 14.84C185.363 14.2021 185.55 13.1499 185.55 12.1319C185.55 11.1139 185.363 10.0617 184.748 9.42372Z" fill="white"/>
<path d="M194.478 15.7017C193.847 16.3231 192.96 16.7197 191.867 16.7197C190.775 16.7197 189.887 16.3231 189.256 15.7017C188.317 14.7707 188.027 13.5113 188.027 12.1308C188.027 10.7504 188.317 9.49208 189.256 8.56001C189.887 7.93864 190.775 7.54199 191.867 7.54199C192.96 7.54199 193.847 7.93864 194.478 8.56001C195.417 9.49104 195.707 10.7504 195.707 12.1308C195.707 13.5113 195.417 14.7696 194.478 15.7017ZM193.42 9.42372C193.061 9.06125 192.55 8.80235 191.866 8.80235C191.183 8.80235 190.671 9.06125 190.313 9.42372C189.698 10.0617 189.51 11.1139 189.51 12.1319C189.51 13.1499 189.698 14.2021 190.313 14.84C190.671 15.2025 191.183 15.4614 191.866 15.4614C192.55 15.4614 193.061 15.2025 193.42 14.84C194.034 14.2021 194.222 13.1499 194.222 12.1319C194.222 11.1139 194.034 10.0617 193.42 9.42372Z" fill="white"/>
<path d="M199.121 16.5985C197.859 16.5985 197.312 15.8394 197.312 14.4599V4.0415H198.764V14.3729C198.764 14.9591 198.951 15.2698 199.549 15.2698C200.026 15.2698 200.146 15.2522 200.146 15.2522V16.4939C200.146 16.4939 199.822 16.5974 199.122 16.5974L199.121 16.5985Z" fill="white"/>
<path d="M207.193 15.7358C206.527 16.4255 205.503 16.7186 204.377 16.7186C203.251 16.7186 202.312 16.4597 201.578 15.7358C201.05 15.218 200.742 14.4765 200.742 13.735H202.193C202.211 14.3387 202.483 14.7872 202.893 15.0979C203.286 15.3909 203.9 15.4945 204.447 15.4945C205.044 15.4945 205.59 15.3909 206.034 15.0119C206.273 14.8224 206.46 14.4599 206.46 14.0633C206.46 13.4077 205.999 12.9417 205.112 12.8216C204.737 12.7698 203.763 12.6486 203.166 12.5626C201.868 12.3555 201.05 11.5446 201.05 10.217C201.05 9.5438 201.374 8.90585 201.767 8.50921C202.331 7.92304 203.234 7.54297 204.31 7.54297C205.454 7.54297 206.478 7.90544 207.058 8.64694C207.433 9.11298 207.673 9.61318 207.673 10.3205H206.222C206.204 9.87209 205.983 9.45784 205.727 9.23415C205.368 8.90689 204.89 8.76811 204.31 8.76811C203.969 8.76811 203.713 8.76811 203.303 8.94106C202.757 9.16579 202.433 9.63079 202.433 10.1144C202.433 10.8394 202.877 11.149 203.594 11.2526C204.072 11.322 204.755 11.3903 205.676 11.5457C206.905 11.7528 207.879 12.6496 207.879 13.9607C207.879 14.7199 207.605 15.306 207.196 15.7368L207.193 15.7358Z" fill="white"/>
</svg>
