<svg width="169" height="24" viewBox="0 0 169 24" fill="none" xmlns="http://www.w3.org/2000/svg">
<path d="M41.2298 12.3289C40.4295 13.134 39.2082 13.5791 37.5659 13.5791H33.8805V19.4038H32.0068V4.38672H37.5444C39.2917 4.38672 40.5345 4.87381 41.3348 5.74243C42.0503 6.52584 42.4713 7.60685 42.4713 8.91932C42.4713 10.3806 42.0288 11.5252 41.2285 12.3289H41.2298ZM37.5027 6.10107H33.8805V11.8622H37.5229C39.523 11.8622 40.5344 10.93 40.5344 8.91805C40.5344 7.01166 39.3549 6.10107 37.5027 6.10107Z" fill="white"/>
<path d="M52.5783 14.6387H45.0407C45.0407 15.6129 45.42 16.6723 46.0723 17.3285C46.5565 17.8156 47.2089 18.0916 48.0307 18.0916C48.8525 18.0916 49.5681 17.8588 50.0106 17.3921C50.3051 17.0958 50.4948 16.7995 50.6427 16.2272H52.39C52.242 17.2865 51.6112 18.2823 50.7477 18.875C49.9891 19.3837 49.0421 19.68 48.0307 19.68C46.5351 19.68 45.315 19.0441 44.4932 18.07C43.6082 17.0322 43.167 15.6129 43.167 14.088C43.167 12.7959 43.3984 11.6526 43.9888 10.6568C44.7474 9.36467 46.1583 8.41211 48.0105 8.41211C49.3797 8.41211 50.4746 8.94117 51.2534 9.78944C52.1169 10.7433 52.6226 12.1193 52.6011 13.5603L52.5796 14.64L52.5783 14.6387ZM50.1142 10.9111C49.6717 10.3185 48.9562 9.93697 48.0092 9.93697C46.0723 9.93697 45.1241 11.5254 45.0824 13.0935H50.7679C50.7679 12.2885 50.5365 11.4834 50.1155 10.9124L50.1142 10.9111Z" fill="white"/>
<path d="M59.3174 10.3603C58.4754 10.3603 57.78 10.7418 57.2958 11.2073C56.4323 12.0339 56.3273 13.5156 56.3273 14.6385V19.4039H54.5586V8.68664H56.1377L56.2856 10.5714C56.8331 9.25766 58.1176 8.62305 59.4653 8.62305C59.7397 8.62305 60.0343 8.64467 60.3074 8.68664V10.4442C59.9913 10.3806 59.6335 10.359 59.3174 10.359V10.3603Z" fill="white"/>
<path d="M69.5083 18.6201C68.813 19.2764 67.8243 19.6999 66.5815 19.6999C65.4234 19.6999 64.0542 19.1492 63.4865 18.175V23.9997H61.6963V8.70664H63.2754L63.4018 10.1043C64.0125 9.02458 65.3817 8.43066 66.5815 8.43066C67.8875 8.43066 68.8977 8.87579 69.593 9.59561C70.6032 10.6334 71.1304 12.2638 71.1304 14.0443C71.1304 15.8248 70.583 17.5811 69.5096 18.6188L69.5083 18.6201ZM66.2869 9.95679C65.5081 9.95679 64.9809 10.2747 64.5599 10.6563C63.6749 11.4397 63.3803 12.7318 63.3803 14.0659C63.3803 15.4 63.6749 16.6921 64.5599 17.4755C64.9809 17.8571 65.5081 18.175 66.2869 18.175C68.6663 18.175 69.2985 16.0359 69.2985 14.0659C69.2985 12.0959 68.6663 9.95679 66.2869 9.95679Z" fill="white"/>
<path d="M81.7424 14.6387H74.2047C74.2047 15.6129 74.584 16.6723 75.2364 17.3285C75.7206 17.8156 76.373 18.0916 77.1947 18.0916C78.0165 18.0916 78.7321 17.8588 79.1746 17.3921C79.4692 17.0958 79.6588 16.7995 79.8068 16.2272H81.554C81.4061 17.2865 80.7752 18.2823 79.9117 18.875C79.1531 19.3837 78.2062 19.68 77.1947 19.68C75.6991 19.68 74.4791 19.0441 73.6573 18.07C72.7723 17.0322 72.3311 15.6129 72.3311 14.088C72.3311 12.7959 72.5624 11.6526 73.1528 10.6568C73.9114 9.36467 75.3224 8.41211 77.1745 8.41211C78.5437 8.41211 79.6386 8.94117 80.4174 9.78944C81.2809 10.7433 81.7866 12.1193 81.7651 13.5603L81.7437 14.64L81.7424 14.6387ZM79.2783 10.9111C78.8358 10.3185 78.1202 9.93697 77.1733 9.93697C75.2364 9.93697 74.2882 11.5254 74.2464 13.0935H79.9319C79.9319 12.2885 79.7006 11.4834 79.2795 10.9124L79.2783 10.9111Z" fill="white"/>
<path d="M87.4277 19.5528C85.133 19.5528 84.5008 18.0916 84.5008 16.6507V10.2333H82.4375V8.68682H84.5008V5.95377L86.2911 5.53027V8.68682H89.4493V10.2333H86.2911V16.4395C86.2911 17.4773 86.7336 17.9008 87.7235 17.9008C88.4821 17.9008 89.5555 17.71 89.5555 17.71V19.2565C89.0712 19.3837 88.4189 19.5528 87.4289 19.5528H87.4277Z" fill="white"/>
<path d="M97.9768 19.4038L97.8289 17.7733C97.2815 19.0019 95.9123 19.6581 94.6707 19.6581C92.2496 19.6581 91.0283 18.1968 91.0283 15.7182V8.68652H92.8186V15.4651C92.8186 17.0751 93.4077 18.0277 95.093 18.0277C95.8086 18.0277 96.399 17.7098 96.8617 17.2227C97.5356 16.5232 97.7468 15.3582 97.7468 14.2569V8.68652H99.537V19.4038H97.9794H97.9768Z" fill="white"/>
<path d="M110.147 19.5526C109.199 19.5526 108.61 18.8327 108.61 17.9221H108.568C107.957 19.0019 106.631 19.6797 105.136 19.6797C102.693 19.6797 101.472 18.0277 101.472 16.3757C101.472 14.9983 102.357 13.1988 105.262 13.0284L108.505 12.8376V12.0542C108.505 11.5251 108.442 10.8676 107.957 10.4238C107.6 10.0855 107.072 9.87308 106.21 9.87308C105.242 9.87308 104.631 10.1491 104.273 10.509C103.936 10.8473 103.747 11.272 103.747 11.8011H102C102.022 10.8269 102.379 10.1274 102.927 9.55641C103.642 8.79335 104.907 8.41309 106.211 8.41309C108.275 8.41309 109.454 9.30333 109.96 10.4683C110.171 10.9554 110.276 11.506 110.276 12.1203V17.3091C110.276 17.8814 110.507 18.029 110.865 18.029C111.055 18.029 111.328 17.9654 111.328 17.9654V19.2995C110.949 19.4902 110.591 19.5538 110.148 19.5538L110.147 19.5526ZM108.505 14.2365L105.641 14.4057C104.568 14.4693 103.304 14.978 103.304 16.3337C103.304 17.2863 103.893 18.1765 105.41 18.1765C106.232 18.1765 107.031 17.9005 107.6 17.3079C108.232 16.6516 108.505 15.7614 108.505 14.8724V14.2365Z" fill="white"/>
<path d="M115.285 19.5306C113.728 19.5306 113.054 18.5984 113.054 16.9044V4.11035H114.844V16.7976C114.844 17.5174 115.075 17.8989 115.812 17.8989C116.402 17.8989 116.549 17.8773 116.549 17.8773V19.4022C116.549 19.4022 116.15 19.5293 115.286 19.5293L115.285 19.5306Z" fill="white"/>
<path d="M131.352 12.3289C130.552 13.134 129.33 13.5791 127.688 13.5791H124.003V19.4038H122.129V4.38672H127.667C129.414 4.38672 130.657 4.87381 131.457 5.74243C132.172 6.52584 132.593 7.60685 132.593 8.91932C132.593 10.3806 132.151 11.5252 131.351 12.3289H131.352ZM127.625 6.10107H124.003V11.8622H127.645C129.645 11.8622 130.657 10.93 130.657 8.91805C130.657 7.01166 129.477 6.10107 127.625 6.10107Z" fill="white"/>
<path d="M141.269 18.4295C140.49 19.1926 139.396 19.6796 138.048 19.6796C136.7 19.6796 135.605 19.1926 134.826 18.4295C133.668 17.2862 133.311 15.7397 133.311 14.0444C133.311 12.3491 133.668 10.8039 134.826 9.65933C135.605 8.89627 136.7 8.40918 138.048 8.40918C139.396 8.40918 140.49 8.89627 141.269 9.65933C142.427 10.8027 142.785 12.3491 142.785 14.0444C142.785 15.7397 142.427 17.2849 141.269 18.4295ZM139.963 10.72C139.521 10.2749 138.89 9.95693 138.047 9.95693C137.203 9.95693 136.572 10.2749 136.13 10.72C135.371 11.5034 135.14 12.7955 135.14 14.0457C135.14 15.2958 135.371 16.588 136.13 17.3714C136.572 17.8165 137.203 18.1344 138.047 18.1344C138.89 18.1344 139.521 17.8165 139.963 17.3714C140.722 16.588 140.953 15.2958 140.953 14.0457C140.953 12.7955 140.722 11.5034 139.963 10.72Z" fill="white"/>
<path d="M151.967 18.4295C151.188 19.1926 150.093 19.6796 148.745 19.6796C147.397 19.6796 146.302 19.1926 145.524 18.4295C144.366 17.2862 144.008 15.7397 144.008 14.0444C144.008 12.3491 144.366 10.8039 145.524 9.65933C146.302 8.89627 147.397 8.40918 148.745 8.40918C150.093 8.40918 151.188 8.89627 151.967 9.65933C153.125 10.8027 153.482 12.3491 153.482 14.0444C153.482 15.7397 153.125 17.2849 151.967 18.4295ZM150.661 10.72C150.218 10.2749 149.587 9.95693 148.744 9.95693C147.901 9.95693 147.27 10.2749 146.827 10.72C146.069 11.5034 145.837 12.7955 145.837 14.0457C145.837 15.2958 146.069 16.588 146.827 17.3714C147.27 17.8165 147.901 18.1344 148.744 18.1344C149.587 18.1344 150.218 17.8165 150.661 17.3714C151.419 16.588 151.65 15.2958 151.65 14.0457C151.65 12.7955 151.419 11.5034 150.661 10.72Z" fill="white"/>
<path d="M157.693 19.5306C156.136 19.5306 155.462 18.5984 155.462 16.9044V4.11035H157.252V16.7976C157.252 17.5174 157.484 17.8989 158.221 17.8989C158.81 17.8989 158.958 17.8773 158.958 17.8773V19.4022C158.958 19.4022 158.558 19.5293 157.695 19.5293L157.693 19.5306Z" fill="white"/>
<path d="M167.654 18.4712C166.832 19.3182 165.569 19.6781 164.18 19.6781C162.79 19.6781 161.632 19.3601 160.727 18.4712C160.075 17.8353 159.695 16.9247 159.695 16.0141H161.486C161.507 16.7555 161.843 17.3062 162.349 17.6877C162.833 18.0477 163.592 18.1748 164.266 18.1748C165.003 18.1748 165.677 18.0477 166.224 17.5822C166.519 17.3495 166.75 16.9043 166.75 16.4172C166.75 15.6122 166.181 15.0399 165.086 14.8924C164.624 14.8288 163.422 14.68 162.685 14.5744C161.085 14.3201 160.075 13.3243 160.075 11.6939C160.075 10.8672 160.475 10.0838 160.96 9.59672C161.655 8.8769 162.77 8.41016 164.098 8.41016C165.509 8.41016 166.772 8.85528 167.487 9.76587C167.95 10.3382 168.246 10.9524 168.246 11.8211H166.455C166.434 11.2704 166.161 10.7617 165.845 10.487C165.402 10.0851 164.813 9.91467 164.098 9.91467C163.677 9.91467 163.361 9.91467 162.855 10.1271C162.181 10.403 161.781 10.9741 161.781 11.568C161.781 12.4582 162.329 12.8385 163.214 12.9657C163.803 13.0509 164.646 13.1348 165.783 13.3256C167.299 13.5799 168.5 14.6813 168.5 16.2913C168.5 17.2236 168.162 17.9434 167.658 18.4724L167.654 18.4712Z" fill="white"/>
<path d="M2.28577 12.8037H0.5C0.765966 16.4728 2.74171 19.6833 5.59134 21.6707L6.50322 20.1037C4.14753 18.4603 2.55173 15.8231 2.28577 12.8037ZM22.2332 12.8037C21.9672 15.8231 20.3714 18.4603 18.0537 20.1037L18.9656 21.6707C21.8152 19.6833 23.753 16.4728 24.0569 12.8037H22.2332ZM18.9656 2.1021L18.0537 3.6309C20.3714 5.27436 21.9672 7.91154 22.2332 10.9309H24.0569C23.753 7.2618 21.8152 4.05132 18.9656 2.1021ZM5.59134 2.1021C2.70371 4.05132 0.765966 7.2618 0.5 10.9309H2.28577C2.55173 7.91154 4.14753 5.27436 6.46523 3.6309L5.59134 2.1021ZM12.2785 0C10.4547 0 8.74493 0.42042 7.18713 1.1466L8.09901 2.71362C9.39085 2.1021 10.7967 1.79634 12.2785 1.79634C13.7603 1.79634 15.2041 2.14032 16.4579 2.71362L17.3698 1.1466C15.812 0.42042 14.0642 0 12.2785 0ZM16.4579 21.021C15.1661 21.6325 13.7603 21.9383 12.2785 21.9383C10.7967 21.9383 9.35285 21.5943 8.09901 21.021L7.18713 22.588C8.74493 23.3524 10.4547 23.7346 12.2785 23.7346C14.1022 23.7346 15.812 23.3142 17.3698 22.588L16.4579 21.021ZM4.14753 10.9309H5.9333C6.35124 8.14086 8.55496 5.9241 11.3286 5.5419V3.74556C7.56708 4.12776 4.56547 7.14714 4.14753 10.9309ZM18.5857 12.8037C18.1677 15.5938 15.964 17.8105 13.1904 18.2309V20.0273C16.9519 19.6069 19.9535 16.5875 20.3714 12.8037H18.5857ZM13.1904 3.70734V5.5419C15.964 5.96232 18.1677 8.17908 18.5857 10.9691H20.3714C19.9535 7.14714 16.9519 4.12776 13.1904 3.70734ZM5.9333 12.8037H4.14753C4.56547 16.5875 7.56708 19.6069 11.3286 20.0273V18.2309C8.55496 17.8105 6.35124 15.5938 5.9333 12.8037ZM14.8621 12.8037C14.4822 13.8739 13.4563 14.6383 12.2785 14.6383C11.1006 14.6383 10.0748 13.8739 9.69481 12.8037H7.83305C8.25099 14.8676 10.0748 16.4346 12.2785 16.4346C14.4822 16.4346 16.3059 14.8676 16.7239 12.8037H14.8621ZM12.2785 7.30002C10.1128 7.30002 8.25099 8.86704 7.83305 10.9309H9.69481C10.0748 9.86076 11.1006 9.09636 12.2785 9.09636C13.4563 9.09636 14.4822 9.86076 14.8621 10.9309H16.7239C16.268 8.86704 14.4442 7.30002 12.2785 7.30002Z" fill="white"/>
</svg>
