<svg width="269" height="24" viewBox="0 0 269 24" fill="none" xmlns="http://www.w3.org/2000/svg">
<path d="M43.4831 19.4303V6.79783L38.8575 19.2329H37.4071L32.7816 6.71887V19.4698H31.0176V4.46872H33.6832L38.1519 16.6669L42.6599 4.46872H45.2863V19.4303H43.4831ZM56.8503 8.77165H54.9687L51.9895 17.1801L48.8535 8.77165H46.8543L51.0879 19.4698L50.4215 21.2462C50.1079 22.0357 49.5983 22.3121 48.8143 22.3121C48.1087 22.3121 47.5599 22.1542 47.5599 22.1542V23.7332C47.7167 23.7727 48.3047 23.9306 49.1671 23.9306C50.7743 23.9306 51.5191 23.0226 52.0287 21.641L56.8503 8.77165ZM65.0822 18.5618C65.7878 17.8512 66.219 16.9827 66.3366 15.8774H64.5334C64.455 16.588 64.1806 17.0617 63.8278 17.4565C63.3966 17.8907 62.7694 18.167 62.0246 18.167C61.2014 18.167 60.6526 17.8907 60.1822 17.4565C59.359 16.7459 59.1238 15.4037 59.1238 14.101C59.1238 12.7982 59.359 11.456 60.1822 10.7455C60.6526 10.3507 61.2014 10.0349 62.0246 10.0349C62.7302 10.0349 63.3182 10.2717 63.7494 10.706C64.1414 11.1008 64.4158 11.6534 64.4942 12.364H66.2974C66.219 11.2192 65.7486 10.3112 65.043 9.60065C64.2982 8.89008 63.279 8.45583 62.0246 8.45583C60.1038 8.45583 58.9278 9.32432 58.1831 10.4691C57.6343 11.2981 57.3207 12.4824 57.3207 14.0615C57.3207 15.68 57.6343 16.8248 58.1831 17.6538C58.9278 18.7592 60.143 19.6671 62.0638 19.6671C63.3182 19.7066 64.3374 19.3118 65.0822 18.5618ZM76.8422 13.6272C76.8814 12.2061 76.3718 10.8244 75.5094 9.87699C74.7254 9.04798 73.6278 8.49531 72.295 8.49531C70.4526 8.49531 69.0414 9.44275 68.2966 10.7455C67.7086 11.7324 67.4734 12.8772 67.4734 14.1799C67.4734 15.7195 67.9046 17.1012 68.8062 18.167C69.6294 19.1539 70.8446 19.7856 72.3342 19.7856C73.3534 19.7856 74.2942 19.5092 75.039 18.996C75.9014 18.4039 76.5286 17.417 76.6854 16.3511H74.9606C74.8038 16.9038 74.6078 17.2196 74.3334 17.4959C73.9022 17.9696 73.1966 18.2065 72.3734 18.2065C71.5502 18.2065 70.923 17.9302 70.4134 17.4565C69.747 16.7854 69.3942 15.759 69.3942 14.7721H76.8814L76.8422 13.6272ZM74.3726 10.9823C74.8038 11.535 75.039 12.364 75.039 13.1535H69.3942C69.4334 11.5745 70.3742 9.99541 72.295 9.99541C73.2358 9.99541 73.9414 10.3902 74.3726 10.9823ZM81.1541 19.5487C82.0165 19.5487 82.4085 19.4303 82.4085 19.4303V17.8907C82.4085 17.8907 82.2517 17.9302 81.6637 17.9302C80.9189 17.9302 80.6837 17.5354 80.6837 16.8248V4.19238H78.9198V16.9433C78.959 18.6407 79.6253 19.5487 81.1541 19.5487ZM84.1333 6.32411H86.2109V4.19238H84.1333V6.32411ZM84.2901 19.4303H86.1325V8.77165H84.2901V19.4303ZM97.0301 19.4303V8.77165H95.2661V14.3378C95.2661 15.4432 95.0701 16.588 94.4037 17.2985C93.9333 17.7723 93.3453 18.0881 92.6397 18.0881C90.9541 18.0881 90.3661 17.1406 90.3661 15.5221V8.77165H88.6021V15.7984C88.6021 18.2855 89.8173 19.7461 92.2477 19.7461C93.5021 19.7461 94.8349 19.075 95.3837 17.8512L95.5405 19.4698H97.0301V19.4303ZM114.67 19.4303V12.4035C114.67 10.0349 113.533 8.45583 111.142 8.45583C109.809 8.45583 108.437 9.16641 107.888 10.4691C107.418 9.16641 106.281 8.45583 104.713 8.45583C103.537 8.45583 102.283 9.04798 101.734 10.2323L101.577 8.69269H100.009V19.3908H101.773V13.7457C101.773 12.8772 101.969 11.7324 102.479 11.0613C102.91 10.5086 103.537 10.1138 104.282 10.1138C105.968 10.1138 106.438 11.1402 106.438 12.6403V19.4303H108.202V13.7457C108.202 12.6403 108.398 11.535 109.104 10.8244C109.535 10.3902 110.044 10.1138 110.711 10.1138C112.396 10.1138 112.867 11.1402 112.867 12.6403V19.4303H114.67Z" fill="white"/>
<path d="M1.79882 12.8214H0C0.267909 16.4955 2.25809 19.7105 5.12855 21.7006L6.04709 20.1315C3.67418 18.4857 2.06673 15.8449 1.79882 12.8214ZM21.892 12.8214C21.6241 15.8449 20.0166 18.4857 17.682 20.1315L18.6005 21.7006C21.471 19.7105 23.4229 16.4955 23.7291 12.8214H21.892ZM18.6005 2.105L17.682 3.63591C20.0166 5.28164 21.6241 7.92245 21.892 10.946H23.7291C23.4229 7.27182 21.471 4.05691 18.6005 2.105ZM5.12855 2.105C2.21982 4.05691 0.267909 7.27182 0 10.946H1.79882C2.06673 7.92245 3.67418 5.28164 6.00882 3.63591L5.12855 2.105ZM11.8645 0C10.0275 0 8.30518 0.421 6.736 1.14818L7.65455 2.71736C8.95582 2.105 10.3719 1.79882 11.8645 1.79882C13.3572 1.79882 14.8115 2.14327 16.0745 2.71736L16.9931 1.14818C15.4239 0.421 13.6634 0 11.8645 0ZM16.0745 21.05C14.7733 21.6624 13.3572 21.9685 11.8645 21.9685C10.3719 21.9685 8.91755 21.6241 7.65455 21.05L6.736 22.6192C8.30518 23.3846 10.0275 23.7674 11.8645 23.7674C13.7016 23.7674 15.4239 23.3464 16.9931 22.6192L16.0745 21.05ZM3.67418 10.946H5.473C5.894 8.15209 8.11382 5.93227 10.9077 5.54955V3.75073C7.11873 4.13345 4.09518 7.157 3.67418 10.946ZM18.2178 12.8214C17.7968 15.6153 15.577 17.8351 12.7831 18.2561V20.0549C16.5721 19.6339 19.5956 16.6104 20.0166 12.8214H18.2178ZM12.7831 3.71246V5.54955C15.577 5.97055 17.7968 8.19036 18.2178 10.9843H20.0166C19.5956 7.157 16.5721 4.13346 12.7831 3.71246ZM5.473 12.8214H3.67418C4.09518 16.6104 7.11873 19.6339 10.9077 20.0549V18.2561C8.11382 17.8351 5.894 15.6153 5.473 12.8214ZM14.4671 12.8214C14.0844 13.893 13.051 14.6585 11.8645 14.6585C10.6781 14.6585 9.64473 13.893 9.262 12.8214H7.38664C7.80764 14.8881 9.64473 16.4573 11.8645 16.4573C14.0844 16.4573 15.9215 14.8881 16.3425 12.8214H14.4671ZM11.8645 7.31009C9.683 7.31009 7.80764 8.87927 7.38664 10.946H9.262C9.64473 9.87436 10.6781 9.10891 11.8645 9.10891C13.051 9.10891 14.0844 9.87436 14.4671 10.946H16.3425C15.8832 8.87927 14.0461 7.31009 11.8645 7.31009Z" fill="white"/>
<path d="M131.315 8.87566C131.315 7.55865 130.89 6.47531 130.168 5.68935C129.361 4.81843 128.108 4.32986 126.344 4.32986H120.758V19.3905H122.648V13.5489H126.366C128.023 13.5489 129.255 13.1028 130.062 12.2956C130.869 11.4884 131.315 10.3414 131.315 8.87566ZM129.361 8.87566C129.361 10.8937 128.341 11.8283 126.323 11.8283H122.648V6.05047H126.302C128.171 6.05047 129.361 6.96387 129.361 8.87566Z" fill="white"/>
<path d="M141.532 13.5277C141.553 12.0832 141.043 10.7025 140.172 9.74659C139.386 8.8969 138.282 8.36585 136.901 8.36585C135.031 8.36585 133.608 9.32174 132.844 10.6175C132.249 11.6159 132.015 12.763 132.015 14.0587C132.015 15.5882 132.461 17.0114 133.353 18.0522C134.182 19.0294 135.414 19.6666 136.922 19.6666C137.942 19.6666 138.898 19.3692 139.662 18.8594C140.533 18.2647 141.17 17.2663 141.319 16.2042H139.556C139.407 16.7777 139.216 17.0751 138.919 17.3725C138.473 17.8398 137.772 18.0735 136.922 18.0735C136.094 18.0735 135.435 17.7973 134.947 17.3088C134.288 16.6503 133.906 15.5882 133.906 14.611H141.51L141.532 13.5277ZM139.684 13.0603H133.948C133.991 11.4884 134.947 9.89528 136.901 9.89528C137.857 9.89528 138.579 10.2776 139.025 10.8724C139.45 11.446 139.684 12.2532 139.684 13.0603Z" fill="white"/>
<path d="M149.302 10.4051V8.642C149.025 8.59951 148.728 8.57827 148.452 8.57827C147.092 8.57827 145.797 9.21553 145.244 10.5325L145.096 8.642H143.502V19.3905H145.287V14.611C145.287 13.4852 145.393 11.9982 146.264 11.1698C146.752 10.7025 147.453 10.3201 148.303 10.3201C148.622 10.3201 148.983 10.3414 149.302 10.4051Z" fill="white"/>
<path d="M160.109 14.0162C160.109 12.2319 159.578 10.5963 158.559 9.55541C157.858 8.83318 156.838 8.38709 155.521 8.38709C154.31 8.38709 152.929 8.98187 152.313 10.0652L152.186 8.66324H150.593V24H152.398V18.1584C152.972 19.1356 154.353 19.6879 155.521 19.6879C156.774 19.6879 157.773 19.263 158.474 18.6045C159.557 17.5637 160.109 15.8643 160.109 14.0162ZM158.261 14.0375C158.261 16.013 157.624 18.1584 155.224 18.1584C154.438 18.1584 153.907 17.8398 153.482 17.4575C152.59 16.6715 152.292 15.3757 152.292 14.0375C152.292 12.6992 152.59 11.4035 153.482 10.6175C153.907 10.2352 154.438 9.91652 155.224 9.91652C157.624 9.91652 158.261 12.062 158.261 14.0375Z" fill="white"/>
<path d="M170.831 13.5277C170.852 12.0832 170.342 10.7025 169.471 9.74659C168.685 8.8969 167.581 8.36585 166.2 8.36585C164.331 8.36585 162.907 9.32174 162.143 10.6175C161.548 11.6159 161.314 12.763 161.314 14.0587C161.314 15.5882 161.76 17.0114 162.652 18.0522C163.481 19.0294 164.713 19.6666 166.221 19.6666C167.241 19.6666 168.197 19.3692 168.961 18.8594C169.832 18.2647 170.47 17.2663 170.618 16.2042H168.855C168.706 16.7777 168.515 17.0751 168.218 17.3725C167.772 17.8398 167.071 18.0735 166.221 18.0735C165.393 18.0735 164.734 17.7973 164.246 17.3088C163.587 16.6503 163.205 15.5882 163.205 14.611H170.809L170.831 13.5277ZM168.983 13.0603H163.247C163.29 11.4884 164.246 9.89528 166.2 9.89528C167.156 9.89528 167.878 10.2776 168.324 10.8724C168.749 11.446 168.983 12.2532 168.983 13.0603Z" fill="white"/>
<path d="M178.367 19.2418V17.6911C178.367 17.6911 177.284 17.8823 176.519 17.8823C175.521 17.8823 175.074 17.4575 175.074 16.4166V10.1927H178.261V8.642H175.074V5.47693L173.269 5.90177V8.642H171.187V10.1927H173.269V16.629C173.269 18.0735 173.906 19.5392 176.222 19.5392C177.22 19.5392 177.878 19.3692 178.367 19.2418Z" fill="white"/>
<path d="M188.325 19.3905V8.642H186.519V14.2287C186.519 15.3333 186.307 16.5016 185.627 17.2026C185.159 17.6911 184.565 18.0098 183.842 18.0098C182.143 18.0098 181.548 17.0539 181.548 15.4395V8.642H179.743V15.6944C179.743 18.1797 180.975 19.6454 183.418 19.6454C184.671 19.6454 186.052 18.9869 186.604 17.7548L186.753 19.3905H188.325Z" fill="white"/>
<path d="M200.221 19.2843V17.946C200.221 17.946 199.945 18.0098 199.753 18.0098C199.392 18.0098 199.159 17.8611 199.159 17.2875V12.0832C199.159 11.4672 199.052 10.9149 198.84 10.4263C198.33 9.25802 197.141 8.36585 195.059 8.36585C193.742 8.36585 192.467 8.74821 191.745 9.51292C191.193 10.0865 190.832 10.7874 190.811 11.7646H192.574C192.574 11.2335 192.765 10.8087 193.105 10.4688C193.466 10.1077 194.082 9.83155 195.059 9.83155C195.93 9.83155 196.461 10.044 196.822 10.3838C197.311 10.8299 197.374 11.4884 197.374 12.0195V12.8054L194.103 12.9966C191.172 13.1666 190.279 14.9721 190.279 16.3529C190.279 18.0098 191.511 19.6666 193.976 19.6666C195.484 19.6666 196.822 18.9869 197.438 17.9035H197.481C197.481 18.8169 198.075 19.5392 199.031 19.5392C199.477 19.5392 199.838 19.4755 200.221 19.2843ZM197.374 14.8447C197.374 15.7368 197.098 16.629 196.461 17.2875C195.887 17.8823 195.08 18.1584 194.252 18.1584C192.722 18.1584 192.128 17.2663 192.128 16.3104C192.128 14.9509 193.402 14.4411 194.485 14.3774L197.374 14.2074V14.8447Z" fill="white"/>
<path d="M205.48 19.3905V17.8611C205.48 17.8611 205.331 17.8823 204.737 17.8823C203.993 17.8823 203.76 17.4999 203.76 16.7777V4.05371H201.954V16.8839C201.954 18.5833 202.634 19.5179 204.206 19.5179C205.077 19.5179 205.48 19.3905 205.48 19.3905Z" fill="white"/>
<path d="M221.422 15.2483C221.422 12.8692 219.744 11.3397 217.237 10.9786C216.409 10.8512 215.58 10.7025 214.731 10.5963C213.605 10.4476 212.479 9.83156 212.479 8.47206C212.479 7.79232 212.713 7.28251 213.095 6.83642C213.754 6.09295 214.688 5.79556 215.772 5.79556C216.94 5.79556 217.853 6.17792 218.427 6.83642C218.852 7.32499 219.128 7.9835 219.17 8.72697H221.146C221.103 7.45244 220.615 6.3691 219.701 5.49817C218.703 4.54228 217.259 4.05371 215.793 4.05371C214.221 4.05371 212.883 4.56352 211.842 5.54066C211.035 6.30537 210.525 7.38872 210.525 8.51455C210.525 10.9149 212.288 12.1682 214.54 12.5081L216.919 12.8692C218.703 13.1453 219.446 14.1225 219.446 15.2908C219.446 16.098 219.149 16.629 218.682 17.0539C218.002 17.6911 217.025 17.9248 215.878 17.9248C214.816 17.9248 213.669 17.6486 212.989 16.9901C212.373 16.3954 211.927 15.5032 211.927 14.611H209.951C209.951 16.0342 210.61 17.33 211.566 18.2222C212.585 19.1568 214.051 19.6666 215.878 19.6666C217.492 19.6666 219.107 19.1781 220.147 18.1584C220.891 17.4362 221.422 16.5016 221.422 15.2483Z" fill="white"/>
<path d="M236.902 8.642H235.139L233.058 16.7565L230.36 8.76945H228.809L226.069 16.7565L224.009 8.642H222.224L224.986 19.3905H226.706L229.574 11.1698L232.378 19.3905H234.12L236.902 8.642Z" fill="white"/>
<path d="M247.621 19.2843V17.946C247.621 17.946 247.345 18.0098 247.154 18.0098C246.793 18.0098 246.559 17.8611 246.559 17.2875V12.0832C246.559 11.4672 246.453 10.9149 246.241 10.4263C245.731 9.25802 244.541 8.36585 242.459 8.36585C241.142 8.36585 239.868 8.74821 239.146 9.51292C238.593 10.0865 238.232 10.7874 238.211 11.7646H239.974C239.974 11.2335 240.165 10.8087 240.505 10.4688C240.866 10.1077 241.482 9.83155 242.459 9.83155C243.33 9.83155 243.861 10.044 244.223 10.3838C244.711 10.8299 244.775 11.4884 244.775 12.0195V12.8054L241.504 12.9966C238.572 13.1666 237.68 14.9721 237.68 16.3529C237.68 18.0098 238.912 19.6666 241.376 19.6666C242.884 19.6666 244.223 18.9869 244.839 17.9035H244.881C244.881 18.8169 245.476 19.5392 246.432 19.5392C246.878 19.5392 247.239 19.4755 247.621 19.2843ZM244.775 14.8447C244.775 15.7368 244.499 16.629 243.861 17.2875C243.288 17.8823 242.481 18.1584 241.652 18.1584C240.123 18.1584 239.528 17.2663 239.528 16.3104C239.528 14.9509 240.803 14.4411 241.886 14.3774L244.775 14.2074V14.8447Z" fill="white"/>
<path d="M258.935 14.0162C258.935 12.2319 258.404 10.5963 257.384 9.55541C256.683 8.83318 255.663 8.38709 254.346 8.38709C253.136 8.38709 251.755 8.98187 251.139 10.0652L251.011 8.66324H249.418V24H251.224V18.1584C251.797 19.1356 253.178 19.6879 254.346 19.6879C255.6 19.6879 256.598 19.263 257.299 18.6045C258.382 17.5637 258.935 15.8643 258.935 14.0162ZM257.087 14.0375C257.087 16.013 256.449 18.1584 254.049 18.1584C253.263 18.1584 252.732 17.8398 252.307 17.4575C251.415 16.6715 251.118 15.3757 251.118 14.0375C251.118 12.6992 251.415 11.4035 252.307 10.6175C252.732 10.2352 253.263 9.91652 254.049 9.91652C256.449 9.91652 257.087 12.062 257.087 14.0375Z" fill="white"/>
<path d="M268.955 16.2679C268.955 14.6535 267.744 13.5489 266.215 13.294C265.068 13.1028 264.218 13.0179 263.623 12.9329C262.731 12.8054 262.179 12.4231 262.179 11.5309C262.179 10.9361 262.582 10.3626 263.262 10.0865C263.772 9.87404 264.091 9.87404 264.516 9.87404C265.238 9.87404 265.833 10.044 266.279 10.4476C266.597 10.7237 266.873 11.2335 266.895 11.7858H268.7C268.7 10.9149 268.403 10.2989 267.935 9.72534C267.213 8.81193 265.939 8.36585 264.516 8.36585C263.177 8.36585 262.051 8.83318 261.35 9.55541C260.862 10.044 260.458 10.8299 260.458 11.6584C260.458 13.294 261.478 14.2924 263.092 14.5473C263.836 14.6535 265.047 14.8022 265.514 14.8659C266.618 15.0146 267.192 15.5882 267.192 16.3954C267.192 16.8839 266.958 17.33 266.661 17.5637C266.109 18.031 265.429 18.1584 264.685 18.1584C264.006 18.1584 263.241 18.031 262.752 17.6699C262.243 17.2875 261.903 16.7352 261.881 15.9918H260.076C260.076 16.9052 260.458 17.8186 261.117 18.4558C262.03 19.348 263.262 19.6666 264.6 19.6666C266.002 19.6666 267.277 19.3055 268.105 18.4558C268.615 17.9248 268.955 17.2026 268.955 16.2679Z" fill="white"/>
</svg>
