<svg width="127" height="18" viewBox="0 0 127 18" fill="none" xmlns="http://www.w3.org/2000/svg">
<path d="M30.9489 9.24674C30.3449 9.85052 29.4232 10.1844 28.1837 10.1844H25.4023V14.5529H23.9883V3.29004H28.1675C29.4862 3.29004 30.4241 3.65536 31.0281 4.30683C31.5682 4.89439 31.8859 5.70515 31.8859 6.68951C31.8859 7.78547 31.5519 8.64392 30.9479 9.24674H30.9489ZM28.136 4.57581H25.4023V8.89669H28.1513C29.6608 8.89669 30.4241 8.19752 30.4241 6.68855C30.4241 5.25876 29.5339 4.57581 28.136 4.57581Z" fill="white"/>
<path d="M39.5168 10.9788H33.8281C33.8281 11.7095 34.1144 12.504 34.6067 12.9962C34.9722 13.3615 35.4645 13.5685 36.0847 13.5685C36.7049 13.5685 37.245 13.3939 37.5789 13.0439C37.8013 12.8216 37.9444 12.5994 38.056 12.1702H39.3747C39.263 12.9647 38.7869 13.7116 38.1352 14.156C37.5627 14.5376 36.8481 14.7598 36.0847 14.7598C34.956 14.7598 34.0352 14.2829 33.415 13.5523C32.7471 12.7739 32.4141 11.7095 32.4141 10.5658C32.4141 9.59671 32.5887 8.73921 33.0343 7.99236C33.6068 7.02326 34.6716 6.30884 36.0695 6.30884C37.1028 6.30884 37.9291 6.70563 38.5169 7.34184C39.1686 8.05722 39.5503 9.08927 39.534 10.17L39.5178 10.9798L39.5168 10.9788ZM37.6572 8.18312C37.3232 7.73864 36.7832 7.45249 36.0685 7.45249C34.6067 7.45249 33.8911 8.64383 33.8596 9.81991H38.1505C38.1505 9.21613 37.9759 8.61235 37.6581 8.18408L37.6572 8.18312Z" fill="white"/>
<path d="M44.5993 7.77022C43.9638 7.77022 43.439 8.05637 43.0736 8.40548C42.4219 9.02547 42.3427 10.1367 42.3427 10.9789V14.5529H41.0078V6.51498H42.1996L42.3112 7.92856C42.7244 6.94325 43.6938 6.46729 44.7109 6.46729C44.918 6.46729 45.1403 6.4835 45.3464 6.51498V7.83318C45.1079 7.78548 44.8379 7.76927 44.5993 7.76927V7.77022Z" fill="white"/>
<path d="M52.2903 13.9654C51.7655 14.4576 51.0194 14.7752 50.0814 14.7752C49.2074 14.7752 48.1741 14.3622 47.7456 13.6315V18.0001H46.3945V6.53023H47.5863L47.6817 7.57849C48.1426 6.76868 49.1759 6.32324 50.0814 6.32324C51.0671 6.32324 51.8295 6.65709 52.3542 7.19696C53.1166 7.97529 53.5145 9.1981 53.5145 10.5335C53.5145 11.8688 53.1014 13.1861 52.2913 13.9644L52.2903 13.9654ZM49.8591 7.46785C49.2713 7.46785 48.8735 7.7063 48.5557 7.99245C47.8878 8.58002 47.6655 9.54912 47.6655 10.5497C47.6655 11.5503 47.8878 12.5194 48.5557 13.1069C48.8735 13.3931 49.2713 13.6315 49.8591 13.6315C51.6548 13.6315 52.1319 12.0272 52.1319 10.5497C52.1319 9.0722 51.6548 7.46785 49.8591 7.46785Z" fill="white"/>
<path d="M61.5246 10.9788H55.8359C55.8359 11.7095 56.1222 12.504 56.6145 12.9962C56.98 13.3615 57.4723 13.5685 58.0925 13.5685C58.7127 13.5685 59.2528 13.3939 59.5867 13.0439C59.8091 12.8216 59.9522 12.5994 60.0638 12.1702H61.3825C61.2708 12.9647 60.7947 13.7116 60.143 14.156C59.5705 14.5376 58.8559 14.7598 58.0925 14.7598C56.9638 14.7598 56.043 14.2829 55.4228 13.5523C54.7549 12.7739 54.4219 11.7095 54.4219 10.5658C54.4219 9.59671 54.5965 8.73921 55.0421 7.99236C55.6146 7.02326 56.6794 6.30884 58.0773 6.30884C59.1106 6.30884 59.9369 6.70563 60.5247 7.34184C61.1764 8.05722 61.558 9.08927 61.5418 10.17L61.5256 10.9798L61.5246 10.9788ZM59.665 8.18312C59.331 7.73864 58.791 7.45249 58.0763 7.45249C56.6145 7.45249 55.8989 8.64383 55.8674 9.81991H60.1583C60.1583 9.21613 59.9837 8.61235 59.6659 8.18408L59.665 8.18312Z" fill="white"/>
<path d="M65.8169 14.6644C64.0851 14.6644 63.608 13.5685 63.608 12.4878V7.67474H62.0508V6.51488H63.608V4.46509L64.9591 4.14746V6.51488H67.3426V7.67474H64.9591V12.3295C64.9591 13.1078 65.293 13.4254 66.0402 13.4254C66.6127 13.4254 67.4227 13.2823 67.4227 13.2823V14.4422C67.0573 14.5376 66.565 14.6644 65.8178 14.6644H65.8169Z" fill="white"/>
<path d="M73.7753 14.5531L73.6637 13.3303C73.2505 14.2517 72.2172 14.7439 71.2802 14.7439C69.453 14.7439 68.5312 13.6479 68.5312 11.7889V6.51514H69.8823V11.5991C69.8823 12.8066 70.327 13.5211 71.5989 13.5211C72.1389 13.5211 72.5845 13.2826 72.9338 12.9173C73.4423 12.3927 73.6017 11.519 73.6017 10.6929V6.51514H74.9528V14.5531H73.7772H73.7753Z" fill="white"/>
<path d="M82.9615 14.6645C82.2459 14.6645 81.8012 14.1246 81.8012 13.4416H81.7697C81.3089 14.2515 80.308 14.7598 79.1792 14.7598C77.3358 14.7598 76.4141 13.5208 76.4141 12.2818C76.4141 11.2488 77.082 9.8991 79.2746 9.77129L81.722 9.62821V9.04065C81.722 8.64385 81.6743 8.15072 81.3089 7.81783C81.0389 7.56411 80.641 7.40482 79.9902 7.40482C79.2594 7.40482 78.7985 7.6118 78.5285 7.88174C78.2737 8.13546 78.1315 8.45404 78.1315 8.85083H76.8129C76.8291 8.1202 77.0991 7.59559 77.5123 7.16731C78.0524 6.59501 79.0065 6.30981 79.9912 6.30981C81.5484 6.30981 82.4386 6.9775 82.8203 7.85121C82.9796 8.21653 83.0588 8.62954 83.0588 9.09025V12.9819C83.0588 13.4111 83.2334 13.5218 83.5035 13.5218C83.6466 13.5218 83.8527 13.4741 83.8527 13.4741V14.4747C83.5664 14.6177 83.2964 14.6654 82.9624 14.6654L82.9615 14.6645ZM81.722 10.6774L79.5609 10.8043C78.7508 10.852 77.7966 11.2335 77.7966 12.2503C77.7966 12.9647 78.2413 13.6324 79.3863 13.6324C80.0065 13.6324 80.6095 13.4254 81.0389 12.9809C81.5159 12.4888 81.722 11.8211 81.722 11.1543V10.6774Z" fill="white"/>
<path d="M86.8404 14.6483C85.6648 14.6483 85.1562 13.9491 85.1562 12.6786V3.08301H86.5074V12.5985C86.5074 13.1383 86.682 13.4245 87.2383 13.4245C87.6829 13.4245 87.7945 13.4083 87.7945 13.4083V14.5519C87.7945 14.5519 87.493 14.6473 86.8413 14.6473L86.8404 14.6483Z" fill="white"/>
<path d="M98.9645 9.24674C98.3606 9.85052 97.4388 10.1844 96.1994 10.1844H93.418V14.5529H92.0039V3.29004H96.1832C97.5018 3.29004 98.4397 3.65536 99.0437 4.30683C99.5838 4.89439 99.9015 5.70515 99.9015 6.68951C99.9015 7.78547 99.5676 8.64392 98.9636 9.24674H98.9645ZM96.1517 4.57581H93.418V8.89669H96.1669C97.6764 8.89669 98.4398 8.19752 98.4398 6.68855C98.4398 5.25876 97.5495 4.57581 96.1517 4.57581Z" fill="white"/>
<path d="M106.452 13.8224C105.864 14.3947 105.038 14.76 104.021 14.76C103.003 14.76 102.177 14.3947 101.589 13.8224C100.715 12.9649 100.445 11.805 100.445 10.5336C100.445 9.26211 100.715 8.1032 101.589 7.24475C102.177 6.67245 103.003 6.30713 104.021 6.30713C105.038 6.30713 105.864 6.67245 106.452 7.24475C107.326 8.10225 107.596 9.26211 107.596 10.5336C107.596 11.805 107.326 12.964 106.452 13.8224ZM105.466 8.04025C105.132 7.70641 104.656 7.46795 104.02 7.46795C103.383 7.46795 102.907 7.70641 102.573 8.04025C102.001 8.62781 101.826 9.59691 101.826 10.5345C101.826 11.4722 102.001 12.4412 102.573 13.0288C102.907 13.3627 103.383 13.6011 104.02 13.6011C104.656 13.6011 105.132 13.3627 105.466 13.0288C106.039 12.4412 106.213 11.4722 106.213 10.5345C106.213 9.59691 106.039 8.62781 105.466 8.04025Z" fill="white"/>
<path d="M114.522 13.8224C113.934 14.3947 113.108 14.76 112.091 14.76C111.074 14.76 110.247 14.3947 109.66 13.8224C108.786 12.9649 108.516 11.805 108.516 10.5336C108.516 9.26211 108.786 8.1032 109.66 7.24475C110.247 6.67245 111.074 6.30713 112.091 6.30713C113.108 6.30713 113.934 6.67245 114.522 7.24475C115.396 8.10225 115.666 9.26211 115.666 10.5336C115.666 11.805 115.396 12.964 114.522 13.8224ZM113.536 8.04025C113.202 7.70641 112.726 7.46795 112.09 7.46795C111.453 7.46795 110.977 7.70641 110.643 8.04025C110.071 8.62781 109.896 9.59691 109.896 10.5345C109.896 11.4722 110.071 12.4412 110.643 13.0288C110.977 13.3627 111.453 13.6011 112.09 13.6011C112.726 13.6011 113.202 13.3627 113.536 13.0288C114.109 12.4412 114.284 11.4722 114.284 10.5345C114.284 9.59691 114.109 8.62781 113.536 8.04025Z" fill="white"/>
<path d="M118.844 14.6483C117.669 14.6483 117.16 13.9491 117.16 12.6786V3.08301H118.511V12.5985C118.511 13.1383 118.686 13.4245 119.242 13.4245C119.687 13.4245 119.798 13.4083 119.798 13.4083V14.5519C119.798 14.5519 119.497 14.6473 118.845 14.6473L118.844 14.6483Z" fill="white"/>
<path d="M126.362 13.8539C125.742 14.4892 124.789 14.7591 123.74 14.7591C122.691 14.7591 121.817 14.5206 121.134 13.8539C120.642 13.377 120.355 12.694 120.355 12.0111H121.707C121.723 12.5672 121.977 12.9802 122.358 13.2663C122.724 13.5363 123.296 13.6317 123.805 13.6317C124.361 13.6317 124.87 13.5363 125.283 13.1872C125.505 13.0126 125.68 12.6788 125.68 12.3135C125.68 11.7097 125.25 11.2805 124.424 11.1698C124.075 11.1221 123.168 11.0105 122.612 10.9313C121.404 10.7406 120.642 9.99373 120.642 8.77091C120.642 8.15092 120.944 7.56335 121.31 7.19803C121.834 6.65816 122.676 6.30811 123.678 6.30811C124.743 6.30811 125.696 6.64195 126.236 7.32489C126.585 7.75412 126.809 8.21482 126.809 8.86629H125.457C125.441 8.45328 125.235 8.07175 124.997 7.86572C124.663 7.56431 124.218 7.43649 123.678 7.43649C123.36 7.43649 123.122 7.43649 122.74 7.59578C122.231 7.80277 121.93 8.23104 121.93 8.67648C121.93 9.34417 122.343 9.62936 123.011 9.72474C123.456 9.78865 124.092 9.8516 124.95 9.99468C126.094 10.1854 127 11.0115 127 12.219C127 12.9182 126.746 13.4581 126.365 13.8549L126.362 13.8539Z" fill="white"/>
<path d="M1.55867 9.60283H0.210938C0.411663 12.3547 1.90277 14.7626 4.05339 16.2532L4.7416 15.0779C2.96374 13.8453 1.75939 11.8674 1.55867 9.60283ZM16.6131 9.60283C16.4123 11.8674 15.208 13.8453 13.4588 15.0779L14.147 16.2532C16.2976 14.7626 17.7601 12.3547 17.9895 9.60283H16.6131ZM14.147 1.57658L13.4588 2.72319C15.208 3.95579 16.4123 5.93369 16.6131 8.19824H17.9895C17.7601 5.44638 16.2976 3.03851 14.147 1.57658ZM4.05339 1.57658C1.87409 3.03851 0.411663 5.44638 0.210938 8.19824H1.55867C1.75939 5.93369 2.96374 3.95579 4.71292 2.72319L4.05339 1.57658ZM9.1002 0C7.7238 0 6.43342 0.315317 5.25775 0.859955L5.94595 2.03523C6.9209 1.57658 7.98188 1.34726 9.1002 1.34726C10.2185 1.34726 11.3082 1.60525 12.2545 2.03523L12.9427 0.859955C11.767 0.315317 10.4479 0 9.1002 0ZM12.2545 15.7658C11.2795 16.2245 10.2185 16.4538 9.1002 16.4538C7.98188 16.4538 6.89222 16.1958 5.94595 15.7658L5.25775 16.9411C6.43342 17.5144 7.7238 17.8011 9.1002 17.8011C10.4766 17.8011 11.767 17.4858 12.9427 16.9411L12.2545 15.7658ZM2.96374 8.19824H4.31147C4.62689 6.10568 6.29005 4.4431 8.38333 4.15645V2.80919C5.5445 3.09584 3.27917 5.36039 2.96374 8.19824ZM13.8603 9.60283C13.5448 11.6954 11.8817 13.358 9.7884 13.6733V15.0206C12.6272 14.7052 14.8926 12.4407 15.208 9.60283H13.8603ZM9.7884 2.78052V4.15645C11.8817 4.47177 13.5448 6.13435 13.8603 8.2269H15.208C14.8926 5.36039 12.6272 3.09584 9.7884 2.78052ZM4.31147 9.60283H2.96374C3.27917 12.4407 5.5445 14.7052 8.38333 15.0206V13.6733C6.29005 13.358 4.62689 11.6954 4.31147 9.60283ZM11.0501 9.60283C10.7634 10.4055 9.98913 10.9788 9.1002 10.9788C8.21128 10.9788 7.43705 10.4055 7.1503 9.60283H5.74522C6.06065 11.1508 7.43705 12.326 9.1002 12.326C10.7634 12.326 12.1398 11.1508 12.4552 9.60283H11.0501ZM9.1002 5.47505C7.46572 5.47505 6.06065 6.65032 5.74522 8.19824H7.1503C7.43705 7.39561 8.21128 6.82231 9.1002 6.82231C9.98913 6.82231 10.7634 7.39561 11.0501 8.19824H12.4552C12.1111 6.65032 10.7347 5.47505 9.1002 5.47505Z" fill="white"/>
</svg>
