<svg width="258" height="24" viewBox="0 0 258 24" fill="none" xmlns="http://www.w3.org/2000/svg">
<path d="M129.931 12.3289C129.126 13.134 127.897 13.5791 126.244 13.5791H122.536V19.4038H120.65V4.38672H126.223C127.981 4.38672 129.231 4.87381 130.037 5.74243C130.757 6.52584 131.18 7.60685 131.18 8.91932C131.18 10.3806 130.735 11.5252 129.93 12.3289H129.931ZM126.181 6.10107H122.536V11.8622H126.201C128.214 11.8622 129.231 10.93 129.231 8.91805C129.231 7.01166 128.044 6.10107 126.181 6.10107Z" fill="white"/>
<path d="M141.351 14.6387H133.766C133.766 15.6129 134.148 16.6723 134.804 17.3285C135.292 17.8156 135.948 18.0916 136.775 18.0916C137.602 18.0916 138.322 17.8588 138.767 17.3921C139.064 17.0958 139.255 16.7995 139.403 16.2272H141.162C141.013 17.2865 140.378 18.2823 139.509 18.875C138.746 19.3837 137.793 19.68 136.775 19.68C135.27 19.68 134.042 19.0441 133.215 18.07C132.325 17.0322 131.881 15.6129 131.881 14.088C131.881 12.7959 132.114 11.6526 132.708 10.6568C133.471 9.36467 134.891 8.41211 136.755 8.41211C138.133 8.41211 139.234 8.94117 140.018 9.78944C140.887 10.7433 141.396 12.1193 141.374 13.5603L141.352 14.64L141.351 14.6387ZM138.872 10.9111C138.426 10.3185 137.706 9.93697 136.753 9.93697C134.804 9.93697 133.85 11.5254 133.808 13.0935H139.529C139.529 12.2885 139.297 11.4834 138.873 10.9124L138.872 10.9111Z" fill="white"/>
<path d="M148.132 10.3603C147.285 10.3603 146.585 10.7418 146.098 11.2073C145.229 12.0339 145.124 13.5156 145.124 14.6385V19.4039H143.344V8.68664H144.933L145.082 10.5714C145.632 9.25766 146.925 8.62305 148.281 8.62305C148.557 8.62305 148.854 8.64467 149.129 8.68664V10.4442C148.81 10.3806 148.45 10.359 148.132 10.359V10.3603Z" fill="white"/>
<path d="M158.387 18.6201C157.688 19.2764 156.693 19.6999 155.442 19.6999C154.277 19.6999 152.899 19.1492 152.328 18.175V23.9997H150.526V8.70664H152.115L152.243 10.1043C152.857 9.02458 154.235 8.43066 155.442 8.43066C156.756 8.43066 157.773 8.87579 158.473 9.59561C159.489 10.6334 160.02 12.2638 160.02 14.0443C160.02 15.8248 159.469 17.5811 158.389 18.6188L158.387 18.6201ZM155.146 9.95679C154.362 9.95679 153.832 10.2747 153.408 10.6563C152.517 11.4397 152.221 12.7318 152.221 14.0659C152.221 15.4 152.517 16.6921 153.408 17.4755C153.832 17.8571 154.362 18.175 155.146 18.175C157.54 18.175 158.176 16.0359 158.176 14.0659C158.176 12.0959 157.54 9.95679 155.146 9.95679Z" fill="white"/>
<path d="M170.698 14.6387H163.113C163.113 15.6129 163.495 16.6723 164.151 17.3285C164.638 17.8156 165.295 18.0916 166.122 18.0916C166.949 18.0916 167.669 17.8588 168.114 17.3921C168.41 17.0958 168.601 16.7995 168.75 16.2272H170.508C170.359 17.2865 169.725 18.2823 168.856 18.875C168.092 19.3837 167.139 19.68 166.122 19.68C164.617 19.68 163.389 19.0441 162.562 18.07C161.672 17.0322 161.228 15.6129 161.228 14.088C161.228 12.7959 161.46 11.6526 162.054 10.6568C162.818 9.36467 164.238 8.41211 166.101 8.41211C167.479 8.41211 168.581 8.94117 169.365 9.78944C170.233 10.7433 170.742 12.1193 170.721 13.5603L170.699 14.64L170.698 14.6387ZM168.218 10.9111C167.773 10.3185 167.053 9.93697 166.1 9.93697C164.151 9.93697 163.197 11.5254 163.155 13.0935H168.876C168.876 12.2885 168.643 11.4834 168.22 10.9124L168.218 10.9111Z" fill="white"/>
<path d="M176.419 19.5528C174.11 19.5528 173.474 18.0916 173.474 16.6507V10.2333H171.397V8.68682H173.474V5.95377L175.275 5.53027V8.68682H178.453V10.2333H175.275V16.4395C175.275 17.4773 175.72 17.9008 176.717 17.9008C177.48 17.9008 178.56 17.71 178.56 17.71V19.2565C178.073 19.3837 177.416 19.5528 176.42 19.5528H176.419Z" fill="white"/>
<path d="M187.034 19.4038L186.885 17.7733C186.334 19.0019 184.957 19.6581 183.707 19.6581C181.271 19.6581 180.042 18.1968 180.042 15.7182V8.68652H181.843V15.4651C181.843 17.0751 182.436 18.0277 184.132 18.0277C184.852 18.0277 185.446 17.7098 185.912 17.2227C186.59 16.5232 186.803 15.3583 186.803 14.2569V8.68652H188.604V19.4038H187.037H187.034Z" fill="white"/>
<path d="M199.282 19.5526C198.327 19.5526 197.735 18.8327 197.735 17.9221H197.693C197.078 19.0019 195.744 19.6797 194.239 19.6797C191.781 19.6797 190.552 18.0277 190.552 16.3757C190.552 14.9983 191.442 13.1988 194.366 13.0284L197.629 12.8376V12.0542C197.629 11.5251 197.565 10.8676 197.078 10.4238C196.718 10.0855 196.188 9.87308 195.32 9.87308C194.345 9.87308 193.731 10.1491 193.371 10.509C193.031 10.8473 192.842 11.272 192.842 11.8011H191.084C191.105 10.8269 191.465 10.1274 192.016 9.55641C192.736 8.79335 194.008 8.41309 195.321 8.41309C197.397 8.41309 198.584 9.30333 199.093 10.4683C199.306 10.9554 199.411 11.506 199.411 12.1203V17.3091C199.411 17.8814 199.644 18.029 200.004 18.029C200.195 18.029 200.47 17.9654 200.47 17.9654V19.2995C200.088 19.4902 199.728 19.5538 199.283 19.5538L199.282 19.5526ZM197.629 14.2365L194.747 14.4057C193.667 14.4693 192.395 14.978 192.395 16.3337C192.395 17.2863 192.988 18.1765 194.515 18.1765C195.342 18.1765 196.146 17.9005 196.718 17.3079C197.354 16.6516 197.629 15.7614 197.629 14.8724V14.2365Z" fill="white"/>
<path d="M204.452 19.5306C202.884 19.5306 202.206 18.5984 202.206 16.9044V4.11035H204.008V16.7976C204.008 17.5174 204.24 17.8989 204.982 17.8989C205.575 17.8989 205.724 17.8773 205.724 17.8773V19.4022C205.724 19.4022 205.322 19.5293 204.453 19.5293L204.452 19.5306Z" fill="white"/>
<path d="M220.618 12.3289C219.812 13.134 218.583 13.5791 216.931 13.5791H213.222V19.4038H211.337V4.38672H216.909C218.667 4.38672 219.918 4.87381 220.723 5.74243C221.443 6.52584 221.867 7.60685 221.867 8.91932C221.867 10.3806 221.422 11.5252 220.616 12.3289H220.618ZM216.867 6.10107H213.222V11.8622H216.888C218.9 11.8622 219.918 10.93 219.918 8.91805C219.918 7.01166 218.731 6.10107 216.867 6.10107Z" fill="white"/>
<path d="M230.597 18.4295C229.814 19.1926 228.712 19.6796 227.356 19.6796C226 19.6796 224.898 19.1926 224.114 18.4295C222.949 17.2862 222.589 15.7397 222.589 14.0444C222.589 12.3491 222.949 10.8039 224.114 9.65933C224.898 8.89627 226 8.40918 227.356 8.40918C228.712 8.40918 229.814 8.89627 230.597 9.65933C231.763 10.8027 232.123 12.3491 232.123 14.0444C232.123 15.7397 231.763 17.2849 230.597 18.4295ZM229.283 10.72C228.838 10.2749 228.203 9.95693 227.355 9.95693C226.506 9.95693 225.871 10.2749 225.426 10.72C224.663 11.5034 224.43 12.7955 224.43 14.0457C224.43 15.2958 224.663 16.588 225.426 17.3714C225.871 17.8165 226.506 18.1344 227.355 18.1344C228.203 18.1344 228.838 17.8165 229.283 17.3714C230.047 16.588 230.279 15.2958 230.279 14.0457C230.279 12.7955 230.047 11.5034 229.283 10.72Z" fill="white"/>
<path d="M241.361 18.4295C240.577 19.1926 239.476 19.6796 238.12 19.6796C236.763 19.6796 235.662 19.1926 234.878 18.4295C233.713 17.2862 233.353 15.7397 233.353 14.0444C233.353 12.3491 233.713 10.8039 234.878 9.65933C235.662 8.89627 236.763 8.40918 238.12 8.40918C239.476 8.40918 240.577 8.89627 241.361 9.65933C242.526 10.8027 242.887 12.3491 242.887 14.0444C242.887 15.7397 242.526 17.2849 241.361 18.4295ZM240.047 10.72C239.602 10.2749 238.967 9.95693 238.118 9.95693C237.27 9.95693 236.635 10.2749 236.19 10.72C235.426 11.5034 235.193 12.7955 235.193 14.0457C235.193 15.2958 235.426 16.588 236.19 17.3714C236.635 17.8165 237.27 18.1344 238.118 18.1344C238.967 18.1344 239.602 17.8165 240.047 17.3714C240.81 16.588 241.043 15.2958 241.043 14.0457C241.043 12.7955 240.81 11.5034 240.047 10.72Z" fill="white"/>
<path d="M247.125 19.5306C245.558 19.5306 244.88 18.5984 244.88 16.9044V4.11035H246.681V16.7976C246.681 17.5174 246.914 17.8989 247.656 17.8989C248.249 17.8989 248.398 17.8773 248.398 17.8773V19.4022C248.398 19.4022 247.996 19.5293 247.127 19.5293L247.125 19.5306Z" fill="white"/>
<path d="M257.147 18.4712C256.32 19.3182 255.049 19.6781 253.651 19.6781C252.253 19.6781 251.088 19.3601 250.177 18.4712C249.52 17.8353 249.139 16.9247 249.139 16.0141H250.94C250.962 16.7555 251.3 17.3062 251.809 17.6877C252.296 18.0477 253.06 18.1748 253.738 18.1748C254.479 18.1748 255.158 18.0477 255.708 17.5822C256.005 17.3495 256.238 16.9043 256.238 16.4172C256.238 15.6122 255.665 15.0399 254.563 14.8924C254.098 14.8288 252.889 14.68 252.147 14.5744C250.537 14.3201 249.52 13.3243 249.52 11.6939C249.52 10.8672 249.924 10.0838 250.411 9.59672C251.111 8.8769 252.233 8.41016 253.569 8.41016C254.988 8.41016 256.259 8.85528 256.979 9.76587C257.445 10.3382 257.743 10.9524 257.743 11.8211H255.941C255.92 11.2704 255.645 10.7617 255.327 10.487C254.881 10.0851 254.289 9.91467 253.569 9.91467C253.145 9.91467 252.827 9.91467 252.318 10.1271C251.64 10.403 251.238 10.9741 251.238 11.568C251.238 12.4582 251.789 12.8385 252.679 12.9657C253.272 13.0509 254.121 13.1348 255.264 13.3256C256.79 13.5799 257.998 14.6813 257.998 16.2913C257.998 17.2236 257.659 17.9434 257.151 18.4724L257.147 18.4712Z" fill="white"/>
<path d="M43.437 19.4034V6.78838L38.8162 19.2063H37.3673L32.7465 6.70954V19.4429H30.9844V4.46248H33.6472L38.1114 16.6439L42.6147 4.46248H45.2384V19.4034H43.437ZM56.7904 8.75948H54.9107L51.9346 17.1564L48.8019 8.75948H46.8047L51.0339 19.4429L50.3682 21.2168C50.055 22.0053 49.5459 22.2812 48.7627 22.2812C48.0578 22.2812 47.5096 22.1236 47.5096 22.1236V23.7004C47.6662 23.7399 48.2536 23.8975 49.1151 23.8975C50.7207 23.8975 51.4647 22.9908 51.9738 21.6111L56.7904 8.75948ZM65.0138 18.5361C65.7187 17.8266 66.1494 16.9593 66.2669 15.8555H64.4656C64.3873 16.565 64.1132 17.0381 63.7607 17.4323C63.33 17.866 62.7034 18.1419 61.9594 18.1419C61.137 18.1419 60.5888 17.866 60.1189 17.4323C59.2966 16.7227 59.0616 15.3824 59.0616 14.0815C59.0616 12.7805 59.2966 11.4402 60.1189 10.7306C60.5888 10.3364 61.137 10.021 61.9594 10.021C62.6643 10.021 63.2516 10.2575 63.6824 10.6912C64.074 11.0854 64.3481 11.6373 64.4264 12.3469H66.2278C66.1494 11.2036 65.6795 10.2969 64.9747 9.58734C64.2306 8.87775 63.2125 8.4441 61.9594 8.4441C60.0406 8.4441 58.8658 9.31139 58.1218 10.4546C57.5735 11.2825 57.2603 12.4652 57.2603 14.042C57.2603 15.6583 57.5735 16.8016 58.1218 17.6294C58.8658 18.7333 60.0797 19.64 61.9986 19.64C63.2516 19.6794 64.2698 19.2852 65.0138 18.5361ZM76.7616 13.6084C76.8008 12.1892 76.2917 10.8094 75.4302 9.8633C74.647 9.03544 73.5505 8.48353 72.2191 8.48353C70.3786 8.48353 68.9689 9.42966 68.2249 10.7306C67.6375 11.7161 67.4025 12.8594 67.4025 14.1603C67.4025 15.6978 67.8333 17.0775 68.734 18.1419C69.5563 19.1275 70.7702 19.7582 72.2583 19.7582C73.2764 19.7582 74.2163 19.4823 74.9603 18.9698C75.8218 18.3785 76.4483 17.3929 76.605 16.3285H74.882C74.7253 16.8804 74.5295 17.1958 74.2554 17.4718C73.8247 17.9448 73.1198 18.1814 72.2975 18.1814C71.4751 18.1814 70.8486 17.9054 70.3395 17.4323C69.6738 16.7622 69.3213 15.7372 69.3213 14.7516H76.8008L76.7616 13.6084ZM74.2946 10.9671C74.7253 11.519 74.9603 12.3469 74.9603 13.1353H69.3213C69.3605 11.5584 70.3003 9.98156 72.2191 9.98156C73.159 9.98156 73.8638 10.3758 74.2946 10.9671ZM81.0691 19.5217C81.9306 19.5217 82.3222 19.4034 82.3222 19.4034V17.866C82.3222 17.866 82.1656 17.9054 81.5782 17.9054C80.8342 17.9054 80.5992 17.5112 80.5992 16.8016V4.18652H78.8371V16.9198C78.8762 18.615 79.5419 19.5217 81.0691 19.5217ZM84.0452 6.31531H86.1207V4.18652H84.0452V6.31531ZM84.2019 19.4034H86.0424V8.75948H84.2019V19.4034ZM96.9287 19.4034V8.75948H95.1665V14.318C95.1665 15.4218 94.9707 16.565 94.305 17.2746C93.8351 17.7477 93.2477 18.0631 92.5428 18.0631C90.859 18.0631 90.2716 17.117 90.2716 15.5007V8.75948H88.5094V15.7766C88.5094 18.2602 89.7233 19.7188 92.1512 19.7188C93.4043 19.7188 94.7357 19.0486 95.284 17.8266L95.4406 19.4429H96.9287V19.4034ZM114.55 19.4034V12.3863C114.55 10.021 113.415 8.4441 111.026 8.4441C109.695 8.4441 108.324 9.1537 107.776 10.4546C107.306 9.1537 106.17 8.4441 104.604 8.4441C103.429 8.4441 102.176 9.03543 101.628 10.2181L101.471 8.68064H99.9048V19.364H101.667V13.7267C101.667 12.8594 101.863 11.7161 102.372 11.046C102.803 10.4941 103.429 10.0998 104.173 10.0998C105.857 10.0998 106.327 11.1248 106.327 12.6228V19.4034H108.089V13.7267C108.089 12.6228 108.285 11.519 108.99 10.8094C109.42 10.3758 109.93 10.0998 110.595 10.0998C112.279 10.0998 112.749 11.1248 112.749 12.6228V19.4034H114.55Z" fill="white"/>
<path d="M1.79696 12.8037H0C0.267632 16.4728 2.25576 19.6833 5.12325 21.6708L6.04084 20.1037C3.67039 18.4603 2.06459 15.8231 1.79696 12.8037ZM21.8694 12.8037C21.6018 15.8231 19.996 18.4603 17.6637 20.1037L18.5813 21.6708C21.4488 19.6833 23.3987 16.4728 23.7046 12.8037H21.8694ZM18.5813 2.1021L17.6637 3.6309C19.996 5.27436 21.6018 7.91154 21.8694 10.9309H23.7046C23.3987 7.2618 21.4488 4.05132 18.5813 2.1021ZM5.12325 2.1021C2.21753 4.05132 0.267632 7.2618 0 10.9309H1.79696C2.06459 7.91154 3.67039 5.27436 6.00261 3.6309L5.12325 2.1021ZM11.8523 0C10.0171 0 8.2966 0.42042 6.72904 1.1466L7.64664 2.71362C8.94657 2.1021 10.3612 1.79634 11.8523 1.79634C13.3434 1.79634 14.7962 2.14032 16.0579 2.71362L16.9755 1.1466C15.408 0.42042 13.6493 0 11.8523 0ZM16.0579 21.021C14.758 21.6325 13.3434 21.9383 11.8523 21.9383C10.3612 21.9383 8.90833 21.5943 7.64664 21.021L6.72904 22.588C8.2966 23.3524 10.0171 23.7346 11.8523 23.7346C13.6875 23.7346 15.408 23.3142 16.9755 22.588L16.0579 21.021ZM3.67039 10.9309H5.46735C5.88791 8.14086 8.10544 5.9241 10.8965 5.5419V3.74556C7.11137 4.12776 4.09095 7.14714 3.67039 10.9309ZM18.199 12.8037C17.7784 15.5938 15.5609 17.8105 12.7699 18.2309V20.0273C16.555 19.6069 19.5754 16.5875 19.996 12.8037H18.199ZM12.7699 3.70734V5.5419C15.5609 5.96232 17.7784 8.17908 18.199 10.9691H19.996C19.5754 7.14714 16.555 4.12776 12.7699 3.70734ZM5.46735 12.8037H3.67039C4.09095 16.5875 7.11137 19.6069 10.8965 20.0273V18.2309C8.10544 17.8105 5.88791 15.5938 5.46735 12.8037ZM14.4521 12.8037C14.0698 13.8739 13.0375 14.6383 11.8523 14.6383C10.6671 14.6383 9.63476 13.8739 9.25243 12.8037H7.37901C7.79957 14.8676 9.63476 16.4346 11.8523 16.4346C14.0698 16.4346 15.905 14.8676 16.3256 12.8037H14.4521ZM11.8523 7.30002C9.673 7.30002 7.79957 8.86704 7.37901 10.9309H9.25243C9.63476 9.86076 10.6671 9.09636 11.8523 9.09636C13.0375 9.09636 14.0698 9.86076 14.4521 10.9309H16.3256C15.8668 8.86704 14.0316 7.30002 11.8523 7.30002Z" fill="white"/>
</svg>
