<svg width="25" height="24" viewBox="0 0 25 24" fill="none" xmlns="http://www.w3.org/2000/svg">
<g clip-path="url(#clip0_1813_62682)">
<path d="M16.7811 7.90621C16.6658 7.90621 16.5504 7.9089 16.436 7.91427C16.3637 3.53777 12.7055 0 8.21893 0C3.73238 0 0 3.60945 0 8.0469C0 12.4843 3.68662 16.0938 8.21893 16.0938C8.33425 16.0938 8.44865 16.0911 8.56306 16.0857C8.63536 20.4622 12.2945 24 16.7811 24C21.2676 24 25 20.3905 25 15.9531C25 11.5157 21.3125 7.90621 16.7811 7.90621ZM8.20794 11.202C7.13253 12.1411 5.88321 12.8589 4.49478 13.3285L4.05912 12.0919C5.25444 11.6877 6.31613 11.0918 7.23412 10.3095C5.42559 8.44386 4.86637 6.56297 4.83068 6.43752L5.4741 6.26188L6.11752 6.08446V6.08625C6.13399 6.14001 6.4644 7.21443 7.40893 8.46896C7.65056 8.78976 7.90866 9.09353 8.18323 9.38028C8.67564 8.8256 9.11587 8.20282 9.5021 7.51372C10.0403 6.55401 10.3533 5.6615 10.5244 5.06381H3.58228V3.75552H7.70364V2.22947H9.0399V3.75552H13.1622V5.06381H11.9074C11.7463 5.70899 11.3948 6.84434 10.6983 8.09887C10.2563 8.89549 9.73915 9.62133 9.15706 10.2692C9.50943 10.5497 9.88193 10.8078 10.2746 11.0416C10.0018 11.3866 9.75746 11.754 9.54512 12.1402C9.0518 11.8436 8.60791 11.5273 8.20794 11.202ZM16.7811 22.6917C12.9855 22.6917 9.89749 19.6692 9.89749 15.9531V15.9244C9.89841 15.6959 9.91122 15.4701 9.93502 15.2479C9.96064 15.0095 9.99908 14.7739 10.0494 14.5436C10.0915 14.3518 10.1409 14.1627 10.1995 13.9772C10.2087 13.9486 10.2178 13.919 10.2279 13.8903C10.2316 13.876 10.237 13.8616 10.2416 13.8473C10.2544 13.8097 10.2673 13.772 10.281 13.7344C10.3075 13.6591 10.335 13.5847 10.3652 13.5113C10.3798 13.4745 10.3945 13.4378 10.41 13.401C10.4805 13.2326 10.5574 13.0686 10.6416 12.9073C10.6571 12.8777 10.6727 12.849 10.6883 12.8195C10.6983 12.7998 10.7093 12.78 10.7203 12.7603C10.9354 12.3696 11.1898 12.0013 11.4772 11.6608C11.5248 11.6044 11.5733 11.5497 11.6227 11.4951C11.6484 11.4664 11.674 11.4386 11.7005 11.4108C11.9458 11.1474 12.214 10.9018 12.5005 10.6796C12.5343 10.6527 12.5682 10.6267 12.603 10.6008C12.6332 10.5775 12.6643 10.5551 12.6945 10.5327C12.7457 10.4959 12.7979 10.4592 12.8501 10.4242C12.9077 10.3839 12.9663 10.3454 13.0258 10.3077C13.1558 10.2244 13.2894 10.1455 13.4249 10.0712C13.4541 10.055 13.4825 10.0389 13.5127 10.0237C13.5402 10.0093 13.5676 9.995 13.5951 9.98066C13.6207 9.96722 13.6463 9.95467 13.672 9.94213C13.693 9.93048 13.715 9.92062 13.736 9.91076C13.7708 9.89284 13.8065 9.87671 13.8413 9.86058C13.9127 9.82743 13.9841 9.79517 14.0555 9.7656C14.0921 9.74947 14.1278 9.73513 14.1644 9.72079C14.2367 9.69122 14.3099 9.66255 14.384 9.63656C14.4216 9.62312 14.4582 9.60968 14.4957 9.59713C14.5698 9.57115 14.6449 9.54606 14.7208 9.52365C14.7593 9.51111 14.7968 9.50036 14.8353 9.4896C14.8737 9.47795 14.9112 9.4672 14.9497 9.45734C15.1821 9.39372 15.4183 9.34264 15.6599 9.30501C15.886 9.26737 16.1157 9.24139 16.3491 9.22794C16.4919 9.21898 16.6355 9.2145 16.7811 9.2145C20.5757 9.2145 23.6637 12.237 23.6637 15.9531C23.6637 19.6692 20.5757 22.6917 16.7811 22.6917ZM18.1091 10.9269H15.788L12.4483 19.9882H14.4197L15.345 17.2569H18.4578L19.3694 19.9882H21.382L18.1091 10.9269ZM15.8146 15.825L16.9147 12.4763L17.9883 15.825H15.8146Z" fill="white"/>
</g>
<defs>
<clipPath id="clip0_1813_62682">
<rect width="25" height="24" fill="white"/>
</clipPath>
</defs>
</svg>
