<svg width="25" height="24" viewBox="0 0 25 24" fill="none" xmlns="http://www.w3.org/2000/svg">
<path d="M19.6367 8.62109C20.3398 8.09375 20.9727 7.46094 21.4648 6.72266C20.832 7.00391 20.0938 7.21484 19.3555 7.28516C20.1289 6.82812 20.6914 6.125 20.9727 5.24609C20.2695 5.66797 19.4609 5.98438 18.6523 6.16016C17.9492 5.42188 17 5 15.9453 5C13.9062 5 12.2539 6.65234 12.2539 8.69141C12.2539 8.97266 12.2891 9.25391 12.3594 9.53516C9.30078 9.35938 6.55859 7.88281 4.73047 5.66797C4.41406 6.19531 4.23828 6.82812 4.23828 7.53125C4.23828 8.79688 4.87109 9.92188 5.89062 10.5898C5.29297 10.5547 4.69531 10.4141 4.20312 10.1328V10.168C4.20312 11.9609 5.46875 13.4375 7.15625 13.7891C6.875 13.8594 6.52344 13.9297 6.20703 13.9297C5.96094 13.9297 5.75 13.8945 5.50391 13.8594C5.96094 15.3359 7.33203 16.3906 8.94922 16.4258C7.68359 17.4102 6.10156 18.0078 4.37891 18.0078C4.0625 18.0078 3.78125 17.9727 3.5 17.9375C5.11719 18.9922 7.05078 19.5898 9.16016 19.5898C15.9453 19.5898 19.6367 14 19.6367 9.11328C19.6367 8.9375 19.6367 8.79688 19.6367 8.62109Z" fill="white"/>
</svg>
