<svg viewBox="0 0 128 18" fill="none" xmlns="http://www.w3.org/2000/svg">
<path d="M30.9545 9.24668C30.3505 9.85046 29.4288 10.1843 28.1893 10.1843H25.408V14.5529H23.9939V3.28998H28.1731C29.4918 3.28998 30.4297 3.6553 31.0337 4.30677C31.5738 4.89433 31.8915 5.70509 31.8915 6.68945C31.8915 7.78541 31.5575 8.64386 30.9536 9.24668H30.9545ZM28.1416 4.57575H25.408V8.89662H28.1569C29.6664 8.89662 30.4297 8.19746 30.4297 6.68849C30.4297 5.25869 29.5395 4.57575 28.1416 4.57575Z" fill="white"/>
<path d="M39.5195 10.9788H33.8308C33.8308 11.7094 34.1171 12.5039 34.6094 12.9961C34.9749 13.3614 35.4672 13.5684 36.0874 13.5684C36.7076 13.5684 37.2477 13.3939 37.5816 13.0438C37.8039 12.8216 37.9471 12.5993 38.0587 12.1701H39.3774C39.2657 12.9646 38.7896 13.7115 38.1379 14.156C37.5654 14.5375 36.8507 14.7598 36.0874 14.7598C34.9586 14.7598 34.0379 14.2828 33.4177 13.5522C32.7498 12.7739 32.4167 11.7094 32.4167 10.5657C32.4167 9.59665 32.5914 8.73915 33.037 7.9923C33.6095 7.0232 34.6743 6.30878 36.0721 6.30878C37.1055 6.30878 37.9318 6.70557 38.5196 7.34178C39.1713 8.05716 39.5529 9.08921 39.5367 10.1699L39.5205 10.9797L39.5195 10.9788ZM37.6599 8.18306C37.3259 7.73858 36.7859 7.45243 36.0712 7.45243C34.6094 7.45243 33.8938 8.64377 33.8623 9.81985H38.1532C38.1532 9.21607 37.9786 8.61229 37.6608 8.18402L37.6599 8.18306Z" fill="white"/>
<path d="M44.6054 7.77016C43.9699 7.77016 43.4451 8.05631 43.0797 8.40542C42.428 9.02541 42.3488 10.1366 42.3488 10.9789V14.5529H41.0139V6.51492H42.2057L42.3173 7.9285C42.7305 6.94319 43.6999 6.46722 44.717 6.46722C44.9241 6.46722 45.1464 6.48344 45.3525 6.51492V7.83312C45.114 7.78542 44.844 7.76921 44.6054 7.76921V7.77016Z" fill="white"/>
<path d="M52.2964 13.9653C51.7716 14.4575 51.0255 14.7751 50.0875 14.7751C49.2135 14.7751 48.1802 14.3621 47.7517 13.6315V18H46.4006V6.53016H47.5924L47.6878 7.57843C48.1487 6.76862 49.182 6.32318 50.0875 6.32318C51.0732 6.32318 51.8356 6.65702 52.3603 7.1969C53.1227 7.97523 53.5206 9.19804 53.5206 10.5334C53.5206 11.8688 53.1075 13.186 52.2974 13.9644L52.2964 13.9653ZM49.8652 7.46778C49.2774 7.46778 48.8796 7.70624 48.5618 7.99239C47.8939 8.57996 47.6716 9.54905 47.6716 10.5496C47.6716 11.5502 47.8939 12.5193 48.5618 13.1069C48.8796 13.393 49.2774 13.6315 49.8652 13.6315C51.661 13.6315 52.138 12.0271 52.138 10.5496C52.138 9.07214 51.661 7.46778 49.8652 7.46778Z" fill="white"/>
<path d="M61.5298 10.9788H55.8411C55.8411 11.7094 56.1273 12.5039 56.6197 12.9961C56.9851 13.3614 57.4774 13.5684 58.0977 13.5684C58.7179 13.5684 59.2579 13.3939 59.5919 13.0438C59.8142 12.8216 59.9573 12.5993 60.0689 12.1701H61.3876C61.276 12.9646 60.7998 13.7115 60.1481 14.156C59.5756 14.5375 58.861 14.7598 58.0977 14.7598C56.9689 14.7598 56.0481 14.2828 55.4279 13.5522C54.76 12.7739 54.427 11.7094 54.427 10.5657C54.427 9.59665 54.6016 8.73915 55.0472 7.9923C55.6197 7.0232 56.6845 6.30878 58.0824 6.30878C59.1157 6.30878 59.942 6.70557 60.5298 7.34178C61.1815 8.05716 61.5632 9.08921 61.5469 10.1699L61.5307 10.9797L61.5298 10.9788ZM59.6701 8.18306C59.3362 7.73858 58.7961 7.45243 58.0814 7.45243C56.6197 7.45243 55.904 8.64377 55.8726 9.81985H60.1634C60.1634 9.21607 59.9888 8.61229 59.6711 8.18402L59.6701 8.18306Z" fill="white"/>
<path d="M65.8205 14.6644C64.0887 14.6644 63.6116 13.5684 63.6116 12.4877V7.67468H62.0544V6.51482H63.6116V4.46503L64.9627 4.1474V6.51482H67.3463V7.67468H64.9627V12.3294C64.9627 13.1077 65.2967 13.4254 66.0438 13.4254C66.6163 13.4254 67.4264 13.2823 67.4264 13.2823V14.4421C67.061 14.5375 66.5686 14.6644 65.8215 14.6644H65.8205Z" fill="white"/>
<path d="M73.7819 14.5529L73.6703 13.3301C73.2571 14.2515 72.2238 14.7437 71.2868 14.7437C69.4596 14.7437 68.5378 13.6477 68.5378 11.7887V6.51495H69.8889V11.5989C69.8889 12.8065 70.3336 13.5209 71.6055 13.5209C72.1455 13.5209 72.5911 13.2824 72.9404 12.9171C73.4489 12.3925 73.6083 11.5188 73.6083 10.6928V6.51495H74.9594V14.5529H73.7838H73.7819Z" fill="white"/>
<path d="M82.9671 14.6644C82.2515 14.6644 81.8069 14.1245 81.8069 13.4416H81.7754C81.3145 14.2514 80.3136 14.7598 79.1848 14.7598C77.3414 14.7598 76.4197 13.5208 76.4197 12.2817C76.4197 11.2487 77.0876 9.89904 79.2802 9.77122L81.7277 9.62815V9.04059C81.7277 8.64379 81.68 8.15066 81.3145 7.81777C81.0445 7.56405 80.6466 7.40476 79.9959 7.40476C79.265 7.40476 78.8041 7.61174 78.5341 7.88168C78.2793 8.1354 78.1372 8.45398 78.1372 8.85077H76.8185C76.8347 8.12013 77.1048 7.59552 77.5179 7.16725C78.058 6.59495 79.0121 6.30975 79.9968 6.30975C81.554 6.30975 82.4442 6.97744 82.8259 7.85115C82.9852 8.21647 83.0644 8.62948 83.0644 9.09019V12.9818C83.0644 13.4111 83.239 13.5217 83.5091 13.5217C83.6522 13.5217 83.8583 13.474 83.8583 13.474V14.4746C83.572 14.6177 83.302 14.6654 82.9681 14.6654L82.9671 14.6644ZM81.7277 10.6774L79.5665 10.8042C78.7564 10.8519 77.8023 11.2335 77.8023 12.2502C77.8023 12.9647 78.2469 13.6324 79.3919 13.6324C80.0121 13.6324 80.6151 13.4254 81.0445 12.9809C81.5216 12.4887 81.7277 11.821 81.7277 11.1543V10.6774Z" fill="white"/>
<path d="M86.8445 14.6482C85.669 14.6482 85.1604 13.949 85.1604 12.6785V3.08295H86.5115V12.5984C86.5115 13.1383 86.6861 13.4244 87.2424 13.4244C87.687 13.4244 87.7987 13.4082 87.7987 13.4082V14.5519C87.7987 14.5519 87.4972 14.6473 86.8455 14.6473L86.8445 14.6482Z" fill="white"/>
<path d="M98.9702 9.24656C98.3662 9.85034 97.4444 10.1842 96.205 10.1842H93.4236V14.5527H92.0095V3.28986H96.1888C97.5074 3.28986 98.4454 3.65517 99.0493 4.30664C99.5894 4.89421 99.9071 5.70497 99.9071 6.68933C99.9071 7.78528 99.5732 8.64374 98.9692 9.24656H98.9702ZM96.1573 4.57563H93.4236V8.8965H96.1725C97.682 8.8965 98.4454 8.19734 98.4454 6.68837C98.4454 5.25857 97.5551 4.57563 96.1573 4.57563Z" fill="white"/>
<path d="M106.455 13.8222C105.867 14.3945 105.041 14.7598 104.024 14.7598C103.007 14.7598 102.18 14.3945 101.593 13.8222C100.719 12.9647 100.448 11.8049 100.448 10.5334C100.448 9.26193 100.719 8.10302 101.593 7.24457C102.18 6.67227 103.007 6.30695 104.024 6.30695C105.041 6.30695 105.867 6.67227 106.455 7.24457C107.329 8.10206 107.599 9.26193 107.599 10.5334C107.599 11.8049 107.329 12.9638 106.455 13.8222ZM105.469 8.04007C105.135 7.70622 104.659 7.46776 104.023 7.46776C103.386 7.46776 102.91 7.70622 102.576 8.04007C102.004 8.62763 101.829 9.59673 101.829 10.5343C101.829 11.472 102.004 12.4411 102.576 13.0286C102.91 13.3625 103.386 13.6009 104.023 13.6009C104.659 13.6009 105.135 13.3625 105.469 13.0286C106.042 12.4411 106.216 11.472 106.216 10.5343C106.216 9.59673 106.042 8.62763 105.469 8.04007Z" fill="white"/>
<path d="M114.528 13.8222C113.94 14.3945 113.114 14.7598 112.096 14.7598C111.079 14.7598 110.253 14.3945 109.665 13.8222C108.791 12.9647 108.521 11.8049 108.521 10.5334C108.521 9.26193 108.791 8.10302 109.665 7.24457C110.253 6.67227 111.079 6.30695 112.096 6.30695C113.114 6.30695 113.94 6.67227 114.528 7.24457C115.402 8.10206 115.672 9.26193 115.672 10.5334C115.672 11.8049 115.402 12.9638 114.528 13.8222ZM113.542 8.04007C113.208 7.70622 112.732 7.46776 112.096 7.46776C111.459 7.46776 110.983 7.70622 110.649 8.04007C110.077 8.62763 109.902 9.59673 109.902 10.5343C109.902 11.472 110.077 12.4411 110.649 13.0286C110.983 13.3625 111.459 13.6009 112.096 13.6009C112.732 13.6009 113.208 13.3625 113.542 13.0286C114.115 12.4411 114.289 11.472 114.289 10.5343C114.289 9.59673 114.115 8.62763 113.542 8.04007Z" fill="white"/>
<path d="M118.85 14.6482C117.675 14.6482 117.166 13.949 117.166 12.6785V3.08295H118.517V12.5984C118.517 13.1383 118.692 13.4244 119.248 13.4244C119.693 13.4244 119.805 13.4082 119.805 13.4082V14.5519C119.805 14.5519 119.503 14.6473 118.851 14.6473L118.85 14.6482Z" fill="white"/>
<path d="M126.368 13.8537C125.747 14.489 124.794 14.7589 123.746 14.7589C122.697 14.7589 121.823 14.5204 121.14 13.8537C120.647 13.3768 120.361 12.6939 120.361 12.0109H121.712C121.728 12.567 121.982 12.98 122.364 13.2662C122.729 13.5361 123.302 13.6315 123.81 13.6315C124.367 13.6315 124.875 13.5361 125.288 13.187C125.511 13.0124 125.685 12.6786 125.685 12.3133C125.685 11.7095 125.256 11.2803 124.43 11.1696C124.08 11.1219 123.174 11.0103 122.618 10.9312C121.41 10.7404 120.647 9.99354 120.647 8.77073C120.647 8.15073 120.95 7.56317 121.315 7.19785C121.84 6.65798 122.682 6.30792 123.684 6.30792C124.748 6.30792 125.702 6.64176 126.242 7.32471C126.591 7.75394 126.814 8.21464 126.814 8.86611H125.463C125.447 8.4531 125.241 8.07157 125.002 7.86554C124.668 7.56412 124.224 7.43631 123.684 7.43631C123.366 7.43631 123.127 7.43631 122.746 7.5956C122.237 7.80258 121.935 8.23086 121.935 8.6763C121.935 9.34398 122.349 9.62918 123.017 9.72456C123.461 9.78847 124.098 9.85142 124.955 9.9945C126.099 10.1853 127.006 11.0113 127.006 12.2188C127.006 12.918 126.751 13.4579 126.37 13.8547L126.368 13.8537Z" fill="white"/>
<path d="M2.34162 9.60277H0.993896C1.19462 12.3546 2.68572 14.7625 4.83635 16.2531L5.52455 15.0778C3.7467 13.8452 2.54235 11.8673 2.34162 9.60277ZM17.396 9.60277C17.1953 11.8673 15.9909 13.8452 14.2418 15.0778L14.93 16.2531C17.0806 14.7625 18.543 12.3546 18.7724 9.60277H17.396ZM14.93 1.57652L14.2418 2.72313C15.9909 3.95573 17.1953 5.93363 17.396 8.19818H18.7724C18.543 5.44632 17.0806 3.03845 14.93 1.57652ZM4.83635 1.57652C2.65705 3.03845 1.19462 5.44632 0.993896 8.19818H2.34162C2.54235 5.93363 3.7467 3.95573 5.49588 2.72313L4.83635 1.57652ZM9.88316 -6.10352e-05C8.50676 -6.10352e-05 7.21638 0.315256 6.0407 0.859894L6.72891 2.03517C7.70386 1.57652 8.76483 1.3472 9.88316 1.3472C11.0015 1.3472 12.0911 1.60519 13.0374 2.03517L13.7256 0.859894C12.5499 0.315256 11.2309 -6.10352e-05 9.88316 -6.10352e-05ZM13.0374 15.7658C12.0625 16.2244 11.0015 16.4537 9.88316 16.4537C8.76483 16.4537 7.67518 16.1958 6.72891 15.7658L6.0407 16.9411C7.21638 17.5144 8.50676 17.801 9.88316 17.801C11.2596 17.801 12.5499 17.4857 13.7256 16.9411L13.0374 15.7658ZM3.7467 8.19818H5.09443C5.40985 6.10562 7.07301 4.44304 9.16629 4.15639V2.80913C6.32746 3.09578 4.06213 5.36033 3.7467 8.19818ZM14.6432 9.60277C14.3278 11.6953 12.6646 13.3579 10.5714 13.6732V15.0205C13.4102 14.7052 15.6755 12.4406 15.9909 9.60277H14.6432ZM10.5714 2.78046V4.15639C12.6646 4.47171 14.3278 6.13429 14.6432 8.22684H15.9909C15.6755 5.36033 13.4102 3.09578 10.5714 2.78046ZM5.09443 9.60277H3.7467C4.06213 12.4406 6.32746 14.7052 9.16629 15.0205V13.6732C7.07301 13.3579 5.40985 11.6953 5.09443 9.60277ZM11.8331 9.60277C11.5463 10.4054 10.7721 10.9787 9.88316 10.9787C8.99424 10.9787 8.22001 10.4054 7.93326 9.60277H6.52818C6.84361 11.1507 8.22001 12.326 9.88316 12.326C11.5463 12.326 12.9227 11.1507 13.2381 9.60277H11.8331ZM9.88316 5.47499C8.24868 5.47499 6.84361 6.65026 6.52818 8.19818H7.93326C8.22001 7.39555 8.99424 6.82225 9.88316 6.82225C10.7721 6.82225 11.5463 7.39555 11.8331 8.19818H13.2381C12.894 6.65026 11.5176 5.47499 9.88316 5.47499Z" fill="white"/>
</svg>
