<?xml version="1.0" encoding="utf-8"?>
<!-- Generator: Adobe Illustrator 26.5.0, SVG Export Plug-In . SVG Version: 6.00 Build 0)  -->
<svg version="1.1" id="Layer_1" xmlns="http://www.w3.org/2000/svg" xmlns:xlink="http://www.w3.org/1999/xlink" x="0px" y="0px"
	 viewBox="0 0 133 23.6" style="enable-background:new 0 0 133 23.6;" xml:space="preserve">
<style type="text/css">
	.st0{fill:#FFFFFF;}
</style>
<path class="st0" d="M1.9,12.6H0.1c0.3,3.6,2.2,6.9,5.1,8.8l0.9-1.6C3.7,18.2,2.2,15.7,1.9,12.6L1.9,12.6z M21.8,12.6
	c-0.3,2.9-1.9,5.6-4.2,7.2l0.9,1.6c2.8-2,4.8-5.1,5.1-8.8L21.8,12.6L21.8,12.6z M18.4,2.1l-0.9,1.6c2.4,1.7,3.9,4.2,4.2,7.3h1.8
	C23.2,7.2,21.3,4,18.4,2.1L18.4,2.1z M5.1,2.1C2.2,4,0.3,7.2,0,10.9h1.8c0.4-3,2-5.6,4.3-7.2C6.1,3.6,5.1,2.1,5.1,2.1z M11.8,0
	C10,0,8.2,0.4,6.7,1.2l0.9,1.6c1.3-0.6,2.7-0.9,4.2-0.9c1.5,0,2.9,0.3,4.2,0.9l0.9-1.6C15.3,0.4,13.6,0,11.8,0L11.8,0z M16,20.9
	c-1.3,0.6-2.7,0.9-4.2,0.9c-1.5,0-2.9-0.3-4.2-0.9l-0.9,1.6c1.6,0.8,3.2,1.2,5.1,1.2s3.5-0.4,5.1-1.2L16,20.9L16,20.9z"/>
<path class="st0" d="M3.7,10.9h1.8c0.4-2.7,2.7-5,5.4-5.4V3.6C7.1,4.1,4.1,7.1,3.7,10.9z M18.1,12.6c-0.4,2.7-2.6,5-5.4,5.4v1.8
	c3.7-0.4,6.8-3.4,7.1-7.1C19.9,12.6,18.1,12.6,18.1,12.6z M12.7,3.6v1.8c2.7,0.4,5,2.7,5.4,5.4h1.8C19.5,7.1,16.5,4.1,12.7,3.6z
	 M5.5,12.6H3.7c0.4,3.7,3.4,6.8,7.2,7.2V18C8.1,17.6,5.9,15.5,5.5,12.6z"/>
<path class="st0" d="M14.4,12.6c-0.4,1.1-1.4,1.9-2.6,1.9s-2.2-0.8-2.6-1.9h-2c0.4,2.1,2.2,3.6,4.4,3.6s4-1.6,4.4-3.6
	C16.2,12.6,14.4,12.6,14.4,12.6z M11.8,7.3c-2.2,0-4,1.6-4.4,3.6h1.9C9.6,9.8,10.6,9,11.8,9s2.2,0.8,2.6,1.9h1.9
	C15.8,8.8,14,7.3,11.8,7.3z"/>
<path class="st0" d="M42.1,18.9v-12l-4.4,11.9h-1.4l-4.5-12v12.2h-1.7V4.6h2.5L37,16.2l4.3-11.6h2.5v14.2L42.1,18.9L42.1,18.9
	L42.1,18.9z"/>
<path class="st0" d="M51.5,13.1v5.8h-1.8v-5.8L45,4.7H47l3.7,6.8l3.7-6.8h1.9C56.3,4.7,51.5,13.1,51.5,13.1z"/>
<path class="st0" d="M65.7,17.6c-0.9,0.9-2.2,1.6-3.8,1.6c-1.5,0-2.8-0.5-3.8-1.6c-1.6-1.5-1.8-3.6-1.8-5.9s0.2-4.4,1.8-5.9
	c1-1,2.5-1.6,3.8-1.6c1.6,0,2.9,0.6,3.8,1.5c0.8,0.9,1.4,2,1.4,3.2h-1.9c0-0.8-0.3-1.5-0.8-2C63.9,6.5,63,6,61.9,6
	c-1,0-1.9,0.4-2.5,1.1c-1.2,1.2-1.2,3.1-1.2,4.6s0,3.4,1.2,4.6c0.7,0.7,1.7,1.1,2.5,1.1c1.1,0,2.1-0.5,2.5-1.1
	c0.5-0.5,0.8-1.3,0.8-2.1h1.9C67.1,15.7,66.6,16.8,65.7,17.6z"/>
<path class="st0" d="M132,22.4c-1,1-2.6,1.2-4.1,1.2c-1.4,0-2.8-0.2-3.8-1.2c-0.4-0.4-0.7-1-0.7-1.8c0-1.1,0.7-1.9,1.5-2.2
	c-0.7-0.3-1.2-0.9-1.2-1.7c0-0.9,0.6-1.6,1.4-2c-0.8-0.7-1.2-1.7-1.2-2.7c0-1.1,0.4-1.9,1-2.4c0.7-0.7,1.7-1.2,3-1.2
	c1,0,1.7,0.2,2.4,0.6c0.3-0.9,1.1-1.5,2.1-1.5h0.5V9h-0.4c-0.7,0-1.2,0.4-1.3,0.9c0.4,0.6,0.7,1.2,0.7,2.2s-0.4,1.8-0.9,2.4
	c-0.7,0.7-1.7,1.2-3,1.2c-0.7,0-1.1-0.1-1.7-0.3c-0.4,0.1-0.8,0.4-0.9,0.9c-0.1,0.9,0.9,1,1.6,1h2.1c1.2,0,2.6,0.2,3.3,1.1
	c0.5,0.5,0.8,1.2,0.8,2C132.9,21.3,132.5,22,132,22.4L132,22.4z M128,18.8h-1.9c-0.7,0.2-1.3,0.8-1.3,1.6c0,0.5,0.2,0.8,0.4,1.1
	c0.7,0.7,1.9,0.7,2.7,0.7s2.2-0.1,2.7-0.7c0.3-0.3,0.4-0.6,0.4-1.1C131.2,18.6,129.3,18.8,128,18.8L128,18.8z M127.7,9.8
	c-1.4,0-2.4,1-2.4,2.2s0.9,2.2,2.4,2.2c1.4,0,2.4-1,2.4-2.2S129.2,9.8,127.7,9.8z"/>
<g>
	<path class="st0" d="M77.6,4.7c1.4,0,2.4,0.4,3.2,1.1s1.2,1.7,1.4,3h-1.8c-0.1-0.9-0.4-1.6-0.9-2s-1.2-0.7-2.1-0.7
		c-0.8,0-1.4,0.2-1.9,0.5s-0.7,0.9-0.7,1.6c0,0.7,0.2,1.3,0.7,1.7s1.2,0.7,2.3,0.9c1.6,0.4,2.7,0.9,3.4,1.6s1.1,1.6,1.1,2.7
		S81.9,17.3,81,18c-0.9,0.7-2,1.1-3.4,1.1c-1.5,0-2.7-0.4-3.7-1.1s-1.4-1.8-1.6-3.1h1.8c0.2,0.9,0.6,1.6,1.2,2.1s1.3,0.7,2.3,0.7
		c0.8,0,1.5-0.2,2-0.6c0.6-0.4,0.8-1,0.8-1.7c0-0.8-0.3-1.5-0.8-1.9c-0.5-0.4-1.4-0.8-2.6-1.1c-1.3-0.3-2.4-0.8-3.1-1.3
		S73,9.7,73,8.6c0-1.2,0.4-2.1,1.3-2.8S76.3,4.7,77.6,4.7L77.6,4.7z"/>
	<path class="st0" d="M85.8,9.6v6.1c0,0.4,0,0.6,0,0.8c0,0.5,0.2,0.8,0.4,1s0.7,0.2,1.4,0.1v1.3c-0.4,0.1-0.9,0.1-1.5,0.1
		c-0.7,0-1.2-0.1-1.5-0.4c-0.3-0.3-0.5-0.8-0.6-1.4c0-0.2,0-0.6,0-1.3V9.6h-1.4V8.3h1.4V5.8h1.7v2.5h2v1.3
		C87.8,9.6,85.8,9.6,85.8,9.6z"/>
	<path class="st0" d="M95.3,18.8l-0.2-1.5l-0.6,1.1c-0.6,0.4-1.5,0.7-2.7,0.7c-1,0-1.8-0.3-2.5-0.8c-0.6-0.5-1-1.3-1-2.2
		c0-1.2,0.5-2.1,1.4-2.7s2.5-0.9,4.5-0.9h0.7v-0.3c0-0.6,0-1,0-1.3c-0.1-1.1-0.8-1.6-2.1-1.6c-1.4,0-2.2,0.8-2.3,2.2h-1.8
		c0.1-1.1,0.5-2,1.2-2.6c0.7-0.6,1.7-0.9,2.9-0.9c2.3,0,3.6,0.9,3.8,2.8c0,0.4,0.1,0.9,0.1,1.4v4c0,0.8,0.1,1.7,0.2,2.7
		C97,18.8,95.3,18.8,95.3,18.8z M92.4,17.8c0.8,0,1.5-0.3,1.9-0.8s0.7-1.2,0.7-2.2v-1.1c-3.2-0.2-4.8,0.5-4.8,2.2
		C90.3,17.2,91,17.8,92.4,17.8z"/>
	<path class="st0" d="M105.6,18.8l-3.9-4.5l-1,1.1v3.4H99V4.1h1.7v9.4l4.9-5.3h2.2l-4.9,5l5,5.6H105.6z"/>
	<path class="st0" d="M108.7,5.1c0.2-0.2,0.5-0.3,0.8-0.3s0.6,0.1,0.8,0.3s0.3,0.5,0.3,0.8s-0.1,0.6-0.3,0.8s-0.5,0.3-0.8,0.3
		s-0.6-0.1-0.8-0.3s-0.3-0.5-0.3-0.8S108.5,5.3,108.7,5.1z M110.4,18.8h-1.7V8.2h1.7V18.8z"/>
	<path class="st0" d="M121.5,11c0,0.4,0,1,0,1.8v6h-1.7V13c0-0.6,0-1.2,0-1.5c-0.1-1.4-0.9-2.2-2.4-2.2c-0.9,0-1.6,0.4-2.2,1.2
		s-0.8,2-0.8,3.7v4.7h-1.7V8.2h1.7V10l0.7-1.2c0.8-0.6,1.7-0.9,2.8-0.9c1.1,0,2,0.3,2.7,0.8S121.5,10.1,121.5,11z"/>
</g>
</svg>
