<?xml version="1.0" encoding="utf-8"?>
<!-- Generator: Adobe Illustrator 25.2.1, SVG Export Plug-In . SVG Version: 6.00 Build 0)  -->
<svg version="1.1" id="Layer_1" xmlns="http://www.w3.org/2000/svg" xmlns:xlink="http://www.w3.org/1999/xlink" x="0px" y="0px"
	 viewBox="0 0 142 24" style="enable-background:new 0 0 142 24;" xml:space="preserve">
<style type="text/css">
	.st0{fill:#FFFFFF;}
</style>
<path class="st0" d="M1.4,12.7H0.1c0.2,2.8,1.7,5.2,3.8,6.6l0.7-1.2C2.9,16.9,1.7,15,1.4,12.7z M16.5,12.7c-0.2,2.3-1.4,4.2-3.2,5.5
	l0.7,1.2c2.2-1.5,3.6-3.9,3.8-6.6H16.5z M14.1,4.7l-0.7,1.1c1.8,1.2,3,3.2,3.2,5.5h1.4C17.7,8.5,16.2,6.1,14.1,4.7z M3.9,4.7
	c-2.2,1.5-3.6,3.9-3.8,6.6h1.3C1.7,9,2.9,7.1,4.6,5.8L3.9,4.7z M9,3.1C7.6,3.1,6.3,3.4,5.2,4l0.7,1.2c1-0.5,2-0.7,3.2-0.7
	c1.1,0,2.2,0.3,3.2,0.7L12.8,4C11.7,3.4,10.3,3.1,9,3.1z M12.2,18.9c-1,0.5-2,0.7-3.2,0.7c-1.1,0-2.2-0.3-3.2-0.7L5.2,20
	c1.2,0.6,2.5,0.9,3.8,0.9c1.4,0,2.7-0.3,3.8-0.9L12.2,18.9z M2.9,11.3h1.3c0.3-2.1,2-3.8,4.1-4V5.9C5.4,6.2,3.2,8.5,2.9,11.3z
	 M13.8,12.7c-0.3,2.1-2,3.8-4.1,4.1v1.3c2.8-0.3,5.1-2.6,5.4-5.4H13.8z M9.7,5.9v1.4c2.1,0.3,3.8,2,4.1,4.1h1.3
	C14.8,8.5,12.5,6.2,9.7,5.9z M4.2,12.7H2.9c0.3,2.8,2.6,5.1,5.4,5.4v-1.3C6.2,16.5,4.5,14.8,4.2,12.7z M11,12.7
	c-0.3,0.8-1.1,1.4-2,1.4c-0.9,0-1.7-0.6-2-1.4H5.6C6,14.2,7.3,15.4,9,15.4c1.7,0,3-1.2,3.4-2.7H11z M9,8.6c-1.6,0-3,1.2-3.4,2.7H7
	c0.3-0.8,1.1-1.4,2-1.4c0.9,0,1.7,0.6,2,1.4h1.4C12,9.8,10.6,8.6,9,8.6z"/>
<path class="st0" d="M30.2,8V6.9H21V8h3.9V18h1.4V8H30.2z M33.9,9.3c-2.9,0-4.2,2.1-4.2,4.5c0,2.4,1.3,4.5,4.2,4.5s4.2-2.1,4.2-4.5
	C38.2,11.3,36.8,9.3,33.9,9.3z M33.9,17.1c-1.7,0-2.7-1.4-2.7-3.4c0-2,1-3.4,2.7-3.4c1.7,0,2.7,1.4,2.7,3.4
	C36.6,15.7,35.7,17.1,33.9,17.1z M45.1,18H47l-4-4.5l4-4h-1.8l-4,4.3V6.2h-1.4V18h1.4v-2.7l0.8-0.9L45.1,18z M55,13.5
	c0-2.5-1.3-4.2-3.6-4.2c-2.3,0-4,1.7-4,4.5c0,3,1.6,4.4,3.9,4.4c1.7,0,3.4-0.9,3.7-3h-1.4c-0.2,1.2-1.1,1.9-2.2,1.9
	c-1.2,0-2.3-0.8-2.4-3H55C55,13.8,55,13.6,55,13.5z M51.3,10.3c1.4,0,2.1,1,2.3,2.8h-4.8C49,11.3,50,10.3,51.3,10.3z M64,11.7
	c-0.1-1.5-1.2-2.5-3-2.5c-0.9,0-1.5,0.1-2.2,0.7l-0.5,1V9.5h-1.4V18h1.4v-3.7c0-2.9,1.1-3.9,2.4-3.9c1.3,0,1.9,0.7,1.9,1.7
	c0,0.4,0,0.8,0,1.2V18H64v-4.8C64,12.5,64,12.2,64,11.7z M81.2,6.9H79l-3.2,9.9l-3.3-9.9h-2.3v11h1.4v-5.7c0-1.4,0-2.9,0-4.1
	c0.4,1.2,0.9,2.7,1.3,4l2,5.7h1.7l2-5.7c0.5-1.3,1-2.9,1.3-4.1c0,1.2,0,2.7,0,4.1V18h1.4V6.9z M84.3,6.7c-0.5,0-0.9,0.4-0.9,0.9
	s0.4,0.9,0.9,0.9s0.9-0.4,0.9-0.9S84.8,6.7,84.3,6.7z M85,18V9.5h-1.4V18H85z M94.8,9.5h-1.4v1.2l-0.6-0.8c-0.4-0.4-1.3-0.6-2-0.6
	c-2.2,0-4.1,1.5-4.1,4.6c0,2.5,1.4,4.3,3.9,4.3c0.9,0,1.8-0.3,2.2-0.7l0.6-0.9v0.1c0,0.3,0,0.5,0,0.9c-0.1,1.6-1,2.6-2.7,2.6
	c-1.5,0-2.3-0.7-2.4-1.8l0-0.1H87l0,0.2c0.2,1.8,1.4,2.8,3.8,2.8c2.4,0,4-1.3,4-3.8c0-0.5,0-1.1,0-1.6V9.5z M90.8,17.1
	c-1.7,0-2.6-1.5-2.6-3.4c0-2.2,1.2-3.4,2.6-3.4c1.2,0,2.6,0.8,2.6,3v0.5C93.5,16.2,92.2,17.1,90.8,17.1z M100.6,9.3
	c-0.4,0-0.8,0.1-1.2,0.4l-0.8,1.1V9.5h-1.4V18h1.4v-4.8c0-1.9,1.1-2.8,2.5-2.7v-1C101,9.3,100.8,9.3,100.6,9.3z M107.4,18h1.4
	c-0.1-0.9-0.2-1.5-0.2-2.2v-3.2c0-0.4,0-0.8,0-1.1c-0.1-1.4-1-2.2-3-2.2c-1.9,0-3.1,1-3.3,2.8h1.4c0.1-1.2,0.7-1.8,1.8-1.8
	c1.1,0,1.6,0.5,1.6,1.3c0,0.3,0,0.7,0,1v0.2h-0.5c-3.3,0-4.8,1-4.8,2.9c0,1.6,1.2,2.4,2.7,2.4c0.8,0,1.6-0.1,2.1-0.5l0.5-0.9
	L107.4,18z M105.1,17.1c-1,0-1.7-0.4-1.7-1.5c0-1.5,1.5-2,3.8-1.8v0.9C107.3,16.3,106.4,17.1,105.1,17.1z M112.7,10.6h1.6V9.5h-1.6
	v-2h-1.4v2h-1.1v1.1h1.1v4.9c0,0.5,0,0.8,0,1.1c0.1,1.1,0.6,1.5,1.7,1.5c0.4,0,0.8,0,1.2-0.1v-1c-1.1,0.1-1.4,0-1.5-0.9
	c0-0.2,0-0.4,0-0.7V10.6z M116.8,6.7c-0.5,0-0.9,0.4-0.9,0.9s0.4,0.9,0.9,0.9s0.9-0.4,0.9-0.9S117.3,6.7,116.8,6.7z M117.4,18V9.5
	h-1.4V18H117.4z M123.4,9.3c-2.9,0-4.2,2.1-4.2,4.5c0,2.4,1.3,4.5,4.2,4.5s4.2-2.1,4.2-4.5C127.6,11.3,126.3,9.3,123.4,9.3z
	 M123.4,17.1c-1.7,0-2.7-1.4-2.7-3.4c0-2,1-3.4,2.7-3.4s2.7,1.4,2.7,3.4C126.1,15.7,125.1,17.1,123.4,17.1z M136.4,11.7
	c-0.1-1.5-1.2-2.5-3-2.5c-0.9,0-1.5,0.1-2.2,0.7l-0.5,1V9.5h-1.4V18h1.4v-3.7c0-2.9,1.1-3.9,2.4-3.9c1.3,0,1.9,0.7,1.9,1.7
	c0,0.4,0,0.8,0,1.2V18h1.4v-4.8C136.4,12.5,136.4,12.2,136.4,11.7z"/>
</svg>
